SplineFontDB: 3.2
FontName: ATM008-Regular
FullName: ATM008-Regular
FamilyName: ATM 008
Weight: Book
Version: 1.001
ItalicAngle: -11
UnderlinePosition: -271
UnderlineWidth: 102
Ascent: 1600
Descent: 400
InvalidEm: 0
sfntRevision: 0x00010042
LayerCount: 2
Layer: 0 1 "Back" 1
Layer: 1 1 "Fore" 0
XUID: [1021 192 2086997156 16878]
StyleMap: 0x0040
FSType: 8
OS2Version: 3
OS2_WeightWidthSlopeOnly: 0
OS2_UseTypoMetrics: 0
CreationTime: 1535958995
ModificationTime: 1545707136
PfmFamily: 17
TTFWeight: 400
TTFWidth: 5
LineGap: 0
VLineGap: 0
Panose: 2 0 5 5 0 0 0 2 0 2
OS2TypoAscent: 2000
OS2TypoAOffset: 0
OS2TypoDescent: -1320
OS2TypoDOffset: 0
OS2TypoLinegap: 0
OS2WinAscent: 2000
OS2WinAOffset: 0
OS2WinDescent: 744
OS2WinDOffset: 0
HheadAscent: 2000
HheadAOffset: 0
HheadDescent: -1320
HheadDOffset: 0
OS2SubXSize: 1400
OS2SubYSize: 1300
OS2SubXOff: 0
OS2SubYOff: 0
OS2SupXSize: 1400
OS2SupYSize: 1300
OS2SupXOff: 0
OS2SupYOff: 0
OS2StrikeYSize: 100
OS2StrikeYPos: 518
OS2CapHeight: 1586
OS2XHeight: -200
OS2Vendor: '    '
OS2CodePages: 00000001.00000000
OS2UnicodeRanges: 00100003.00000000.00000000.00000000
Lookup: 4 0 0 "'akhn' Akhand in Tamil2 lookup 0" { "'akhn' Akhand in Tamil2 lookup 0 subtable"  } ['akhn' ('tml2' <'dflt' > ) ]
Lookup: 4 0 0 "'akhn' Akhand in Tamil lookup 1" { "'akhn' Akhand in Tamil lookup 1 subtable"  } ['akhn' ('taml' <'dflt' > ) ]
Lookup: 4 0 0 "'half' Half Forms in Tamil lookup 2" { "'half' Half Forms in Tamil lookup 2 subtable"  } ['half' ('taml' <'dflt' > ) ]
Lookup: 4 0 0 "'haln' Halant Forms in Tamil2 lookup 3" { "'haln' Halant Forms in Tamil2 lookup 3 subtable"  } ['haln' ('tml2' <'dflt' > ) ]
Lookup: 4 0 0 "'haln' Halant Forms in Tamil lookup 4" { "'haln' Halant Forms in Tamil lookup 4 subtable"  } ['haln' ('taml' <'dflt' > ) ]
Lookup: 4 0 0 "'abvs' Above Base Substitutions lookup 5" { "'abvs' Above Base Substitutions lookup 5 subtable"  } ['abvs' ('taml' <'dflt' > 'tml2' <'dflt' > ) ]

StartChar: exclam
Encoding: 33 33 4
Width: 522
GlyphClass: 2
Flags: W
LayerCount: 2
Fore
SplineSet
342 950 m 2,0,-1
 304 236 l 1,1,-1
 272 236 l 1,2,-1
 230 950 l 2,3,4
 224 1058 224 1058 290 1058 c 0,5,6
 348 1058 348 1058 342 950 c 2,0,-1
344 56 m 0,7,8
 344 -4 344 -4 284 -4 c 256,9,10
 224 -4 224 -4 224 56 c 0,11,12
 224 114 224 114 284 114 c 256,13,14
 344 114 344 114 344 56 c 0,7,8
EndSplineSet
EndChar

StartChar: quotedbl
Encoding: 34 34 5
Width: 606
GlyphClass: 2
Flags: W
LayerCount: 2
Fore
SplineSet
109 647 m 1,0,-1
 63 912 l 1,1,-1
 63 1140 l 1,2,-1
 257 1140 l 1,3,-1
 257 912 l 1,4,-1
 214 647 l 1,5,-1
 109 647 l 1,0,-1
423 647 m 1,6,-1
 378 912 l 1,7,-1
 378 1140 l 1,8,-1
 572 1140 l 1,9,-1
 572 912 l 1,10,-1
 527 647 l 1,11,-1
 423 647 l 1,6,-1
EndSplineSet
EndChar

StartChar: numbersign
Encoding: 35 35 6
Width: 1203
GlyphClass: 2
Flags: W
LayerCount: 2
Fore
SplineSet
179 22 m 1,0,-1
 264 356 l 1,1,-1
 103 356 l 1,2,-1
 103 473 l 1,3,-1
 288 473 l 1,4,-1
 358 761 l 1,5,-1
 103 761 l 1,6,-1
 103 876 l 1,7,-1
 386 876 l 1,8,-1
 471 1218 l 1,9,-1
 609 1218 l 1,10,-1
 526 876 l 1,11,-1
 817 876 l 1,12,-1
 903 1218 l 1,13,-1
 1041 1218 l 1,14,-1
 962 876 l 1,15,-1
 1124 876 l 1,16,-1
 1124 761 l 1,17,-1
 932 761 l 1,18,-1
 861 473 l 1,19,-1
 1124 473 l 1,20,-1
 1124 356 l 1,21,-1
 832 356 l 1,22,-1
 755 22 l 1,23,-1
 611 22 l 1,24,-1
 688 356 l 1,25,-1
 401 356 l 1,26,-1
 322 22 l 1,27,-1
 179 22 l 1,0,-1
435 473 m 1,28,-1
 724 473 l 1,29,-1
 792 761 l 1,30,-1
 501 761 l 1,31,-1
 435 473 l 1,28,-1
EndSplineSet
EndChar

StartChar: dollar
Encoding: 36 36 7
Width: 908
GlyphClass: 2
Flags: W
LayerCount: 2
Fore
SplineSet
766 302 m 0,0,1
 744 187 744 187 654 120 c 0,2,3
 572 60 572 60 456 60 c 1,4,-1
 456 -52 l 1,5,-1
 383 -52 l 1,6,-1
 383 60 l 1,7,8
 372 60 372 60 357 60 c 0,9,10
 336 65 336 65 330 71 c 2,11,-1
 264 92 l 2,12,13
 242 95 242 95 229.5 102.5 c 128,-1,14
 217 110 217 110 188 131 c 2,15,-1
 146 156 l 1,16,-1
 180 232 l 1,17,-1
 217 204 l 2,18,19
 259 169 259 169 284 156 c 2,20,-1
 336 137 l 1,21,-1
 383 134 l 1,22,-1
 383 518 l 1,23,24
 230 560 230 560 169 630 c 0,25,26
 99 710 99 710 99 838 c 2,27,-1
 99 872 l 1,28,-1
 104 912 l 2,29,30
 119 1045 119 1045 217 1126 c 0,31,32
 299 1192 299 1192 383 1192 c 1,33,-1
 383 1289 l 1,34,-1
 456 1289 l 1,35,-1
 456 1197 l 1,36,-1
 510 1191 l 2,37,38
 531 1191 531 1191 541.5 1190 c 128,-1,39
 552 1189 552 1189 578 1176 c 1,40,41
 688 1140 688 1140 688 1126 c 1,42,-1
 659 1037 l 1,43,-1
 646 1048 l 2,44,45
 615 1079 615 1079 563 1101 c 0,46,47
 537 1112 537 1112 517.5 1116.5 c 128,-1,48
 498 1121 498 1121 491 1121 c 0,49,50
 466 1121 466 1121 456 1126 c 1,51,-1
 456 739 l 1,52,53
 561 717 561 717 615 686 c 0,54,55
 773 594 773 594 773 404 c 2,56,-1
 772 355 l 2,57,58
 772 330 772 330 766 302 c 0,0,1
383 770 m 1,59,-1
 383 1126 l 1,60,61
 330 1121 330 1121 281 1080 c 0,62,63
 219 1030 219 1030 219 964 c 0,64,65
 219 872 219 872 283 819 c 0,66,67
 297 807 297 807 322.5 796 c 128,-1,68
 348 785 348 785 383 770 c 1,59,-1
653 317 m 0,69,70
 653 404 653 404 573 448 c 1,71,-1
 456 493 l 1,72,-1
 456 134 l 1,73,74
 547 134 547 134 600 185 c 128,-1,75
 653 236 653 236 653 317 c 0,69,70
EndSplineSet
EndChar

StartChar: percent
Encoding: 37 37 8
Width: 1044
GlyphClass: 2
Flags: W
LayerCount: 2
Fore
SplineSet
924 154 m 0,0,1
 890 90 890 90 828 45 c 128,-1,2
 766 0 766 0 702 0 c 0,3,4
 662 0 662 0 626 22 c 0,5,6
 558 62 558 62 558 158 c 0,7,8
 558 246 558 246 620 344 c 0,9,10
 698 468 698 468 820 468 c 0,11,12
 862 468 862 468 894 450 c 0,13,14
 966 410 966 410 966 310 c 0,15,16
 966 234 966 234 924 154 c 0,0,1
808 848 m 1,17,-1
 326 -18 l 1,18,-1
 250 -18 l 1,19,-1
 744 848 l 1,20,-1
 808 848 l 1,17,-1
430 480 m 0,21,22
 396 416 396 416 333 371 c 128,-1,23
 270 326 270 326 208 326 c 0,24,25
 166 326 166 326 130 348 c 0,26,27
 64 388 64 388 64 482 c 0,28,29
 64 570 64 570 126 670 c 0,30,31
 204 794 204 794 326 794 c 0,32,33
 368 794 368 794 400 776 c 0,34,35
 474 734 474 734 474 636 c 0,36,37
 474 560 474 560 430 480 c 0,21,22
870 188 m 0,38,39
 904 250 904 250 904 302 c 0,40,41
 904 346 904 346 879 375 c 128,-1,42
 854 404 854 404 812 404 c 0,43,44
 728 404 728 404 666 304 c 0,45,46
 620 230 620 230 620 170 c 0,47,48
 620 70 620 70 714 70 c 0,49,50
 806 70 806 70 870 188 c 0,38,39
376 516 m 0,51,52
 408 576 408 576 408 630 c 0,53,54
 408 672 408 672 384 701 c 128,-1,55
 360 730 360 730 320 730 c 0,56,57
 234 730 234 730 172 630 c 0,58,59
 126 556 126 556 126 494 c 0,60,61
 126 396 126 396 218 396 c 0,62,63
 312 396 312 396 376 516 c 0,51,52
EndSplineSet
EndChar

StartChar: ampersand
Encoding: 38 38 9
Width: 856
GlyphClass: 2
Flags: W
LayerCount: 2
Fore
SplineSet
784 64 m 1,0,-1
 736 14 l 1,1,-1
 626 124 l 1,2,3
 558 40 558 40 502 8 c 0,4,5
 436 -32 436 -32 330 -42 c 0,6,7
 254 -50 254 -50 176 -4 c 0,8,9
 76 54 76 54 64 170 c 0,10,11
 46 350 46 350 274 476 c 1,12,13
 188 546 188 546 188 662 c 0,14,15
 188 826 188 826 378 826 c 0,16,17
 480 826 480 826 532 780 c 0,18,19
 568 746 568 746 572 704 c 0,20,21
 588 564 588 564 384 460 c 1,22,-1
 612 232 l 1,23,24
 628 256 628 256 644 286 c 0,25,26
 680 360 680 360 704 454 c 1,27,-1
 764 426 l 1,28,29
 760 392 760 392 728 308 c 0,30,31
 694 218 694 218 666 182 c 1,32,-1
 784 64 l 1,0,-1
498 682 m 0,33,34
 494 764 494 764 370 764 c 0,35,36
 318 764 318 764 288 732 c 128,-1,37
 258 700 258 700 258 654 c 0,38,39
 258 566 258 566 344 508 c 1,40,41
 432 558 432 558 466 595 c 128,-1,42
 500 632 500 632 498 682 c 0,33,34
574 176 m 1,43,-1
 324 424 l 1,44,45
 252 398 252 398 196 344 c 0,46,47
 130 278 130 278 130 204 c 0,48,49
 130 192 130 192 132 178 c 0,50,51
 158 24 158 24 320 24 c 0,52,53
 370 24 370 24 436 56 c 0,54,55
 524 98 524 98 574 176 c 1,43,-1
EndSplineSet
EndChar

StartChar: quotesingle
Encoding: 39 39 10
Width: 368
GlyphClass: 2
Flags: W
LayerCount: 2
Fore
SplineSet
137 647 m 1,0,-1
 91 912 l 1,1,-1
 91 1140 l 1,2,-1
 285 1140 l 1,3,-1
 285 912 l 1,4,-1
 242 647 l 1,5,-1
 137 647 l 1,0,-1
EndSplineSet
EndChar

StartChar: parenleft
Encoding: 40 40 11
Width: 502
GlyphClass: 2
Flags: W
LayerCount: 2
Fore
SplineSet
494 1016 m 1,0,1
 316 916 316 916 224 726 c 0,2,3
 144 558 144 558 144 362 c 0,4,5
 144 186 144 186 224 28 c 0,6,7
 318 -156 318 -156 490 -236 c 1,8,-1
 456 -282 l 1,9,10
 78 -84 78 -84 78 362 c 0,11,12
 78 838 78 838 462 1064 c 1,13,-1
 494 1016 l 1,0,1
EndSplineSet
EndChar

StartChar: parenright
Encoding: 41 41 12
Width: 522
GlyphClass: 2
Flags: W
LayerCount: 2
Fore
SplineSet
442 422 m 0,0,1
 442 -52 442 -52 60 -280 c 1,2,-1
 26 -232 l 1,3,4
 202 -128 202 -128 294 60 c 0,5,6
 376 228 376 228 376 422 c 0,7,8
 376 598 376 598 296 756 c 0,9,10
 202 940 202 940 32 1018 c 1,11,-1
 64 1066 l 1,12,13
 442 872 442 872 442 422 c 0,0,1
EndSplineSet
EndChar

StartChar: asterisk
Encoding: 42 42 13
Width: 705
GlyphClass: 2
Flags: W
LayerCount: 2
Fore
SplineSet
646 1169 m 1,0,-1
 414 1121 l 1,1,-1
 592 981 l 1,2,-1
 451 875 l 1,3,-1
 346 1073 l 1,4,-1
 267 873 l 1,5,-1
 114 954 l 1,6,-1
 280 1125 l 1,7,-1
 48 1154 l 1,8,-1
 99 1307 l 1,9,-1
 300 1207 l 1,10,-1
 261 1434 l 1,11,-1
 432 1434 l 1,12,-1
 390 1212 l 1,13,-1
 594 1317 l 1,14,-1
 646 1169 l 1,0,-1
EndSplineSet
EndChar

StartChar: plus
Encoding: 43 43 14
Width: 796
GlyphClass: 2
Flags: W
LayerCount: 2
Fore
SplineSet
754 324 m 1,0,-1
 430 324 l 1,1,-1
 430 0 l 1,2,-1
 366 0 l 1,3,-1
 366 324 l 1,4,-1
 42 324 l 1,5,-1
 42 388 l 1,6,-1
 366 388 l 1,7,-1
 366 712 l 1,8,-1
 430 712 l 1,9,-1
 430 388 l 1,10,-1
 754 388 l 1,11,-1
 754 324 l 1,0,-1
EndSplineSet
EndChar

StartChar: comma
Encoding: 44 44 15
Width: 352
GlyphClass: 2
Flags: W
LayerCount: 2
Fore
SplineSet
226 10 m 0,0,1
 226 -38 226 -38 193 -81 c 128,-1,2
 160 -124 160 -124 114 -144 c 1,3,-1
 102 -126 l 1,4,5
 148 -102 148 -102 168 -66 c 0,6,7
 186 -40 186 -40 186 -16 c 0,8,9
 186 -6 186 -6 182 -5 c 128,-1,10
 178 -4 178 -4 174 -4 c 2,11,-1
 140 -6 l 2,12,13
 122 -8 122 -8 103 7 c 128,-1,14
 84 22 84 22 84 48 c 0,15,16
 84 66 84 66 98 84 c 128,-1,17
 112 102 112 102 146 102 c 0,18,19
 178 102 178 102 202 78 c 128,-1,20
 226 54 226 54 226 10 c 0,0,1
EndSplineSet
EndChar

StartChar: hyphen
Encoding: 45 45 16
Width: 604
GlyphClass: 2
Flags: W
LayerCount: 2
Fore
SplineSet
568 450 m 1,0,-1
 34 450 l 1,1,-1
 34 516 l 1,2,-1
 568 516 l 1,3,-1
 568 450 l 1,0,-1
EndSplineSet
EndChar

StartChar: period
Encoding: 46 46 17
Width: 282
GlyphClass: 2
Flags: W
LayerCount: 2
Fore
SplineSet
200 56 m 1,0,1
 200 0 200 0 140 0 c 0,2,3
 120 0 120 0 102 16 c 128,-1,4
 84 32 84 32 84 56 c 0,5,6
 84 112 84 112 142 112 c 0,7,8
 166 112 166 112 181 98 c 128,-1,9
 196 84 196 84 200 56 c 1,0,1
EndSplineSet
EndChar

StartChar: slash
Encoding: 47 47 18
Width: 436
GlyphClass: 2
Flags: W
LayerCount: 2
Fore
SplineSet
422 1058 m 1,0,-1
 74 -26 l 1,1,-1
 4 -26 l 1,2,-1
 354 1058 l 1,3,-1
 422 1058 l 1,0,-1
EndSplineSet
EndChar

StartChar: zero
Encoding: 48 48 19
Width: 706
GlyphClass: 2
Flags: W
LayerCount: 2
Fore
SplineSet
664 449 m 0,0,1
 664 -20 664 -20 347 -20 c 0,2,3
 195 -20 195 -20 116 110 c 0,4,5
 40 229 40 229 40 433 c 256,6,7
 40 637 40 637 110 764 c 0,8,9
 189 906 189 906 343 906 c 0,10,11
 664 906 664 906 664 449 c 0,0,1
599 447 m 0,12,13
 599 845 599 845 343 845 c 0,14,15
 218 845 218 845 155 714 c 0,16,17
 103 606 103 606 103 431 c 0,18,19
 103 253 103 253 161 150 c 0,20,21
 224 38 224 38 347 38 c 0,22,23
 478 38 478 38 543 162 c 0,24,25
 599 267 599 267 599 447 c 0,12,13
EndSplineSet
EndChar

StartChar: one
Encoding: 49 49 20
Width: 642
GlyphClass: 2
Flags: W
LayerCount: 2
Fore
SplineSet
413 0 m 1,0,-1
 353 -2 l 1,1,-1
 353 668 l 1,2,-1
 173 668 l 1,3,-1
 173 726 l 1,4,5
 265 730 265 730 311 770 c 0,6,7
 341 798 341 798 367 906 c 1,8,-1
 413 906 l 1,9,-1
 413 0 l 1,0,-1
EndSplineSet
EndChar

StartChar: two
Encoding: 50 50 21
Width: 718
GlyphClass: 2
Flags: W
LayerCount: 2
Fore
SplineSet
662 0 m 1,0,-1
 40 0 l 1,1,2
 45 54 45 54 55 110 c 128,-1,3
 65 166 65 166 110 226.5 c 128,-1,4
 155 287 155 287 247 335 c 0,5,6
 315 370 315 370 385 403 c 0,7,8
 426 424 426 424 469 446 c 0,9,10
 525 478 525 478 554 520 c 0,11,12
 592 576 592 576 592 658 c 0,13,14
 592 736 592 736 541 790 c 0,15,16
 480 857 480 857 370 857 c 0,17,18
 251 857 251 857 187.5 782.5 c 128,-1,19
 124 708 124 708 128 583 c 1,20,-1
 62 583 l 1,21,22
 62 919 62 919 370 919 c 0,23,24
 507 919 507 919 584.5 844 c 128,-1,25
 662 769 662 769 662 650 c 0,26,27
 662 536 662 536 592 462 c 0,28,29
 540 408 540 408 409 345 c 0,30,31
 251 269 251 269 206 231 c 0,32,33
 130 166 130 166 121 58 c 1,34,-1
 662 58 l 1,35,-1
 662 0 l 1,0,-1
EndSplineSet
EndChar

StartChar: three
Encoding: 51 51 22
Width: 704
GlyphClass: 2
Flags: W
LayerCount: 2
Fore
SplineSet
657 269 m 0,0,1
 657 -10 657 -10 333 -10 c 0,2,3
 30 -10 30 -10 30 285 c 1,4,-1
 106 285 l 1,5,6
 101 189 101 189 152 128 c 0,7,8
 213 52 213 52 345 52 c 0,9,10
 467 52 467 52 532 116 c 0,11,12
 586 170 586 170 586 247 c 0,13,14
 586 373 586 373 477 413 c 0,15,16
 421 431 421 431 275 431 c 1,17,-1
 275 509 l 1,18,19
 554 509 554 509 554 682 c 0,20,21
 554 846 554 846 343 846 c 0,22,23
 227 846 227 846 166 774 c 0,24,25
 112 710 112 710 117 610 c 1,26,-1
 54 610 l 1,27,28
 50 742 50 742 117 820 c 0,29,30
 193 906 193 906 347 906 c 0,31,32
 478 906 478 906 554 838 c 0,33,34
 624 774 624 774 624 675 c 0,35,36
 624 603 624 603 584.5 549.5 c 128,-1,37
 545 496 545 496 480 478 c 1,38,39
 556 464 556 464 603 413 c 0,40,41
 657 355 657 355 657 269 c 0,0,1
EndSplineSet
EndChar

StartChar: four
Encoding: 52 52 23
Width: 712
GlyphClass: 2
Flags: W
LayerCount: 2
Fore
SplineSet
657 218 m 1,0,-1
 525 218 l 1,1,-1
 525 0 l 1,2,-1
 465 -2 l 1,3,-1
 465 218 l 1,4,-1
 72 218 l 1,5,-1
 72 278 l 1,6,-1
 444 906 l 1,7,-1
 525 906 l 1,8,-1
 525 276 l 1,9,-1
 657 276 l 1,10,-1
 657 218 l 1,0,-1
464 276 m 1,11,-1
 464 832 l 1,12,-1
 141 276 l 1,13,-1
 464 276 l 1,11,-1
EndSplineSet
EndChar

StartChar: five
Encoding: 53 53 24
Width: 714
GlyphClass: 2
Flags: W
LayerCount: 2
Fore
SplineSet
662 299 m 0,0,1
 662 157 662 157 579 70 c 0,2,3
 491 -26 491 -26 333 -26 c 0,4,5
 206 -26 206 -26 124 50 c 0,6,7
 47 121 47 121 44 227 c 1,8,-1
 106 227 l 1,9,10
 103 157 103 157 159 99 c 0,11,12
 225 28 225 28 333 28 c 0,13,14
 467 28 467 28 540 117 c 0,15,16
 598 189 598 189 598 297 c 0,17,18
 598 413 598 413 531 480 c 0,19,20
 467 541 467 541 369 541 c 0,21,22
 224 541 224 541 153 419 c 1,23,-1
 81 424 l 1,24,-1
 157 906 l 1,25,-1
 610 906 l 1,26,-1
 610 848 l 1,27,-1
 204 848 l 1,28,-1
 152 505 l 1,29,30
 222 601 222 601 361 601 c 0,31,32
 489 601 489 601 570 532 c 0,33,34
 662 453 662 453 662 299 c 0,0,1
EndSplineSet
EndChar

StartChar: six
Encoding: 54 54 25
Width: 690
GlyphClass: 2
Flags: W
LayerCount: 2
Fore
SplineSet
648 287 m 0,0,1
 648 157 648 157 566 72.5 c 128,-1,2
 484 -12 484 -12 359 -12 c 0,3,4
 229 -12 229 -12 148 74 c 0,5,6
 45 184 45 184 45 413 c 0,7,8
 45 650 45 650 123 780 c 0,9,10
 204 919 204 919 369 919 c 0,11,12
 610 919 610 919 640 676 c 1,13,-1
 578 676 l 1,14,15
 583 744 583 744 534 796 c 0,16,17
 477 857 477 857 370 857 c 0,18,19
 123 857 123 857 112 444 c 1,20,21
 200 572 200 572 379 572 c 0,22,23
 489 572 489 572 565 498 c 0,24,25
 648 419 648 419 648 287 c 0,0,1
586 278 m 0,26,27
 586 379 586 379 528.5 445 c 128,-1,28
 471 511 471 511 369 511 c 0,29,30
 271 511 271 511 200.5 442 c 128,-1,31
 130 373 130 373 132 276 c 0,32,33
 134 180 134 180 197.5 114 c 128,-1,34
 261 48 261 48 357 48 c 0,35,36
 459 48 459 48 522.5 110.5 c 128,-1,37
 586 173 586 173 586 278 c 0,26,27
EndSplineSet
EndChar

StartChar: seven
Encoding: 55 55 26
Width: 731
GlyphClass: 2
Flags: W
LayerCount: 2
Fore
SplineSet
696 832 m 1,0,1
 574 710 574 710 431 465 c 0,2,3
 299 240 299 240 261 -2 c 1,4,-1
 186 -2 l 1,5,6
 222 215 222 215 387 509 c 0,7,8
 489 693 489 693 626 846 c 1,9,-1
 54 846 l 1,10,-1
 54 906 l 1,11,-1
 696 906 l 1,12,-1
 696 832 l 1,0,1
EndSplineSet
EndChar

StartChar: eight
Encoding: 56 56 27
Width: 702
GlyphClass: 2
Flags: W
LayerCount: 2
Fore
SplineSet
655 263 m 0,0,1
 655 134 655 134 578.5 62 c 128,-1,2
 502 -10 502 -10 357 -10 c 0,3,4
 199 -10 199 -10 116 65 c 0,5,6
 38 135 38 135 38 255 c 0,7,8
 38 349 38 349 94 415 c 0,9,10
 139 471 139 471 204 489 c 1,11,12
 66 536 66 536 66 662 c 0,13,14
 66 780 66 780 148 845 c 0,15,16
 222 906 222 906 347 906 c 0,17,18
 475 906 475 906 549.5 845 c 128,-1,19
 624 784 624 784 624 674 c 0,20,21
 624 601 624 601 579 547 c 0,22,23
 543 502 543 502 493 484 c 1,24,25
 561 464 561 464 608 401.5 c 128,-1,26
 655 339 655 339 655 263 c 0,0,1
560 675 m 0,27,28
 560 846 560 846 347 846 c 0,29,30
 253 846 253 846 195 805 c 0,31,32
 130 756 130 756 130 670 c 0,33,34
 130 596 130 596 200 554 c 0,35,36
 261 516 261 516 347 516 c 0,37,38
 431 516 431 516 491 554 c 0,39,40
 560 598 560 598 560 675 c 0,27,28
590 249 m 0,41,42
 590 349 590 349 516 405 c 0,43,44
 449 455 449 455 347 455 c 0,45,46
 240 455 240 455 173 408 c 0,47,48
 98 351 98 351 98 243 c 0,49,50
 98 141 98 141 184 86 c 0,51,52
 253 44 253 44 355 44 c 256,53,54
 457 44 457 44 520 94 c 0,55,56
 590 150 590 150 590 249 c 0,41,42
EndSplineSet
EndChar

StartChar: nine
Encoding: 57 57 28
Width: 712
GlyphClass: 2
Flags: W
LayerCount: 2
Fore
SplineSet
652 493 m 0,0,1
 652 256 652 256 576 126 c 0,2,3
 493 -14 493 -14 331 -14 c 0,4,5
 90 -14 90 -14 54 227 c 1,6,-1
 126 227 l 1,7,8
 119 161 119 161 164 108 c 0,9,10
 220 47 220 47 327 47 c 0,11,12
 574 47 574 47 585 460 c 1,13,14
 496 333 496 333 317 333 c 0,15,16
 207 333 207 333 134 406 c 0,17,18
 50 485 50 485 50 617 c 256,19,20
 50 749 50 749 132.5 833 c 128,-1,21
 215 917 215 917 339 917 c 0,22,23
 469 917 469 917 550 830 c 0,24,25
 652 722 652 722 652 493 c 0,0,1
565 628 m 0,26,27
 565 724 565 724 501 790.5 c 128,-1,28
 437 857 437 857 341 857 c 0,29,30
 240 857 240 857 176 794 c 128,-1,31
 112 731 112 731 112 626 c 0,32,33
 112 525 112 525 169.5 460 c 128,-1,34
 227 395 227 395 331 395 c 0,35,36
 427 395 427 395 496 463 c 128,-1,37
 565 531 565 531 565 628 c 0,26,27
EndSplineSet
EndChar

StartChar: colon
Encoding: 58 58 29
Width: 330
GlyphClass: 2
Flags: W
LayerCount: 2
Fore
SplineSet
196 542 m 256,0,1
 196 514 196 514 178 500 c 128,-1,2
 160 486 160 486 142 482 c 1,3,4
 122 482 122 482 100 500 c 0,5,6
 86 516 86 516 86 540 c 0,7,8
 86 596 86 596 142 596 c 0,9,10
 164 596 164 596 180 583 c 128,-1,11
 196 570 196 570 196 542 c 256,0,1
200 48 m 1,12,13
 200 -8 200 -8 140 -8 c 0,14,15
 120 -8 120 -8 102 8 c 128,-1,16
 84 24 84 24 84 48 c 0,17,18
 84 104 84 104 142 104 c 0,19,20
 166 104 166 104 181 90 c 128,-1,21
 196 76 196 76 200 48 c 1,12,13
EndSplineSet
EndChar

StartChar: semicolon
Encoding: 59 59 30
Width: 352
GlyphClass: 2
Flags: W
LayerCount: 2
Fore
SplineSet
200 530 m 0,0,1
 200 504 200 504 182 488 c 128,-1,2
 164 472 164 472 142 472 c 0,3,4
 122 472 122 472 104 490 c 128,-1,5
 86 508 86 508 86 530 c 0,6,7
 86 550 86 550 104 568 c 128,-1,8
 122 586 122 586 142 586 c 0,9,10
 168 586 168 586 182 571 c 128,-1,11
 196 556 196 556 200 530 c 0,0,1
226 10 m 0,12,13
 226 -38 226 -38 193 -81 c 128,-1,14
 160 -124 160 -124 114 -144 c 1,15,-1
 102 -126 l 1,16,17
 148 -102 148 -102 168 -66 c 0,18,19
 186 -40 186 -40 186 -16 c 0,20,21
 186 -6 186 -6 182 -5 c 128,-1,22
 178 -4 178 -4 174 -4 c 2,23,-1
 140 -6 l 2,24,25
 122 -8 122 -8 103 7 c 128,-1,26
 84 22 84 22 84 48 c 0,27,28
 84 66 84 66 98 84 c 128,-1,29
 112 102 112 102 146 102 c 0,30,31
 178 102 178 102 202 78 c 128,-1,32
 226 54 226 54 226 10 c 0,12,13
EndSplineSet
EndChar

StartChar: less
Encoding: 60 60 31
Width: 1240
GlyphClass: 2
Flags: W
LayerCount: 2
Fore
SplineSet
993 0 m 1,0,-1
 4 471 l 1,1,-1
 4 589 l 1,2,-1
 993 1070 l 1,3,-1
 993 859 l 1,4,-1
 261 531 l 1,5,-1
 993 202 l 1,6,-1
 993 0 l 1,0,-1
EndSplineSet
EndChar

StartChar: equal
Encoding: 61 61 32
Width: 796
GlyphClass: 2
Flags: W
LayerCount: 2
Fore
SplineSet
748 550 m 1,0,-1
 34 550 l 1,1,-1
 34 616 l 1,2,-1
 748 616 l 1,3,-1
 748 550 l 1,0,-1
748 262 m 1,4,-1
 34 262 l 1,5,-1
 34 330 l 1,6,-1
 748 330 l 1,7,-1
 748 262 l 1,4,-1
EndSplineSet
EndChar

StartChar: greater
Encoding: 62 62 33
Width: 1306
GlyphClass: 2
Flags: W
LayerCount: 2
Fore
SplineSet
242 202 m 1,0,-1
 974 531 l 1,1,-1
 242 859 l 1,2,-1
 242 1070 l 1,3,-1
 1231 589 l 1,4,-1
 1231 471 l 1,5,-1
 242 0 l 1,6,-1
 242 202 l 1,0,-1
EndSplineSet
EndChar

StartChar: question
Encoding: 63 63 34
Width: 856
GlyphClass: 2
Flags: W
LayerCount: 2
Fore
SplineSet
714 874 m 0,0,1
 714 768 714 768 640 680 c 0,2,3
 636 676 636 676 520 568 c 0,4,5
 412 468 412 468 412 266 c 1,6,-1
 344 266 l 1,7,8
 348 386 348 386 358 422 c 0,9,10
 382 514 382 514 466 606 c 1,11,12
 522 660 522 660 578 714 c 1,13,14
 650 798 650 798 650 880 c 0,15,16
 650 974 650 974 595 1028 c 128,-1,17
 540 1082 540 1082 442 1082 c 0,18,19
 204 1082 204 1082 204 808 c 1,20,-1
 140 808 l 1,21,22
 140 1142 140 1142 440 1142 c 0,23,24
 594 1142 594 1142 664 1048 c 0,25,26
 714 978 714 978 714 874 c 0,0,1
438 58 m 0,27,28
 438 -2 438 -2 380 -2 c 0,29,30
 320 -2 320 -2 320 58 c 0,31,32
 320 116 320 116 380 116 c 0,33,34
 402 116 402 116 420 98 c 128,-1,35
 438 80 438 80 438 58 c 0,27,28
EndSplineSet
EndChar

StartChar: at
Encoding: 64 64 35
Width: 1619
GlyphClass: 2
Flags: W
LayerCount: 2
Fore
SplineSet
877 71 m 0,0,1
 870 83 870 83 867 104 c 1,2,3
 849 87 849 87 827.5 71 c 128,-1,4
 806 55 806 55 783 41 c 0,5,6
 711 -2 711 -2 640 -2 c 0,7,8
 564 -2 564 -2 495 41 c 128,-1,9
 426 84 426 84 381 178 c 0,10,11
 336 269 336 269 336 371 c 0,12,13
 336 493 336 493 401 626 c 0,14,15
 467 758 467 758 568 824 c 0,16,17
 668 890 668 890 764 890 c 0,18,19
 843 890 843 890 903 851 c 0,20,21
 929 837 929 837 950.5 818.5 c 128,-1,22
 972 800 972 800 991 774 c 1,23,24
 996 798 996 798 1002 821.5 c 128,-1,25
 1008 845 1008 845 1013 865 c 1,26,-1
 1190 865 l 1,27,-1
 1073 320 l 1,28,-1
 1050 195 l 2,29,30
 1051 190 1051 190 1054 185.5 c 128,-1,31
 1057 181 1057 181 1062 176 c 2,32,-1
 1060 178 l 2,33,34
 1072 168 1072 168 1085 168 c 0,35,36
 1122 168 1122 168 1181 210 c 0,37,38
 1263 267 1263 267 1316 371 c 0,39,40
 1370 474 1370 474 1370 583 c 0,41,42
 1370 702 1370 702 1304 813 c 0,43,44
 1272 869 1272 869 1223.5 913 c 128,-1,45
 1175 957 1175 957 1112 991 c 0,46,47
 1048 1021 1048 1021 977.5 1040.5 c 128,-1,48
 907 1060 907 1060 829 1060 c 0,49,50
 648 1060 648 1060 503 976 c 0,51,52
 429 934 429 934 372.5 874 c 128,-1,53
 316 814 316 814 274 733 c 0,54,55
 191 570 191 570 191 402 c 0,56,57
 191 311 191 311 211 230.5 c 128,-1,58
 231 150 231 150 271 83.5 c 128,-1,59
 311 17 311 17 369 -34 c 128,-1,60
 427 -85 427 -85 504 -118 c 0,61,62
 582 -152 582 -152 668 -168 c 128,-1,63
 754 -184 754 -184 849 -184 c 0,64,65
 1050 -184 1050 -184 1181 -119 c 0,66,67
 1315 -54 1315 -54 1393 54 c 1,68,-1
 1574 54 l 1,69,70
 1519 -65 1519 -65 1421 -148 c 0,71,72
 1374 -188 1374 -188 1310.5 -223.5 c 128,-1,73
 1247 -259 1247 -259 1181 -285 c 0,74,75
 1152 -295 1152 -295 1113 -305.5 c 128,-1,76
 1074 -316 1074 -316 1031 -324 c 0,77,78
 993 -331 993 -331 951 -334.5 c 128,-1,79
 909 -338 909 -338 852 -338 c 0,80,81
 716 -338 716 -338 599 -312 c 128,-1,82
 482 -286 482 -286 387 -235.5 c 128,-1,83
 292 -185 292 -185 220.5 -110.5 c 128,-1,84
 149 -36 149 -36 104 61 c 0,85,86
 37 219 37 219 37 388 c 0,87,88
 37 488 37 488 57.5 580 c 128,-1,89
 78 672 78 672 117 760 c 0,90,91
 217 973 217 973 394 1091 c 0,92,93
 575 1210 575 1210 835 1210 c 0,94,95
 935 1210 935 1210 1022 1190.5 c 128,-1,96
 1109 1171 1109 1171 1191 1129 c 0,97,98
 1272 1090 1272 1090 1335.5 1029 c 128,-1,99
 1399 968 1399 968 1448 883 c 0,100,101
 1523 740 1523 740 1523 581 c 0,102,103
 1523 464 1523 464 1480.5 359 c 128,-1,104
 1438 254 1438 254 1358 163 c 0,105,106
 1285 85 1285 85 1202.5 41.5 c 128,-1,107
 1120 -2 1120 -2 1033 -2 c 2,108,-1
 1012 -2 l 1,109,-1
 977 0 l 2,110,111
 954 4 954 4 933 18 c 1,112,-1
 934 18 l 1,113,114
 917 27 917 27 903.5 40.5 c 128,-1,115
 890 54 890 54 877 71 c 0,0,1
521 360 m 0,116,117
 521 261 521 261 566 207 c 0,118,119
 610 154 610 154 667 154 c 0,120,121
 707 154 707 154 753.5 178.5 c 128,-1,122
 800 203 800 203 839 251 c 0,123,124
 859 274 859 274 876.5 305.5 c 128,-1,125
 894 337 894 337 907 376 c 0,126,127
 936 455 936 455 936 530 c 0,128,129
 936 627 936 627 889 682 c 0,130,131
 844 735 844 735 774 735 c 0,132,133
 751 735 751 735 730 729.5 c 128,-1,134
 709 724 709 724 690 711 c 0,135,136
 646 687 646 687 611 636 c 128,-1,137
 576 585 576 585 545 500 c 1,138,-1
 545 501 l 1,139,140
 521 427 521 427 521 360 c 0,116,117
EndSplineSet
EndChar

StartChar: bracketleft
Encoding: 91 91 36
Width: 426
GlyphClass: 2
Flags: W
LayerCount: 2
Fore
SplineSet
89 1496 m 1,0,-1
 404 1496 l 1,1,-1
 404 1328 l 1,2,-1
 252 1328 l 1,3,-1
 252 -81 l 1,4,-1
 404 -81 l 1,5,-1
 404 -259 l 1,6,-1
 89 -259 l 1,7,-1
 89 1496 l 1,0,-1
EndSplineSet
EndChar

StartChar: backslash
Encoding: 92 92 37
Width: 865
GlyphClass: 2
Flags: W
LayerCount: 2
Fore
SplineSet
184 1239 m 1,0,-1
 838 -119 l 1,1,-1
 674 -119 l 1,2,-1
 16 1239 l 1,3,-1
 184 1239 l 1,0,-1
EndSplineSet
EndChar

StartChar: bracketright
Encoding: 93 93 38
Width: 428
GlyphClass: 2
Flags: W
LayerCount: 2
Fore
SplineSet
331 -259 m 1,0,-1
 16 -259 l 1,1,-1
 16 -81 l 1,2,-1
 169 -81 l 1,3,-1
 169 1328 l 1,4,-1
 16 1328 l 1,5,-1
 16 1496 l 1,6,-1
 331 1496 l 1,7,-1
 331 -259 l 1,0,-1
EndSplineSet
EndChar

StartChar: asciicircum
Encoding: 94 94 39
Width: 719
GlyphClass: 2
Flags: W
LayerCount: 2
Fore
SplineSet
180 450 m 1,0,-1
 43 450 l 1,1,-1
 306 1234 l 1,2,-1
 414 1234 l 1,3,-1
 674 450 l 1,4,-1
 540 450 l 1,5,-1
 358 1032 l 1,6,-1
 180 450 l 1,0,-1
EndSplineSet
EndChar

StartChar: underscore
Encoding: 95 95 40
Width: 1192
GlyphClass: 2
Flags: W
LayerCount: 2
Fore
SplineSet
108 -333 m 1,0,-1
 108 -226 l 1,1,-1
 1083 -226 l 1,2,-1
 1083 -333 l 1,3,-1
 108 -333 l 1,0,-1
EndSplineSet
EndChar

StartChar: braceleft
Encoding: 123 123 41
Width: 623
GlyphClass: 2
Flags: W
LayerCount: 2
Fore
SplineSet
124 705 m 1,0,1
 178 705 178 705 213.5 737.5 c 128,-1,2
 249 770 249 770 260 823 c 1,3,-1
 260 820 l 1,4,-1
 265 921 l 2,5,6
 267 948 267 948 269 977.5 c 128,-1,7
 271 1007 271 1007 273 1034 c 0,8,9
 273 1111 273 1111 274 1164.5 c 128,-1,10
 275 1218 275 1218 277 1247 c 0,11,12
 279 1277 279 1277 284.5 1305.5 c 128,-1,13
 290 1334 290 1334 299 1358 c 0,14,15
 318 1407 318 1407 345 1437.5 c 128,-1,16
 372 1468 372 1468 420 1485 c 0,17,18
 460 1500 460 1500 518 1500 c 2,19,-1
 578 1500 l 1,20,-1
 578 1319 l 1,21,-1
 533 1319 l 2,22,23
 473 1319 473 1319 451 1287 c 1,24,-1
 452 1288 l 1,25,26
 432 1259 432 1259 432 1151 c 2,27,-1
 432 960 l 1,28,-1
 429 892 l 2,29,30
 429 867 429 867 423 851 c 0,31,32
 417 804 417 804 404.5 764.5 c 128,-1,33
 392 725 392 725 376 698 c 0,34,35
 363 678 363 678 342 655.5 c 128,-1,36
 321 633 321 633 297 613 c 1,37,38
 363 567 363 567 394 494 c 0,39,40
 412 449 412 449 422 376 c 128,-1,41
 432 303 432 303 432 203 c 2,42,-1
 434 -5 l 2,43,44
 437 -58 437 -58 454 -78 c 1,45,-1
 482 -93 l 1,46,47
 501 -97 501 -97 533 -97 c 2,48,-1
 578 -97 l 1,49,-1
 578 -275 l 1,50,-1
 518 -275 l 2,51,52
 442 -275 442 -275 409 -261 c 0,53,54
 363 -237 363 -237 324 -189 c 1,55,56
 298 -148 298 -148 281 -64 c 0,57,58
 277 -29 277 -29 275 31.5 c 128,-1,59
 273 92 273 92 273 177 c 0,60,61
 273 258 273 258 270 313.5 c 128,-1,62
 267 369 267 369 260 399 c 0,63,64
 248 454 248 454 220 485 c 1,65,66
 200 499 200 499 176.5 507 c 128,-1,67
 153 515 153 515 124 515 c 1,68,-1
 124 705 l 1,0,1
EndSplineSet
EndChar

StartChar: bar
Encoding: 124 124 42
Width: 313
GlyphClass: 2
Flags: W
LayerCount: 2
Fore
SplineSet
70 -259 m 1,0,-1
 70 1586 l 1,1,-1
 242 1586 l 1,2,-1
 239 -259 l 1,3,-1
 70 -259 l 1,0,-1
EndSplineSet
EndChar

StartChar: braceright
Encoding: 125 125 43
Width: 547
GlyphClass: 2
Flags: W
LayerCount: 2
Fore
SplineSet
489 517 m 1,0,1
 458 517 458 517 435 510 c 128,-1,2
 412 503 412 503 395 489 c 0,3,4
 379 472 379 472 368 451 c 128,-1,5
 357 430 357 430 351 401 c 0,6,7
 339 341 339 341 339 179 c 0,8,9
 339 11 339 11 330 -59 c 0,10,11
 316 -146 316 -146 289 -187 c 0,12,13
 270 -210 270 -210 248.5 -228.5 c 128,-1,14
 227 -247 227 -247 203 -259 c 0,15,16
 170 -273 170 -273 94 -273 c 2,17,-1
 33 -273 l 1,18,-1
 33 -95 l 1,19,-1
 79 -95 l 2,20,21
 96 -95 96 -95 108 -93.5 c 128,-1,22
 120 -92 120 -92 131 -90 c 2,23,-1
 158 -76 l 1,24,25
 176 -55 176 -55 179 -2 c 0,26,27
 179 49 179 49 180 101 c 128,-1,28
 181 153 181 153 181 205 c 0,29,30
 181 306 181 306 190 378.5 c 128,-1,31
 199 451 199 451 218 496 c 0,32,33
 252 572 252 572 315 615 c 1,34,35
 290 635 290 635 269 657.5 c 128,-1,36
 248 680 248 680 235 700 c 0,37,38
 219 726 219 726 207.5 767 c 128,-1,39
 196 808 196 808 188 853 c 0,40,41
 185 861 185 861 184.5 870.5 c 128,-1,42
 184 880 184 880 184 894 c 2,43,-1
 181 962 l 1,44,-1
 181 1153 l 2,45,46
 181 1261 181 1261 161 1290 c 1,47,-1
 162 1289 l 1,48,49
 140 1321 140 1321 79 1321 c 2,50,-1
 33 1321 l 1,51,-1
 33 1502 l 1,52,-1
 94 1502 l 2,53,54
 153 1502 153 1502 191 1487 c 0,55,56
 237 1470 237 1470 265.5 1439 c 128,-1,57
 294 1408 294 1408 311 1360 c 0,58,59
 321 1336 321 1336 326.5 1307.5 c 128,-1,60
 332 1279 332 1279 334 1249 c 0,61,62
 336 1220 336 1220 337.5 1166 c 128,-1,63
 339 1112 339 1112 339 1037 c 1,64,-1
 348 923 l 1,65,-1
 352 825 l 1,66,67
 364 773 364 773 399 740 c 128,-1,68
 434 707 434 707 489 707 c 1,69,-1
 489 517 l 1,0,1
EndSplineSet
EndChar

StartChar: asciitilde
Encoding: 126 126 44
Width: 1161
GlyphClass: 2
Flags: W
LayerCount: 2
Fore
SplineSet
1045 747 m 1,0,-1
 1086 747 l 1,1,2
 1082 571 1082 571 1014 469.5 c 128,-1,3
 946 368 946 368 850 368 c 0,4,5
 807 368 807 368 757.5 389 c 128,-1,6
 708 410 708 410 503 535 c 0,7,8
 356 620 356 620 294 620 c 0,9,10
 229 620 229 620 183.5 562 c 128,-1,11
 138 504 138 504 118 371 c 1,12,-1
 75 371 l 1,13,14
 83 557 83 557 148.5 654.5 c 128,-1,15
 214 752 214 752 302 752 c 0,16,17
 342 752 342 752 387 732 c 0,18,19
 484 691 484 691 642.5 592.5 c 128,-1,20
 801 494 801 494 867 494 c 0,21,22
 936 494 936 494 985 559.5 c 128,-1,23
 1034 625 1034 625 1045 747 c 1,0,-1
EndSplineSet
EndChar

StartChar: cent
Encoding: 162 162 45
Width: 721
GlyphClass: 2
Flags: W
LayerCount: 2
Fore
SplineSet
598 156 m 1,0,1
 537 71 537 71 467 31 c 128,-1,2
 397 -9 397 -9 304 -17 c 1,3,-1
 228 -265 l 1,4,-1
 187 -265 l 1,5,-1
 262 -17 l 1,6,7
 177 -8 177 -8 128.5 47 c 128,-1,8
 80 102 80 102 80 188 c 0,9,10
 80 345 80 345 191.5 478.5 c 128,-1,11
 303 612 303 612 457 638 c 1,12,-1
 541 917 l 1,13,-1
 580 917 l 1,14,-1
 499 638 l 1,15,16
 580 638 580 638 616.5 607 c 128,-1,17
 653 576 653 576 653 523 c 0,18,19
 653 482 653 482 631.5 455.5 c 128,-1,20
 610 429 610 429 580 429 c 0,21,22
 557 429 557 429 544 442 c 128,-1,23
 531 455 531 455 531 476 c 0,24,25
 531 491 531 491 536 502 c 128,-1,26
 541 513 541 513 560.5 534.5 c 128,-1,27
 580 556 580 556 580 570 c 0,28,29
 580 578 580 578 575 585 c 0,30,31
 565 596 565 596 549.5 601 c 128,-1,32
 534 606 534 606 489 606 c 1,33,-1
 322 49 l 1,34,-1
 352 47 l 1,35,36
 470 47 470 47 580 173 c 1,37,-1
 598 156 l 1,0,1
284 57 m 1,38,-1
 445 598 l 1,39,40
 383 570 383 570 342 533 c 0,41,42
 274 467 274 467 237 380.5 c 128,-1,43
 200 294 200 294 200 205 c 0,44,45
 200 146 200 146 224 108 c 0,46,47
 243 81 243 81 284 57 c 1,38,-1
EndSplineSet
EndChar

StartChar: multiply
Encoding: 215 215 46
Width: 975
GlyphClass: 2
Flags: W
LayerCount: 2
Fore
SplineSet
267 230 m 1,0,-1
 515 479 l 1,1,-1
 267 728 l 1,2,-1
 308 768 l 1,3,-1
 556 520 l 1,4,-1
 805 768 l 1,5,-1
 844 728 l 1,6,-1
 595 480 l 1,7,-1
 845 230 l 1,8,-1
 805 190 l 1,9,-1
 555 439 l 1,10,-1
 307 190 l 1,11,-1
 267 230 l 1,0,-1
EndSplineSet
EndChar

StartChar: divide
Encoding: 247 247 47
Width: 672
GlyphClass: 2
Flags: W
LayerCount: 2
Fore
SplineSet
406 526 m 1,0,1
 406 470 406 470 346 470 c 0,2,3
 326 470 326 470 308 486 c 128,-1,4
 290 502 290 502 290 526 c 0,5,6
 290 582 290 582 348 582 c 0,7,8
 372 582 372 582 387 568 c 128,-1,9
 402 554 402 554 406 526 c 1,0,1
644 304 m 1,10,-1
 32 304 l 1,11,-1
 32 368 l 1,12,-1
 644 368 l 1,13,-1
 644 304 l 1,10,-1
406 146 m 1,14,15
 406 90 406 90 346 90 c 0,16,17
 326 90 326 90 308 106 c 128,-1,18
 290 122 290 122 290 146 c 0,19,20
 290 202 290 202 348 202 c 0,21,22
 372 202 372 202 387 188 c 128,-1,23
 402 174 402 174 406 146 c 1,14,15
EndSplineSet
EndChar

StartChar: tm_visarga
Encoding: 2947 2947 48
Width: 1088
GlyphClass: 2
Flags: W
LayerCount: 2
Fore
SplineSet
660 808 m 0,0,1
 670 782 670 782 670 756 c 0,2,3
 670 646 670 646 530 646 c 0,4,5
 368 646 368 646 368 762 c 0,6,7
 368 868 368 868 512 868 c 0,8,9
 632 868 632 868 660 808 c 0,0,1
1002 160 m 0,10,11
 1012 134 1012 134 1012 108 c 0,12,13
 1012 -2 1012 -2 872 -2 c 0,14,15
 710 -2 710 -2 710 114 c 0,16,17
 710 220 710 220 854 220 c 0,18,19
 974 220 974 220 1002 160 c 0,10,11
366 160 m 0,20,21
 376 134 376 134 376 108 c 0,22,23
 376 -2 376 -2 236 -2 c 0,24,25
 74 -2 74 -2 74 114 c 0,26,27
 74 220 74 220 218 220 c 0,28,29
 338 220 338 220 366 160 c 0,20,21
594 754 m 0,30,31
 594 802 594 802 516 804 c 0,32,33
 432 806 432 806 432 754 c 0,34,35
 432 704 432 704 510 698 c 1,36,37
 594 704 594 704 594 754 c 0,30,31
936 106 m 0,38,39
 936 154 936 154 858 156 c 0,40,41
 774 158 774 158 774 106 c 0,42,43
 774 56 774 56 852 50 c 1,44,45
 936 56 936 56 936 106 c 0,38,39
300 106 m 0,46,47
 300 154 300 154 222 156 c 0,48,49
 138 158 138 158 138 106 c 0,50,51
 138 56 138 56 216 50 c 1,52,53
 300 56 300 56 300 106 c 0,46,47
EndSplineSet
EndChar

StartChar: tm_a
Encoding: 2949 2949 49
Width: 1454
GlyphClass: 2
Flags: W
LayerCount: 2
Fore
SplineSet
1382 -52 m 1,0,-1
 1314 -52 l 1,1,-1
 1314 286 l 1,2,-1
 1166 286 l 1,3,4
 1144 180 1144 180 1082 106 c 0,5,6
 934 -74 934 -74 608 -74 c 0,7,8
 264 -74 264 -74 104 168 c 0,9,10
 68 222 68 222 68 262 c 0,11,12
 68 354 68 354 220 354 c 2,13,-1
 1102 354 l 1,14,15
 1104 374 1104 374 1104 394 c 0,16,17
 1104 532 1104 532 1000 632 c 0,18,19
 890 738 890 738 716 738 c 1,20,21
 766 724 766 724 795 675 c 128,-1,22
 824 626 824 626 822 570 c 0,23,24
 818 490 818 490 766 442 c 0,25,26
 708 388 708 388 610 388 c 0,27,28
 524 388 524 388 472 448 c 0,29,30
 424 502 424 502 424 572 c 0,31,32
 424 682 424 682 516 740 c 0,33,34
 594 792 594 792 716 792 c 0,35,36
 926 792 926 792 1053 671 c 128,-1,37
 1180 550 1180 550 1174 354 c 1,38,-1
 1314 354 l 1,39,-1
 1314 768 l 1,40,-1
 1382 768 l 1,41,-1
 1382 -52 l 1,0,-1
748 578 m 256,42,43
 748 632 748 632 711 670 c 128,-1,44
 674 708 674 708 620 708 c 256,45,46
 566 708 566 708 528 669 c 128,-1,47
 490 630 490 630 490 578 c 0,48,49
 490 524 490 524 528 486 c 128,-1,50
 566 448 566 448 620 448 c 256,51,52
 674 448 674 448 711 486 c 128,-1,53
 748 524 748 524 748 578 c 256,42,43
1098 286 m 1,54,-1
 196 286 l 2,55,56
 140 286 140 286 140 246 c 0,57,58
 140 200 140 200 206 134 c 0,59,60
 356 -18 356 -18 620 -18 c 0,61,62
 780 -18 780 -18 916 56 c 0,63,64
 1074 144 1074 144 1098 286 c 1,54,-1
EndSplineSet
EndChar

StartChar: tm_aa
Encoding: 2950 2950 50
Width: 1814
GlyphClass: 2
Flags: W
LayerCount: 2
Fore
SplineSet
1732 88 m 0,0,1
 1732 -100 1732 -100 1616 -226 c 0,2,3
 1492 -360 1492 -360 1286 -360 c 0,4,5
 1148 -360 1148 -360 1052 -288 c 0,6,7
 994 -246 994 -246 974 -204 c 128,-1,8
 954 -162 954 -162 954 -130 c 0,9,10
 954 -46 954 -46 1062 -46 c 2,11,-1
 1248 -46 l 1,12,-1
 1248 -114 l 1,13,-1
 1102 -114 l 2,14,15
 1030 -114 1030 -114 1030 -150 c 0,16,17
 1030 -166 1030 -166 1042 -182 c 0,18,19
 1116 -290 1116 -290 1286 -290 c 0,20,21
 1464 -290 1464 -290 1570 -166 c 0,22,23
 1664 -56 1664 -56 1662 98 c 0,24,25
 1660 230 1660 230 1604 300 c 0,26,27
 1558 356 1558 356 1490 356 c 0,28,29
 1394 356 1394 356 1382 284 c 1,30,-1
 1382 0 l 1,31,-1
 1314 0 l 1,32,-1
 1314 286 l 1,33,-1
 1166 286 l 1,34,35
 1144 180 1144 180 1082 106 c 0,36,37
 934 -74 934 -74 608 -74 c 0,38,39
 264 -74 264 -74 104 168 c 0,40,41
 68 222 68 222 68 262 c 0,42,43
 68 354 68 354 220 354 c 2,44,-1
 1102 354 l 1,45,46
 1104 374 1104 374 1104 394 c 0,47,48
 1104 532 1104 532 1000 632 c 0,49,50
 890 738 890 738 716 738 c 1,51,52
 766 724 766 724 795 675 c 128,-1,53
 824 626 824 626 822 570 c 0,54,55
 818 490 818 490 766 442 c 0,56,57
 708 388 708 388 610 388 c 0,58,59
 524 388 524 388 472 448 c 0,60,61
 424 502 424 502 424 572 c 0,62,63
 424 682 424 682 516 740 c 0,64,65
 594 792 594 792 716 792 c 0,66,67
 926 792 926 792 1053 671 c 128,-1,68
 1180 550 1180 550 1174 354 c 1,69,-1
 1314 354 l 1,70,-1
 1314 768 l 1,71,-1
 1382 768 l 1,72,-1
 1382 376 l 1,73,74
 1406 426 1406 426 1496 426 c 0,75,76
 1590 426 1590 426 1652 354 c 0,77,78
 1732 266 1732 266 1732 88 c 0,0,1
748 578 m 256,79,80
 748 632 748 632 711 670 c 128,-1,81
 674 708 674 708 620 708 c 256,82,83
 566 708 566 708 528 669 c 128,-1,84
 490 630 490 630 490 578 c 0,85,86
 490 524 490 524 528 486 c 128,-1,87
 566 448 566 448 620 448 c 256,88,89
 674 448 674 448 711 486 c 128,-1,90
 748 524 748 524 748 578 c 256,79,80
1098 286 m 1,91,-1
 196 286 l 2,92,93
 140 286 140 286 140 246 c 0,94,95
 140 200 140 200 206 134 c 0,96,97
 356 -18 356 -18 620 -18 c 0,98,99
 780 -18 780 -18 916 56 c 0,100,101
 1074 144 1074 144 1098 286 c 1,91,-1
EndSplineSet
EndChar

StartChar: tm_i
Encoding: 2951 2951 51
Width: 1372
GlyphClass: 2
Flags: W
LayerCount: 2
Fore
SplineSet
1300 34 m 0,0,1
 1300 -44 1300 -44 1232 -92 c 0,2,3
 1150 -150 1150 -150 996 -144 c 0,4,5
 804 -138 804 -138 684 -84 c 1,6,7
 648 -98 648 -98 608 -110 c 0,8,9
 510 -136 510 -136 406 -144 c 0,10,11
 166 -162 166 -162 88 -36 c 0,12,13
 68 -4 68 -4 68 38 c 0,14,15
 68 178 68 178 252 262 c 1,16,17
 134 428 134 428 134 596 c 0,18,19
 134 640 134 640 142 680 c 0,20,21
 176 858 176 858 282 968 c 0,22,23
 422 1116 422 1116 664 1116 c 0,24,25
 1228 1116 1228 1116 1228 580 c 0,26,27
 1228 516 1228 516 1218 446 c 1,28,-1
 1160 446 l 1,29,30
 1164 492 1164 492 1164 536 c 0,31,32
 1164 1052 1164 1052 666 1052 c 0,33,34
 462 1052 462 1052 333 923 c 128,-1,35
 204 794 204 794 204 592 c 0,36,37
 204 440 204 440 316 290 c 1,38,39
 482 354 482 354 678 354 c 0,40,41
 814 354 814 354 926 326 c 1,42,43
 936 356 936 356 936 402 c 0,44,45
 936 516 936 516 878 598 c 0,46,47
 800 704 800 704 640 708 c 1,48,49
 738 684 738 684 738 564 c 0,50,51
 738 494 738 494 694 448 c 0,52,53
 644 398 644 398 558 398 c 0,54,55
 480 398 480 398 430 452 c 0,56,57
 388 500 388 500 388 564 c 0,58,59
 388 662 388 662 470 716 c 0,60,61
 542 766 542 766 648 766 c 0,62,63
 814 766 814 766 910 664 c 128,-1,64
 1006 562 1006 562 1006 404 c 0,65,66
 1006 358 1006 358 998 312 c 1,67,68
 1300 218 1300 218 1300 34 c 0,0,1
670 564 m 256,69,70
 670 608 670 608 638 640 c 128,-1,71
 606 672 606 672 560 672 c 256,72,73
 514 672 514 672 482 640 c 128,-1,74
 450 608 450 608 450 564 c 256,75,76
 450 520 450 520 483 488 c 128,-1,77
 516 456 516 456 560 456 c 256,78,79
 604 456 604 456 637 488 c 128,-1,80
 670 520 670 520 670 564 c 256,69,70
1216 2 m 0,81,82
 1224 24 1224 24 1224 44 c 0,83,84
 1224 166 1224 166 984 238 c 1,85,86
 926 48 926 48 760 -42 c 1,87,88
 846 -78 846 -78 998 -78 c 0,89,90
 1186 -78 1186 -78 1216 2 c 0,81,82
910 262 m 1,91,92
 802 288 802 288 664 288 c 0,93,94
 488 288 488 288 358 236 c 1,95,96
 466 106 466 106 694 -10 c 1,97,98
 870 102 870 102 910 262 c 1,91,92
622 -48 m 1,99,100
 544 -14 544 -14 434 74 c 0,101,102
 330 154 330 154 288 208 c 1,103,104
 136 136 136 136 136 36 c 0,105,106
 136 2 136 2 160 -26 c 1,107,108
 232 -90 232 -90 372 -90 c 0,109,110
 490 -90 490 -90 622 -48 c 1,99,100
EndSplineSet
EndChar

StartChar: tm_ii
Encoding: 2952 2952 52
Width: 758
GlyphClass: 2
Flags: W
LayerCount: 2
Fore
SplineSet
598 380 m 0,0,1
 598 330 598 330 546 330 c 0,2,3
 498 330 498 330 498 380 c 0,4,5
 498 428 498 428 546 428 c 0,6,7
 598 428 598 428 598 380 c 0,0,1
678 702 m 1,8,-1
 426 702 l 1,9,-1
 426 0 l 1,10,-1
 360 0 l 1,11,-1
 360 702 l 1,12,-1
 142 702 l 1,13,-1
 140 0 l 1,14,-1
 74 0 l 1,15,-1
 74 768 l 1,16,-1
 678 768 l 1,17,-1
 678 702 l 1,8,-1
304 378 m 0,18,19
 304 328 304 328 256 328 c 0,20,21
 206 328 206 328 206 378 c 0,22,23
 206 426 206 426 256 426 c 0,24,25
 304 426 304 426 304 378 c 0,18,19
EndSplineSet
EndChar

StartChar: tm_u
Encoding: 2953 2953 53
Width: 1784
GlyphClass: 2
Flags: W
LayerCount: 2
Fore
SplineSet
1712 0 m 1,0,-1
 108 0 l 1,1,-1
 108 90 l 2,2,3
 108 158 108 158 142 178 c 0,4,5
 188 204 188 204 380 222 c 0,6,7
 552 238 552 238 612 270 c 0,8,9
 736 330 736 330 734 498 c 0,10,11
 730 754 730 754 402 754 c 0,12,13
 202 754 202 754 152 604 c 1,14,15
 170 622 170 622 188 634 c 0,16,17
 234 666 234 666 280 666 c 0,18,19
 364 668 364 668 419 618 c 128,-1,20
 474 568 474 568 474 480 c 0,21,22
 474 292 474 292 290 276 c 0,23,24
 208 268 208 268 150 314 c 0,25,26
 70 374 70 374 70 516 c 0,27,28
 70 654 70 654 170 740 c 0,29,30
 262 818 262 818 404 820 c 0,31,32
 540 822 540 822 640 770 c 0,33,34
 794 690 794 690 802 498 c 0,35,36
 810 304 810 304 672 224 c 0,37,38
 588 176 588 176 398 160 c 0,39,40
 262 148 262 148 221 135 c 128,-1,41
 180 122 180 122 180 90 c 2,42,-1
 180 64 l 1,43,-1
 1712 64 l 1,44,-1
 1712 0 l 1,0,-1
402 472 m 0,45,46
 402 524 402 524 365 561 c 128,-1,47
 328 598 328 598 276 598 c 0,48,49
 226 598 226 598 189 561 c 128,-1,50
 152 524 152 524 152 472 c 256,51,52
 152 420 152 420 189 383 c 128,-1,53
 226 346 226 346 276 346 c 0,54,55
 328 346 328 346 365 384 c 128,-1,56
 402 422 402 422 402 472 c 0,45,46
EndSplineSet
EndChar

StartChar: tm_uu
Encoding: 2954 2954 54
Width: 1966
GlyphClass: 2
Flags: W
LayerCount: 2
Fore
SplineSet
1836 702 m 1,0,-1
 1726 702 l 1,1,-1
 1726 160 l 1,2,-1
 1650 160 l 1,3,-1
 1650 702 l 1,4,-1
 1456 702 l 1,5,-1
 1456 160 l 1,6,-1
 1384 160 l 1,7,-1
 1384 508 l 2,8,9
 1384 704 1384 704 1184 712 c 0,10,11
 1062 716 1062 716 1000 632 c 0,12,13
 950 566 950 566 946 460 c 1,14,15
 988 538 988 538 1078 538 c 0,16,17
 1152 538 1152 538 1197 487 c 128,-1,18
 1242 436 1242 436 1242 356 c 0,19,20
 1242 164 1242 164 1068 154 c 0,21,22
 1016 152 1016 152 964 204 c 0,23,24
 890 278 890 278 890 430 c 0,25,26
 890 760 890 760 1190 772 c 0,27,28
 1250 774 1250 774 1312 752 c 0,29,30
 1388 724 1388 724 1404 674 c 1,31,-1
 1404 768 l 1,32,-1
 1836 768 l 1,33,-1
 1836 702 l 1,0,-1
1850 0 m 1,34,-1
 108 0 l 1,35,-1
 108 90 l 2,36,37
 108 158 108 158 142 178 c 0,38,39
 188 204 188 204 380 222 c 0,40,41
 552 238 552 238 612 270 c 0,42,43
 736 330 736 330 734 498 c 0,44,45
 730 754 730 754 402 754 c 0,46,47
 202 754 202 754 152 604 c 1,48,49
 170 622 170 622 188 634 c 0,50,51
 234 666 234 666 280 666 c 0,52,53
 364 668 364 668 419 618 c 128,-1,54
 474 568 474 568 474 480 c 0,55,56
 474 292 474 292 290 276 c 0,57,58
 208 268 208 268 150 314 c 0,59,60
 70 374 70 374 70 516 c 0,61,62
 70 654 70 654 170 740 c 0,63,64
 262 818 262 818 404 820 c 0,65,66
 540 822 540 822 640 770 c 0,67,68
 794 690 794 690 802 498 c 0,69,70
 810 304 810 304 672 224 c 0,71,72
 588 176 588 176 398 160 c 0,73,74
 262 148 262 148 221 135 c 128,-1,75
 180 122 180 122 180 90 c 2,76,-1
 180 64 l 1,77,-1
 1850 64 l 1,78,-1
 1850 0 l 1,34,-1
1170 354 m 0,79,80
 1170 402 1170 402 1144 435 c 128,-1,81
 1118 468 1118 468 1072 468 c 256,82,83
 1026 468 1026 468 997 431 c 128,-1,84
 968 394 968 394 968 348 c 0,85,86
 968 298 968 298 998 260 c 128,-1,87
 1028 222 1028 222 1066 222 c 0,88,89
 1170 222 1170 222 1170 354 c 0,79,80
402 472 m 0,90,91
 402 524 402 524 365 561 c 128,-1,92
 328 598 328 598 276 598 c 0,93,94
 226 598 226 598 189 561 c 128,-1,95
 152 524 152 524 152 472 c 256,96,97
 152 420 152 420 189 383 c 128,-1,98
 226 346 226 346 276 346 c 0,99,100
 328 346 328 346 365 384 c 128,-1,101
 402 422 402 422 402 472 c 0,90,91
EndSplineSet
EndChar

StartChar: tm_e
Encoding: 2958 2958 55
Width: 988
GlyphClass: 2
Flags: W
LayerCount: 2
Fore
SplineSet
938 702 m 1,0,-1
 804 702 l 1,1,-1
 804 -2 l 1,2,-1
 740 0 l 1,3,-1
 740 702 l 1,4,-1
 506 702 l 1,5,6
 310 706 310 706 204 600 c 0,7,8
 114 508 114 508 114 370 c 1,9,10
 178 480 178 480 304 480 c 0,11,12
 406 480 406 480 469 413 c 128,-1,13
 532 346 532 346 532 250 c 0,14,15
 532 160 532 160 482 92 c 0,16,17
 418 6 418 6 290 0 c 0,18,19
 214 -4 214 -4 144 60 c 0,20,21
 42 154 42 154 42 350 c 0,22,23
 42 552 42 552 176 664 c 0,24,25
 302 768 302 768 508 768 c 2,26,-1
 938 768 l 1,27,-1
 938 702 l 1,0,-1
452 248 m 0,28,29
 452 316 452 316 410 361 c 128,-1,30
 368 406 368 406 302 406 c 0,31,32
 228 406 228 406 182 350 c 0,33,34
 142 302 142 302 142 232 c 0,35,36
 142 164 142 164 194 116 c 0,37,38
 240 72 240 72 288 72 c 0,39,40
 354 72 354 72 403 118 c 128,-1,41
 452 164 452 164 452 248 c 0,28,29
EndSplineSet
EndChar

StartChar: tm_ee
Encoding: 2959 2959 56
Width: 988
GlyphClass: 2
Flags: W
LayerCount: 2
Fore
SplineSet
934 702 m 1,0,-1
 800 702 l 1,1,-1
 800 -2 l 1,2,-1
 512 -224 l 1,3,-1
 412 -224 l 1,4,-1
 734 32 l 1,5,-1
 734 702 l 1,6,-1
 500 702 l 1,7,8
 304 706 304 706 200 600 c 0,9,10
 110 508 110 508 108 370 c 1,11,12
 172 480 172 480 298 480 c 0,13,14
 400 480 400 480 466 410 c 0,15,16
 526 346 526 346 528 250 c 0,17,18
 530 160 530 160 478 92 c 0,19,20
 414 6 414 6 284 0 c 0,21,22
 208 -4 208 -4 138 60 c 0,23,24
 36 154 36 154 36 350 c 0,25,26
 36 552 36 552 170 664 c 0,27,28
 298 768 298 768 504 768 c 2,29,-1
 934 768 l 1,30,-1
 934 702 l 1,0,-1
448 248 m 0,31,32
 448 316 448 316 405 361 c 128,-1,33
 362 406 362 406 296 406 c 0,34,35
 222 406 222 406 180 353 c 128,-1,36
 138 300 138 300 138 232 c 256,37,38
 138 164 138 164 190 116 c 0,39,40
 234 72 234 72 282 72 c 0,41,42
 348 72 348 72 398 118 c 128,-1,43
 448 164 448 164 448 248 c 0,31,32
EndSplineSet
EndChar

StartChar: tm_ai
Encoding: 2960 2960 57
Width: 1390
GlyphClass: 2
Flags: W
LayerCount: 2
Fore
SplineSet
1302 528 m 0,0,1
 1302 264 1302 264 990 206 c 1,2,3
 738 178 738 178 406 136 c 1,4,5
 270 114 270 114 228 90 c 0,6,7
 154 50 154 50 154 -48 c 0,8,9
 154 -208 154 -208 348 -208 c 0,10,11
 482 -208 482 -208 566 -106 c 0,12,13
 646 -10 646 -10 652 132 c 1,14,-1
 760 132 l 1,15,16
 758 14 758 14 796 -74 c 0,17,18
 860 -216 860 -216 1016 -216 c 0,19,20
 1108 -216 1108 -216 1164 -174 c 0,21,22
 1230 -126 1230 -126 1226 -34 c 0,23,24
 1222 92 1222 92 1064 84 c 1,25,-1
 1064 154 l 1,26,27
 1082 156 1082 156 1100 156 c 0,28,29
 1200 156 1200 156 1253 95 c 128,-1,30
 1306 34 1306 34 1300 -48 c 0,31,32
 1286 -276 1286 -276 988 -276 c 0,33,34
 888 -276 888 -276 808 -208 c 0,35,36
 718 -130 718 -130 696 0 c 1,37,38
 672 -132 672 -132 576 -205 c 128,-1,39
 480 -278 480 -278 348 -278 c 0,40,41
 222 -278 222 -278 150 -218 c 128,-1,42
 78 -158 78 -158 78 -46 c 0,43,44
 78 68 78 68 148 124 c 0,45,46
 212 174 212 174 358 194 c 0,47,48
 628 224 628 224 974 268 c 1,49,50
 1220 308 1220 308 1220 524 c 0,51,52
 1220 694 1220 694 1012 694 c 0,53,54
 768 694 768 694 768 424 c 2,55,-1
 768 340 l 1,56,-1
 634 340 l 1,57,-1
 634 420 l 2,58,59
 634 698 634 698 396 698 c 0,60,61
 202 698 202 698 152 558 c 1,62,63
 160 574 160 574 176 588 c 0,64,65
 214 616 214 616 280 618 c 0,66,67
 362 620 362 620 414 571 c 128,-1,68
 466 522 466 522 466 436 c 0,69,70
 466 250 466 250 290 234 c 0,71,72
 206 226 206 226 150 270 c 0,73,74
 74 330 74 330 74 468 c 256,75,76
 74 606 74 606 170 690 c 0,77,78
 260 768 260 768 398 768 c 0,79,80
 668 768 668 768 704 506 c 1,81,82
 724 638 724 638 818 706 c 0,83,84
 898 764 898 764 1012 764 c 0,85,86
 1302 764 1302 764 1302 528 c 0,0,1
384 434 m 0,87,88
 382 550 382 550 274 550 c 0,89,90
 218 550 218 550 188 513 c 128,-1,91
 158 476 158 476 158 432 c 0,92,93
 158 372 158 372 194 334 c 0,94,95
 224 304 224 304 256 302 c 0,96,97
 312 298 312 298 348 331 c 128,-1,98
 384 364 384 364 384 434 c 0,87,88
EndSplineSet
EndChar

StartChar: tm_o
Encoding: 2962 2962 58
Width: 1244
GlyphClass: 2
Flags: W
LayerCount: 2
Fore
SplineSet
1136 684 m 0,0,1
 1136 546 1136 546 1056 466 c 0,2,3
 984 396 984 396 886 396 c 0,4,5
 800 396 800 396 748 452 c 1,6,7
 746 406 746 406 772 372 c 0,8,9
 804 326 804 326 866 332 c 1,10,11
 894 360 894 360 980 360 c 0,12,13
 1098 360 1098 360 1098 308 c 0,14,15
 1098 250 1098 250 928 262 c 1,16,17
 898 260 898 260 879 218 c 128,-1,18
 860 176 860 176 860 124 c 0,19,20
 860 108 860 108 862 94 c 0,21,22
 872 24 872 24 812 -44 c 0,23,24
 738 -126 738 -126 594 -126 c 0,25,26
 456 -126 456 -126 388 -62 c 0,27,28
 332 -8 332 -8 334 76 c 0,29,30
 336 154 336 154 386 200 c 128,-1,31
 436 246 436 246 512 250 c 1,32,-1
 512 186 l 1,33,34
 462 182 462 182 433 148 c 128,-1,35
 404 114 404 114 404 70 c 0,36,37
 404 18 404 18 444 -18 c 0,38,39
 492 -58 492 -58 580 -58 c 0,40,41
 700 -58 700 -58 756 6 c 0,42,43
 796 52 796 52 788 106 c 0,44,45
 786 120 786 120 786 136 c 0,46,47
 786 226 786 226 828 268 c 1,48,49
 754 272 754 272 712 332 c 0,50,51
 674 386 674 386 674 466 c 0,52,53
 674 580 674 580 742 660 c 1,54,-1
 806 628 l 1,55,56
 774 594 774 594 774 560 c 0,57,58
 774 522 774 522 810 496 c 128,-1,59
 846 470 846 470 896 470 c 0,60,61
 962 470 962 470 1006 518 c 0,62,63
 1058 574 1058 574 1058 680 c 0,64,65
 1058 980 1058 980 566 980 c 0,66,67
 210 980 210 980 136 724 c 0,68,69
 132 710 132 710 132 670 c 1,70,71
 192 774 192 774 330 774 c 0,72,73
 440 774 440 774 506 712 c 0,74,75
 566 652 566 652 566 558 c 0,76,77
 566 336 566 336 340 324 c 0,78,79
 228 318 228 318 150 390 c 0,80,81
 48 482 48 482 60 674 c 0,82,83
 70 836 70 836 192 936 c 0,84,85
 338 1058 338 1058 620 1052 c 0,86,87
 854 1046 854 1046 992 954 c 0,88,89
 1136 856 1136 856 1136 684 c 0,0,1
480 556 m 0,90,91
 480 610 480 610 446 650 c 0,92,93
 404 698 404 698 330 698 c 0,94,95
 258 698 258 698 214 650 c 0,96,97
 180 610 180 610 174 558 c 1,98,99
 172 482 172 482 226 438 c 0,100,101
 268 400 268 400 314 400 c 0,102,103
 480 400 480 400 480 556 c 0,90,91
EndSplineSet
EndChar

StartChar: tm_oo
Encoding: 2963 2963 59
Width: 1244
GlyphClass: 2
Flags: W
LayerCount: 2
Fore
SplineSet
1136 694 m 0,0,1
 1136 546 1136 546 1060 464 c 0,2,3
 996 396 996 396 900 396 c 0,4,5
 806 396 806 396 748 458 c 1,6,7
 744 410 744 410 772 372 c 0,8,9
 804 326 804 326 868 330 c 1,10,11
 896 358 896 358 980 358 c 0,12,13
 1100 358 1100 358 1100 306 c 0,14,15
 1100 268 1100 268 1014 260 c 0,16,17
 978 256 978 256 926 260 c 1,18,19
 864 244 864 244 864 130 c 0,20,21
 864 112 864 112 866 96 c 0,22,23
 874 30 874 30 818 -40 c 0,24,25
 744 -128 744 -128 606 -128 c 0,26,27
 336 -128 336 -128 336 84 c 0,28,29
 336 160 336 160 387 211 c 128,-1,30
 438 262 438 262 518 262 c 0,31,32
 612 262 612 262 660 213 c 128,-1,33
 708 164 708 164 708 92 c 0,34,35
 708 38 708 38 678 -6 c 0,36,37
 644 -56 644 -56 582 -62 c 1,38,39
 702 -60 702 -60 758 4 c 0,40,41
 798 50 798 50 788 92 c 0,42,43
 784 110 784 110 784 132 c 0,44,45
 784 228 784 228 830 266 c 1,46,47
 756 270 756 270 716 326 c 128,-1,48
 676 382 676 382 676 462 c 0,49,50
 676 576 676 576 744 660 c 1,51,-1
 808 626 l 1,52,53
 776 592 776 592 776 558 c 0,54,55
 776 520 776 520 811 494 c 128,-1,56
 846 468 846 468 894 468 c 0,57,58
 962 468 962 468 1006 518 c 0,59,60
 1058 576 1058 576 1058 686 c 0,61,62
 1058 828 1058 828 924 906 c 0,63,64
 800 976 800 976 588 976 c 0,65,66
 216 976 216 976 142 726 c 0,67,68
 132 690 132 690 136 668 c 1,69,70
 198 772 198 772 330 772 c 0,71,72
 438 772 438 772 506 704 c 0,73,74
 568 640 568 640 568 552 c 0,75,76
 568 466 568 466 518 404 c 0,77,78
 456 326 456 326 334 322 c 0,79,80
 224 318 224 318 146 390 c 0,81,82
 44 484 44 484 60 678 c 0,83,84
 72 828 72 828 184 928 c 0,85,86
 326 1052 326 1052 592 1052 c 0,87,88
 824 1052 824 1052 976 960 c 0,89,90
 1136 862 1136 862 1136 694 c 0,0,1
478 546 m 0,91,92
 478 610 478 610 437 655 c 128,-1,93
 396 700 396 700 330 700 c 256,94,95
 264 700 264 700 219 655 c 128,-1,96
 174 610 174 610 176 546 c 256,97,98
 178 482 178 482 223 438 c 128,-1,99
 268 394 268 394 330 396 c 256,100,101
 392 398 392 398 435 441 c 128,-1,102
 478 484 478 484 478 546 c 0,91,92
640 88 m 256,103,104
 640 136 640 136 605 170 c 128,-1,105
 570 204 570 204 522 204 c 0,106,107
 476 204 476 204 442 170 c 128,-1,108
 408 136 408 136 408 88 c 256,109,110
 408 40 408 40 442 7 c 128,-1,111
 476 -26 476 -26 522 -26 c 0,112,113
 570 -26 570 -26 605 7 c 128,-1,114
 640 40 640 40 640 88 c 256,103,104
EndSplineSet
EndChar

StartChar: tm_au
Encoding: 2964 2964 60
Width: 2490
GlyphClass: 2
Flags: W
LayerCount: 2
Fore
SplineSet
2420 700 m 1,0,-1
 2290 700 l 1,1,-1
 2290 0 l 1,2,-1
 2224 0 l 1,3,-1
 2224 700 l 1,4,-1
 1974 700 l 1,5,-1
 1974 0 l 1,6,-1
 1908 0 l 1,7,-1
 1908 438 l 2,8,9
 1908 560 1908 560 1812 636 c 0,10,11
 1724 704 1724 704 1598 704 c 0,12,13
 1292 704 1292 704 1288 380 c 1,14,15
 1342 480 1342 480 1474 480 c 0,16,17
 1576 480 1576 480 1642 410 c 0,18,19
 1702 344 1702 344 1704 246 c 0,20,21
 1706 156 1706 156 1654 84 c 0,22,23
 1588 -6 1588 -6 1462 -10 c 0,24,25
 1386 -12 1386 -12 1316 54 c 0,26,27
 1212 148 1212 148 1212 344 c 0,28,29
 1212 550 1212 550 1317 662 c 128,-1,30
 1422 774 1422 774 1600 774 c 0,31,32
 1704 774 1704 774 1794 730 c 0,33,34
 1876 692 1876 692 1908 638 c 1,35,-1
 1908 768 l 1,36,-1
 2420 768 l 1,37,-1
 2420 700 l 1,0,-1
1136 684 m 0,38,39
 1136 546 1136 546 1056 466 c 0,40,41
 984 396 984 396 886 396 c 0,42,43
 800 396 800 396 748 452 c 1,44,45
 746 406 746 406 772 372 c 0,46,47
 804 326 804 326 866 332 c 1,48,49
 894 360 894 360 980 360 c 0,50,51
 1098 360 1098 360 1098 308 c 0,52,53
 1098 250 1098 250 928 262 c 1,54,55
 898 260 898 260 879 218 c 128,-1,56
 860 176 860 176 860 124 c 0,57,58
 860 108 860 108 862 94 c 0,59,60
 872 24 872 24 812 -44 c 0,61,62
 738 -126 738 -126 594 -126 c 0,63,64
 456 -126 456 -126 388 -62 c 0,65,66
 332 -8 332 -8 334 76 c 0,67,68
 336 154 336 154 386 200 c 128,-1,69
 436 246 436 246 512 250 c 1,70,-1
 512 186 l 1,71,72
 462 182 462 182 433 148 c 128,-1,73
 404 114 404 114 404 70 c 0,74,75
 404 18 404 18 444 -18 c 0,76,77
 492 -58 492 -58 580 -58 c 0,78,79
 700 -58 700 -58 756 6 c 0,80,81
 796 52 796 52 788 106 c 0,82,83
 786 120 786 120 786 136 c 0,84,85
 786 226 786 226 828 268 c 1,86,87
 754 272 754 272 712 332 c 0,88,89
 674 386 674 386 674 466 c 0,90,91
 674 580 674 580 742 660 c 1,92,-1
 806 628 l 1,93,94
 774 594 774 594 774 560 c 0,95,96
 774 522 774 522 810 496 c 128,-1,97
 846 470 846 470 896 470 c 0,98,99
 962 470 962 470 1006 518 c 0,100,101
 1058 574 1058 574 1058 680 c 0,102,103
 1058 980 1058 980 566 980 c 0,104,105
 210 980 210 980 136 724 c 0,106,107
 132 710 132 710 132 670 c 1,108,109
 192 774 192 774 330 774 c 0,110,111
 440 774 440 774 506 712 c 0,112,113
 566 652 566 652 566 558 c 0,114,115
 566 336 566 336 340 324 c 0,116,117
 228 318 228 318 150 390 c 0,118,119
 48 482 48 482 60 674 c 0,120,121
 70 836 70 836 192 936 c 0,122,123
 338 1058 338 1058 620 1052 c 0,124,125
 854 1046 854 1046 992 954 c 0,126,127
 1136 856 1136 856 1136 684 c 0,38,39
1622 242 m 0,128,129
 1624 306 1624 306 1582 354 c 128,-1,130
 1540 402 1540 402 1472 402 c 0,131,132
 1392 402 1392 402 1348 346 c 0,133,134
 1310 298 1310 298 1312 232 c 256,135,136
 1314 166 1314 166 1358 118 c 128,-1,137
 1402 70 1402 70 1452 70 c 0,138,139
 1524 70 1524 70 1572 115 c 128,-1,140
 1620 160 1620 160 1622 242 c 0,128,129
480 556 m 0,141,142
 480 610 480 610 446 650 c 0,143,144
 404 698 404 698 330 698 c 0,145,146
 258 698 258 698 214 650 c 0,147,148
 180 610 180 610 174 558 c 1,149,150
 172 482 172 482 226 438 c 0,151,152
 268 400 268 400 314 400 c 0,153,154
 480 400 480 400 480 556 c 0,141,142
EndSplineSet
EndChar

StartChar: tm_ka
Encoding: 2965 2965 61
Width: 1104
GlyphClass: 2
Flags: W
LayerCount: 2
Fore
SplineSet
1044 282 m 0,0,1
 1044 16 1044 16 768 0 c 0,2,3
 708 -6 708 -6 642 18 c 0,4,5
 564 42 564 42 534 88 c 1,6,7
 456 -4 456 -4 342 -4 c 0,8,9
 198 -4 198 -4 122 74 c 0,10,11
 52 144 52 144 52 262 c 0,12,13
 52 372 52 372 114 444 c 128,-1,14
 176 516 176 516 270 516 c 1,15,-1
 270 768 l 1,16,-1
 872 768 l 1,17,-1
 872 702 l 1,18,-1
 624 702 l 1,19,-1
 624 516 l 1,20,-1
 782 516 l 2,21,22
 912 516 912 516 984 438 c 0,23,24
 1044 372 1044 372 1044 282 c 0,0,1
558 516 m 1,25,-1
 558 702 l 1,26,-1
 336 702 l 1,27,-1
 336 516 l 1,28,-1
 558 516 l 1,25,-1
976 272 m 0,29,30
 976 368 976 368 902 414 c 0,31,32
 848 448 848 448 768 448 c 2,33,-1
 626 448 l 1,34,-1
 626 368 l 2,35,36
 626 228 626 228 576 140 c 1,37,38
 614 60 614 60 746 60 c 0,39,40
 836 60 836 60 900 108 c 0,41,42
 976 166 976 166 976 272 c 0,29,30
558 368 m 2,43,-1
 558 448 l 1,44,-1
 302 448 l 2,45,46
 134 448 134 448 118 266 c 1,47,48
 128 64 128 64 324 64 c 0,49,50
 454 64 454 64 514 176 c 0,51,52
 558 256 558 256 558 368 c 2,43,-1
EndSplineSet
EndChar

StartChar: tm_nga
Encoding: 2969 2969 62
Width: 1180
GlyphClass: 2
Flags: W
LayerCount: 2
Fore
SplineSet
1112 0 m 1,0,-1
 600 0 l 1,1,-1
 600 62 l 1,2,-1
 740 62 l 1,3,4
 802 140 802 140 802 226 c 0,5,6
 802 320 802 320 738 370 c 0,7,8
 688 410 688 410 626 410 c 0,9,10
 488 410 488 410 442 302 c 1,11,-1
 442 -2 l 1,12,-1
 378 -2 l 1,13,-1
 378 700 l 1,14,-1
 150 700 l 1,15,-1
 150 -2 l 1,16,-1
 86 -2 l 1,17,-1
 86 768 l 1,18,-1
 758 768 l 1,19,-1
 758 700 l 1,20,-1
 444 700 l 1,21,-1
 444 406 l 1,22,23
 500 470 500 470 640 470 c 0,24,25
 726 470 726 470 790 410 c 0,26,27
 864 340 864 340 864 228 c 0,28,29
 864 124 864 124 814 62 c 1,30,-1
 1048 62 l 1,31,-1
 1048 768 l 1,32,-1
 1112 768 l 1,33,-1
 1112 0 l 1,0,-1
EndSplineSet
EndChar

StartChar: tm_ca
Encoding: 2970 2970 63
Width: 978
GlyphClass: 2
Flags: W
LayerCount: 2
Fore
SplineSet
908 704 m 1,0,-1
 654 704 l 1,1,-1
 654 516 l 1,2,-1
 898 516 l 1,3,-1
 898 448 l 1,4,-1
 654 448 l 1,5,-1
 654 380 l 2,6,7
 654 0 654 0 340 0 c 0,8,9
 208 0 208 0 140 88 c 0,10,11
 84 160 84 160 84 264 c 256,12,13
 84 368 84 368 143 439 c 128,-1,14
 202 510 202 510 302 516 c 1,15,-1
 302 768 l 1,16,-1
 908 768 l 1,17,-1
 908 704 l 1,0,-1
592 516 m 1,18,-1
 592 702 l 1,19,-1
 368 702 l 1,20,-1
 368 516 l 1,21,-1
 592 516 l 1,18,-1
592 396 m 2,22,-1
 592 448 l 1,23,-1
 318 448 l 2,24,25
 254 448 254 448 206 402 c 0,26,27
 150 348 150 348 150 266 c 0,28,29
 150 172 150 172 203 116 c 128,-1,30
 256 60 256 60 350 60 c 0,31,32
 592 60 592 60 592 396 c 2,22,-1
EndSplineSet
EndChar

StartChar: tm_ja
Encoding: 2972 2972 64
Width: 1368
GlyphClass: 2
Flags: W
LayerCount: 2
Fore
SplineSet
1302 544 m 0,0,1
 1306 396 1306 396 1226 316 c 0,2,3
 1138 226 1138 226 936 202 c 0,4,5
 710 176 710 176 410 140 c 0,6,7
 274 122 274 122 222 88 c 0,8,9
 154 46 154 46 154 -48 c 0,10,11
 154 -206 154 -206 348 -206 c 0,12,13
 446 -206 446 -206 514 -156 c 0,14,15
 548 -130 548 -130 668 0 c 0,16,17
 762 102 762 102 858 138 c 0,18,19
 936 168 936 168 1056 168 c 0,20,21
 1300 168 1300 168 1300 -48 c 0,22,23
 1300 -168 1300 -168 1214 -228 c 0,24,25
 1144 -276 1144 -276 1030 -276 c 0,26,27
 822 -276 822 -276 760 -190 c 1,28,-1
 760 -104 l 1,29,30
 806 -172 806 -172 880 -194 c 0,31,32
 930 -210 930 -210 1028 -210 c 0,33,34
 1118 -210 1118 -210 1169 -166 c 128,-1,35
 1220 -122 1220 -122 1220 -54 c 0,36,37
 1220 102 1220 102 1054 102 c 0,38,39
 952 102 952 102 882 74 c 0,40,41
 786 36 786 36 696 -70 c 0,42,43
 584 -202 584 -202 520 -239 c 128,-1,44
 456 -276 456 -276 342 -276 c 0,45,46
 208 -276 208 -276 136 -202 c 0,47,48
 78 -142 78 -142 78 -52 c 0,49,50
 78 84 78 84 168 142 c 0,51,52
 236 186 236 186 410 206 c 2,53,-1
 936 264 l 1,54,55
 1114 290 1114 290 1176 368 c 0,56,57
 1220 422 1220 422 1220 536 c 0,58,59
 1220 696 1220 696 1012 696 c 0,60,61
 776 696 776 696 768 436 c 1,62,63
 768 436 768 436 768 344 c 1,64,-1
 634 344 l 1,65,66
 634 406 634 406 634 452 c 0,67,68
 632 598 632 598 542 662 c 0,69,70
 482 702 482 702 398 702 c 0,71,72
 196 700 196 700 154 560 c 1,73,74
 172 578 172 578 190 590 c 0,75,76
 236 622 236 622 280 622 c 0,77,78
 362 624 362 624 415 574 c 128,-1,79
 468 524 468 524 468 438 c 0,80,81
 468 364 468 364 432 312 c 0,82,83
 386 244 386 244 288 236 c 0,84,85
 206 230 206 230 150 274 c 0,86,87
 74 334 74 334 74 474 c 0,88,89
 74 612 74 612 168 693 c 128,-1,90
 262 774 262 774 400 772 c 0,91,92
 658 768 658 768 704 512 c 1,93,94
 730 654 730 654 834 720 c 0,95,96
 912 768 912 768 1012 768 c 0,97,98
 1174 768 1174 768 1250 682 c 0,99,100
 1300 626 1300 626 1302 544 c 0,0,1
384 438 m 0,101,102
 382 552 382 552 272 554 c 0,103,104
 218 554 218 554 186 514 c 0,105,106
 160 482 160 482 158 438 c 0,107,108
 156 376 156 376 194 336 c 0,109,110
 222 306 222 306 256 304 c 0,111,112
 312 300 312 300 348 334 c 128,-1,113
 384 368 384 368 384 438 c 0,101,102
EndSplineSet
EndChar

StartChar: tm_nya
Encoding: 2974 2974 65
Width: 1514
GlyphClass: 2
Flags: W
LayerCount: 2
Fore
SplineSet
1444 92 m 0,0,1
 1444 -160 1444 -160 1266 -284 c 0,2,3
 1110 -394 1110 -394 840 -394 c 0,4,5
 466 -394 466 -394 258 -188 c 0,6,7
 70 0 70 0 74 286 c 0,8,9
 78 536 78 536 222 726 c 1,10,-1
 276 688 l 1,11,12
 148 492 148 492 146 288 c 0,13,14
 144 14 144 14 334 -156 c 0,15,16
 528 -332 528 -332 842 -322 c 0,17,18
 1368 -304 1368 -304 1368 92 c 0,19,20
 1368 206 1368 206 1308 272 c 0,21,22
 1262 324 1262 324 1206 324 c 0,23,24
 1076 324 1076 324 1054 224 c 1,25,-1
 1054 0 l 1,26,-1
 990 0 l 1,27,-1
 990 700 l 1,28,-1
 754 700 l 1,29,30
 558 704 558 704 452 598 c 0,31,32
 364 508 364 508 362 370 c 1,33,34
 426 480 426 480 554 480 c 0,35,36
 656 480 656 480 720 412 c 128,-1,37
 784 344 784 344 784 250 c 0,38,39
 784 160 784 160 734 92 c 0,40,41
 668 6 668 6 538 0 c 0,42,43
 462 -4 462 -4 392 60 c 0,44,45
 290 154 290 154 290 350 c 0,46,47
 290 550 290 550 426 664 c 0,48,49
 552 768 552 768 758 768 c 2,50,-1
 1188 768 l 1,51,-1
 1188 700 l 1,52,-1
 1054 700 l 1,53,-1
 1054 348 l 1,54,55
 1092 400 1092 400 1208 400 c 0,56,57
 1294 400 1294 400 1360 332 c 0,58,59
 1444 248 1444 248 1444 92 c 0,0,1
702 248 m 0,60,61
 702 316 702 316 660 361 c 128,-1,62
 618 406 618 406 552 406 c 0,63,64
 478 406 478 406 435 353 c 128,-1,65
 392 300 392 300 392 232 c 256,66,67
 392 164 392 164 444 116 c 0,68,69
 488 72 488 72 536 72 c 0,70,71
 604 72 604 72 653 118 c 128,-1,72
 702 164 702 164 702 248 c 0,60,61
EndSplineSet
EndChar

StartChar: tm_tta
Encoding: 2975 2975 66
Width: 1098
GlyphClass: 2
Flags: W
LayerCount: 2
Fore
SplineSet
998 -2 m 1,0,-1
 96 -2 l 1,1,-1
 96 768 l 1,2,-1
 160 768 l 1,3,-1
 160 62 l 1,4,-1
 998 62 l 1,5,-1
 998 -2 l 1,0,-1
EndSplineSet
EndChar

StartChar: tm_nna
Encoding: 2979 2979 67
Width: 1892
GlyphClass: 2
Flags: W
LayerCount: 2
Fore
SplineSet
1830 702 m 1,0,-1
 1700 702 l 1,1,-1
 1700 0 l 1,2,-1
 1634 0 l 1,3,-1
 1634 702 l 1,4,-1
 1520 702 l 2,5,6
 1430 702 1430 702 1350 662 c 1,7,8
 1398 634 1398 634 1446 564 c 0,9,10
 1512 464 1512 464 1512 344 c 0,11,12
 1512 194 1512 194 1453 97 c 128,-1,13
 1394 0 1394 0 1292 0 c 0,14,15
 1174 0 1174 0 1116 106 c 0,16,17
 1070 188 1070 188 1070 318 c 0,18,19
 1070 456 1070 456 1132 562 c 0,20,21
 1174 632 1174 632 1218 658 c 1,22,23
 1150 702 1150 702 1026 702 c 0,24,25
 918 702 918 702 854 662 c 1,26,27
 1016 548 1016 548 1016 342 c 0,28,29
 1016 178 1016 178 950 84 c 0,30,31
 888 0 888 0 798 0 c 0,32,33
 684 0 684 0 624 98 c 0,34,35
 574 186 574 186 574 324 c 0,36,37
 574 428 574 428 620 524 c 0,38,39
 660 608 660 608 720 658 c 1,40,41
 654 704 654 704 510 708 c 0,42,43
 326 714 326 714 220 608 c 0,44,45
 128 518 128 518 122 388 c 1,46,47
 184 490 184 490 304 490 c 0,48,49
 410 490 410 490 476 420 c 0,50,51
 536 354 536 354 536 256 c 0,52,53
 536 162 536 162 486 92 c 0,54,55
 422 6 422 6 294 0 c 0,56,57
 220 -2 220 -2 150 64 c 0,58,59
 50 162 50 162 50 356 c 0,60,61
 50 556 50 556 186 668 c 0,62,63
 314 774 314 774 514 772 c 0,64,65
 680 770 680 770 784 706 c 1,66,67
 894 770 894 770 1044 770 c 0,68,69
 1088 770 1088 770 1162 752 c 0,70,71
 1246 732 1246 732 1278 706 c 1,72,73
 1386 770 1386 770 1582 768 c 2,74,-1
 1830 768 l 1,75,-1
 1830 702 l 1,0,-1
1436 340 m 0,76,77
 1436 522 1436 522 1282 626 c 1,78,79
 1150 524 1150 524 1140 330 c 0,80,81
 1136 266 1136 266 1164 184 c 0,82,83
 1202 70 1202 70 1280 70 c 0,84,85
 1364 70 1364 70 1406 174 c 0,86,87
 1436 248 1436 248 1436 340 c 0,76,77
940 338 m 0,88,89
 940 528 940 528 788 626 c 1,90,91
 652 524 652 524 644 330 c 0,92,93
 642 264 642 264 668 184 c 0,94,95
 708 70 708 70 786 70 c 0,96,97
 874 70 874 70 914 186 c 0,98,99
 940 258 940 258 940 338 c 0,88,89
462 250 m 0,100,101
 462 318 462 318 420 367 c 128,-1,102
 378 416 378 416 314 416 c 0,103,104
 232 416 232 416 188 360 c 0,105,106
 150 312 150 312 152 240 c 0,107,108
 154 170 154 170 199 122 c 128,-1,109
 244 74 244 74 292 74 c 0,110,111
 360 74 360 74 411 121 c 128,-1,112
 462 168 462 168 462 250 c 0,100,101
EndSplineSet
EndChar

StartChar: tm_ta
Encoding: 2980 2980 68
Width: 1084
GlyphClass: 2
Flags: W
LayerCount: 2
Fore
SplineSet
1040 230 m 0,0,1
 1040 -54 1040 -54 700 -102 c 0,2,3
 572 -120 572 -120 384 -114 c 0,4,5
 220 -108 220 -108 164 -150 c 0,6,7
 142 -168 142 -168 142 -194 c 1,8,-1
 60 -182 l 1,9,10
 80 -114 80 -114 124 -88 c 0,11,12
 194 -48 194 -48 384 -48 c 0,13,14
 646 -48 646 -48 694 -36 c 1,15,16
 970 4 970 4 970 244 c 0,17,18
 970 452 970 452 704 452 c 2,19,-1
 622 452 l 1,20,-1
 622 350 l 1,21,22
 618 248 618 248 588 176 c 0,23,24
 512 0 512 0 308 0 c 0,25,26
 194 0 194 0 121 75 c 128,-1,27
 48 150 48 150 48 258 c 0,28,29
 48 362 48 362 100 434 c 0,30,31
 158 516 158 516 262 518 c 1,32,-1
 262 768 l 1,33,-1
 870 768 l 1,34,-1
 870 702 l 1,35,-1
 622 702 l 1,36,-1
 622 518 l 1,37,-1
 720 518 l 2,38,39
 1040 518 1040 518 1040 230 c 0,0,1
556 518 m 1,40,-1
 556 702 l 1,41,-1
 328 702 l 1,42,-1
 328 518 l 1,43,-1
 556 518 l 1,40,-1
556 392 m 2,44,-1
 556 452 l 1,45,-1
 288 452 l 2,46,47
 198 452 198 452 150 384 c 0,48,49
 114 330 114 330 114 266 c 0,50,51
 114 198 114 198 146 148 c 0,52,53
 196 66 196 66 314 66 c 0,54,55
 556 66 556 66 556 392 c 2,44,-1
EndSplineSet
EndChar

StartChar: tm_na
Encoding: 2984 2984 69
Width: 954
GlyphClass: 2
Flags: W
LayerCount: 2
Fore
SplineSet
882 232 m 0,0,1
 882 86 882 86 822 8 c 0,2,3
 716 -126 716 -126 428 -126 c 0,4,5
 376 -126 376 -126 320 -122 c 0,6,7
 282 -120 282 -120 200 -126 c 0,8,9
 112 -132 112 -132 80 -142 c 0,10,11
 26 -160 26 -160 8 -200 c 1,12,-1
 -60 -186 l 1,13,14
 -10 -84 -10 -84 130 -70 c 1,15,16
 274 -68 274 -68 418 -66 c 0,17,18
 606 -64 606 -64 696 -16 c 0,19,20
 820 50 820 50 820 222 c 0,21,22
 820 318 820 318 758 370 c 0,23,24
 710 410 710 410 646 410 c 0,25,26
 556 410 556 410 504 360 c 0,27,28
 468 328 468 328 464 298 c 1,29,-1
 464 -2 l 1,30,-1
 398 -2 l 1,31,-1
 398 700 l 1,32,-1
 170 700 l 1,33,-1
 170 -2 l 1,34,-1
 106 -2 l 1,35,-1
 106 768 l 1,36,-1
 778 768 l 1,37,-1
 778 700 l 1,38,-1
 464 700 l 1,39,-1
 464 406 l 1,40,41
 534 470 534 470 656 470 c 0,42,43
 754 470 754 470 818 401 c 128,-1,44
 882 332 882 332 882 232 c 0,0,1
EndSplineSet
EndChar

StartChar: tm_nnna
Encoding: 2985 2985 70
Width: 1444
GlyphClass: 2
Flags: W
LayerCount: 2
Fore
SplineSet
1346 702 m 1,0,-1
 1216 702 l 1,1,-1
 1216 0 l 1,2,-1
 1150 0 l 1,3,-1
 1150 702 l 1,4,-1
 1042 702 l 2,5,6
 946 702 946 702 868 662 c 1,7,8
 1028 542 1028 542 1028 334 c 0,9,10
 1028 172 1028 172 958 80 c 0,11,12
 896 0 896 0 806 0 c 0,13,14
 694 0 694 0 636 100 c 0,15,16
 586 186 586 186 586 324 c 0,17,18
 586 430 586 430 632 526 c 0,19,20
 674 614 674 614 734 658 c 1,21,22
 646 706 646 706 524 708 c 0,23,24
 344 710 344 710 234 606 c 0,25,26
 140 518 140 518 134 390 c 1,27,28
 196 490 196 490 320 490 c 0,29,30
 424 490 424 490 487 422 c 128,-1,31
 550 354 550 354 550 258 c 0,32,33
 550 164 550 164 502 94 c 0,34,35
 436 2 436 2 306 0 c 0,36,37
 234 -2 234 -2 164 66 c 0,38,39
 64 162 64 162 62 356 c 0,40,41
 60 548 60 548 202 664 c 0,42,43
 334 774 334 774 530 772 c 0,44,45
 692 770 692 770 796 706 c 1,46,47
 898 768 898 768 1070 768 c 2,48,-1
 1346 768 l 1,49,-1
 1346 702 l 1,0,-1
952 338 m 0,50,51
 952 528 952 528 800 626 c 1,52,53
 666 526 666 526 656 330 c 0,54,55
 652 264 652 264 682 182 c 0,56,57
 722 70 722 70 796 70 c 0,58,59
 868 70 868 70 912 152 c 0,60,61
 952 228 952 228 952 338 c 0,50,51
474 250 m 0,62,63
 474 320 474 320 432 368 c 128,-1,64
 390 416 390 416 324 416 c 0,65,66
 244 416 244 416 200 362 c 0,67,68
 164 314 164 314 164 242 c 0,69,70
 164 172 164 172 212 120 c 0,71,72
 254 74 254 74 304 74 c 0,73,74
 372 74 372 74 423 120 c 128,-1,75
 474 166 474 166 474 250 c 0,62,63
EndSplineSet
EndChar

StartChar: tm_pa
Encoding: 2986 2986 71
Width: 852
GlyphClass: 2
Flags: W
LayerCount: 2
Fore
SplineSet
780 0 m 1,0,-1
 74 0 l 1,1,-1
 74 768 l 1,2,-1
 142 768 l 1,3,-1
 142 64 l 1,4,-1
 714 64 l 1,5,-1
 714 768 l 1,6,-1
 780 768 l 1,7,-1
 780 0 l 1,0,-1
EndSplineSet
EndChar

StartChar: tm_ma
Encoding: 2990 2990 72
Width: 1082
GlyphClass: 2
Flags: W
LayerCount: 2
Fore
SplineSet
1028 400 m 0,0,1
 1028 138 1028 138 804 44 c 0,2,3
 688 -4 688 -4 520 0 c 0,4,5
 348 4 348 4 64 0 c 1,6,-1
 64 768 l 1,7,-1
 130 768 l 1,8,-1
 130 64 l 1,9,-1
 452 64 l 1,10,-1
 452 572 l 2,11,12
 452 774 452 774 680 774 c 0,13,14
 828 774 828 774 924 684 c 0,15,16
 1028 582 1028 582 1028 400 c 0,0,1
960 402 m 0,17,18
 960 564 960 564 872 644 c 0,19,20
 802 706 802 706 696 706 c 0,21,22
 520 706 520 706 520 586 c 2,23,-1
 520 68 l 1,24,25
 960 68 960 68 960 402 c 0,17,18
EndSplineSet
EndChar

StartChar: tm_ya
Encoding: 2991 2991 73
Width: 1146
GlyphClass: 2
Flags: W
LayerCount: 2
Fore
SplineSet
1080 0 m 1,0,-1
 452 0 l 1,1,-1
 452 128 l 1,2,3
 400 -4 400 -4 264 -4 c 0,4,5
 84 -4 84 -4 78 246 c 1,6,-1
 78 768 l 1,7,-1
 144 768 l 1,8,-1
 144 244 l 2,9,10
 142 60 142 60 274 60 c 0,11,12
 392 60 392 60 452 290 c 1,13,-1
 452 768 l 1,14,-1
 518 768 l 1,15,-1
 518 64 l 1,16,-1
 1014 64 l 1,17,-1
 1014 768 l 1,18,-1
 1080 768 l 1,19,-1
 1080 0 l 1,0,-1
EndSplineSet
EndChar

StartChar: tm_ra
Encoding: 2992 2992 74
Width: 738
GlyphClass: 2
Flags: W
LayerCount: 2
Fore
SplineSet
678 702 m 1,0,-1
 426 702 l 1,1,-1
 426 -78 l 1,2,-1
 74 -212 l 1,3,-1
 74 -150 l 1,4,-1
 360 -36 l 1,5,-1
 360 702 l 1,6,-1
 142 702 l 1,7,-1
 142 0 l 1,8,-1
 74 0 l 1,9,-1
 74 768 l 1,10,-1
 678 768 l 1,11,-1
 678 702 l 1,0,-1
EndSplineSet
EndChar

StartChar: tm_rra
Encoding: 2993 2993 75
Width: 982
GlyphClass: 2
Flags: W
LayerCount: 2
Fore
SplineSet
924 592 m 0,0,1
 924 450 924 450 840 406 c 1,2,3
 922 360 922 360 922 202 c 0,4,5
 922 54 922 54 872 -16 c 0,6,7
 782 -144 782 -144 516 -144 c 0,8,9
 442 -144 442 -144 354 -134 c 0,10,11
 326 -130 326 -130 290 -130 c 0,12,13
 60 -130 60 -130 30 -210 c 1,14,-1
 -38 -196 l 1,15,16
 20 -80 20 -80 264 -80 c 0,17,18
 302 -80 302 -80 375 -84 c 128,-1,19
 448 -88 448 -88 486 -88 c 0,20,21
 720 -88 720 -88 800 -8 c 0,22,23
 856 50 856 50 856 196 c 0,24,25
 856 366 856 366 760 368 c 1,26,-1
 760 430 l 1,27,28
 860 452 860 452 856 596 c 0,29,30
 854 638 854 638 820 670 c 0,31,32
 776 710 776 710 698 708 c 0,33,34
 530 704 530 704 530 498 c 2,35,-1
 530 2 l 1,36,-1
 444 2 l 1,37,-1
 444 500 l 2,38,39
 444 610 444 610 418 652 c 0,40,41
 384 708 384 708 284 708 c 0,42,43
 144 708 144 708 148 544 c 1,44,-1
 148 2 l 1,45,-1
 86 2 l 1,46,-1
 86 588 l 1,47,48
 100 770 100 770 288 770 c 0,49,50
 458 770 458 770 494 636 c 1,51,52
 542 768 542 768 718 768 c 0,53,54
 826 768 826 768 882 704 c 0,55,56
 924 654 924 654 924 592 c 0,0,1
EndSplineSet
EndChar

StartChar: tm_la
Encoding: 2994 2994 76
Width: 1274
GlyphClass: 2
Flags: W
LayerCount: 2
Fore
SplineSet
1226 408 m 0,0,1
 1228 240 1228 240 1158 124 c 0,2,3
 1082 0 1082 0 954 0 c 0,4,5
 802 0 802 0 738 82 c 0,6,7
 668 174 668 174 668 398 c 0,8,9
 668 700 668 700 406 700 c 0,10,11
 168 700 168 700 116 458 c 0,12,13
 112 440 112 440 112 384 c 1,14,15
 128 412 128 412 152 434 c 0,16,17
 208 484 208 484 294 486 c 0,18,19
 396 488 396 488 463 424 c 128,-1,20
 530 360 530 360 530 256 c 0,21,22
 530 164 530 164 486 96 c 0,23,24
 426 4 426 4 304 -2 c 0,25,26
 202 -6 202 -6 132 72 c 0,27,28
 40 176 40 176 44 390 c 0,29,30
 48 552 48 552 147 660 c 128,-1,31
 246 768 246 768 410 768 c 0,32,33
 748 768 748 768 748 380 c 0,34,35
 748 206 748 206 794 136 c 128,-1,36
 840 66 840 66 952 66 c 0,37,38
 1054 66 1054 66 1110 182 c 0,39,40
 1156 278 1156 278 1154 398 c 0,41,42
 1152 572 1152 572 1062 654 c 0,43,44
 992 714 992 714 906 706 c 1,45,-1
 906 770 l 1,46,47
 1068 774 1068 774 1152 664 c 0,48,49
 1224 570 1224 570 1226 408 c 0,0,1
452 256 m 0,50,51
 452 318 452 318 416 360 c 0,52,53
 372 410 372 410 294 410 c 0,54,55
 220 410 220 410 178 350 c 0,56,57
 142 302 142 302 142 240 c 0,58,59
 142 160 142 160 198 114 c 0,60,61
 244 76 244 76 290 76 c 0,62,63
 360 76 360 76 406 128 c 128,-1,64
 452 180 452 180 452 256 c 0,50,51
EndSplineSet
EndChar

StartChar: tm_lla
Encoding: 2995 2995 77
Width: 1372
GlyphClass: 2
Flags: W
LayerCount: 2
Fore
SplineSet
1300 700 m 1,0,-1
 1170 700 l 1,1,-1
 1170 0 l 1,2,-1
 1104 0 l 1,3,-1
 1104 700 l 1,4,-1
 854 700 l 1,5,-1
 854 0 l 1,6,-1
 788 0 l 1,7,-1
 788 438 l 2,8,9
 788 560 788 560 692 636 c 0,10,11
 604 704 604 704 478 704 c 0,12,13
 172 704 172 704 168 380 c 1,14,15
 222 480 222 480 354 480 c 0,16,17
 456 480 456 480 522 410 c 0,18,19
 582 344 582 344 584 246 c 0,20,21
 586 156 586 156 534 84 c 0,22,23
 468 -6 468 -6 342 -10 c 0,24,25
 266 -12 266 -12 196 54 c 0,26,27
 92 148 92 148 92 344 c 0,28,29
 92 550 92 550 197 662 c 128,-1,30
 302 774 302 774 480 774 c 0,31,32
 584 774 584 774 674 730 c 0,33,34
 756 692 756 692 788 638 c 1,35,-1
 788 768 l 1,36,-1
 1300 768 l 1,37,-1
 1300 700 l 1,0,-1
502 242 m 0,38,39
 504 306 504 306 462 354 c 128,-1,40
 420 402 420 402 352 402 c 0,41,42
 272 402 272 402 228 346 c 0,43,44
 190 298 190 298 192 232 c 256,45,46
 194 166 194 166 238 118 c 128,-1,47
 282 70 282 70 332 70 c 0,48,49
 404 70 404 70 452 115 c 128,-1,50
 500 160 500 160 502 242 c 0,38,39
EndSplineSet
EndChar

StartChar: tm_llla
Encoding: 2996 2996 78
Width: 1146
GlyphClass: 2
Flags: W
LayerCount: 2
Fore
SplineSet
1078 -156 m 0,0,1
 1078 -204 1078 -204 980 -224 c 0,2,3
 912 -238 912 -238 844 -232 c 1,4,5
 774 -422 774 -422 432 -418 c 0,6,7
 240 -416 240 -416 144 -328 c 0,8,9
 72 -260 72 -260 72 -164 c 0,10,11
 72 -96 72 -96 100 -74 c 1,12,-1
 152 -124 l 1,13,14
 140 -148 140 -148 140 -174 c 0,15,16
 140 -246 140 -246 220 -300 c 128,-1,17
 300 -354 300 -354 428 -354 c 0,18,19
 560 -354 560 -354 652 -318 c 0,20,21
 738 -282 738 -282 760 -226 c 1,22,23
 582 -228 582 -228 518 -132 c 0,24,25
 480 -78 480 -78 484 0 c 1,26,-1
 100 0 l 1,27,-1
 100 768 l 1,28,-1
 166 768 l 1,29,-1
 164 64 l 1,30,-1
 484 64 l 1,31,-1
 484 570 l 2,32,33
 484 774 484 774 712 774 c 0,34,35
 858 774 858 774 954 684 c 0,36,37
 1060 584 1060 584 1060 402 c 0,38,39
 1060 174 1060 174 892 70 c 0,40,41
 756 -14 756 -14 556 0 c 1,42,-1
 556 -30 l 2,43,44
 556 -74 556 -74 594 -110 c 0,45,46
 644 -160 644 -160 736 -160 c 0,47,48
 768 -160 768 -160 802 -154 c 1,49,50
 836 -84 836 -84 956 -84 c 0,51,52
 1078 -84 1078 -84 1078 -156 c 0,0,1
994 404 m 0,53,54
 994 564 994 564 904 644 c 0,55,56
 834 706 834 706 728 706 c 0,57,58
 556 706 556 706 556 586 c 2,59,-1
 556 68 l 1,60,61
 750 68 750 68 852 126 c 0,62,63
 994 204 994 204 994 404 c 0,53,54
EndSplineSet
EndChar

StartChar: tm_va
Encoding: 2997 2997 79
Width: 1260
GlyphClass: 2
Flags: W
LayerCount: 2
Fore
SplineSet
1188 0 m 1,0,-1
 630 0 l 1,1,2
 742 92 742 92 784 158 c 0,3,4
 842 248 842 248 842 370 c 0,5,6
 842 506 842 506 766 594 c 0,7,8
 674 698 674 698 494 708 c 0,9,10
 324 716 324 716 222 614 c 0,11,12
 134 526 134 526 128 396 c 1,13,14
 190 500 190 500 316 500 c 0,15,16
 422 500 422 500 490 426 c 0,17,18
 552 358 552 358 552 260 c 0,19,20
 552 170 552 170 500 98 c 0,21,22
 432 8 432 8 304 0 c 0,23,24
 232 -4 232 -4 162 64 c 0,25,26
 60 162 60 162 60 358 c 0,27,28
 60 552 60 552 184 666 c 0,29,30
 306 774 306 774 508 776 c 0,31,32
 632 776 632 776 744 708 c 0,33,34
 916 600 916 600 916 374 c 0,35,36
 916 166 916 166 800 62 c 1,37,-1
 1124 62 l 1,38,-1
 1124 768 l 1,39,-1
 1188 768 l 1,40,-1
 1188 0 l 1,0,-1
472 256 m 0,41,42
 474 326 474 326 430 376 c 128,-1,43
 386 426 386 426 316 426 c 0,44,45
 236 426 236 426 192 368 c 0,46,47
 154 318 154 318 154 248 c 0,48,49
 154 170 154 170 204 118 c 0,50,51
 246 74 246 74 302 72 c 0,52,53
 374 70 374 70 422 120 c 128,-1,54
 470 170 470 170 472 256 c 0,41,42
EndSplineSet
EndChar

StartChar: tm_ssa
Encoding: 2999 2999 80
Width: 1650
GlyphClass: 2
Flags: W
LayerCount: 2
Fore
SplineSet
1576 0 m 1,0,-1
 1350 0 l 1,1,-1
 1262 -208 l 1,2,-1
 1184 -208 l 1,3,-1
 1272 0 l 1,4,-1
 634 0 l 1,5,6
 748 96 748 96 790 162 c 0,7,8
 844 248 844 248 844 370 c 0,9,10
 844 524 844 524 745 616 c 128,-1,11
 646 708 646 708 478 708 c 0,12,13
 306 708 306 708 212 602 c 0,14,15
 136 516 136 516 128 388 c 1,16,17
 194 498 194 498 316 498 c 0,18,19
 422 498 422 498 488 430 c 128,-1,20
 554 362 554 362 554 256 c 0,21,22
 554 160 554 160 498 92 c 0,23,24
 432 6 432 6 304 0 c 0,25,26
 234 -4 234 -4 164 64 c 0,27,28
 62 160 62 160 62 350 c 0,29,30
 62 546 62 546 179 660 c 128,-1,31
 296 774 296 774 492 774 c 0,32,33
 636 774 636 774 748 704 c 0,34,35
 918 600 918 600 918 370 c 0,36,37
 918 180 918 180 804 64 c 1,38,-1
 1184 64 l 1,39,40
 1042 168 1042 168 1018 390 c 0,41,42
 1014 432 1014 432 1014 470 c 0,43,44
 1014 770 1014 770 1300 770 c 0,45,46
 1372 770 1372 770 1436 720 c 0,47,48
 1524 652 1524 652 1524 524 c 0,49,50
 1524 428 1524 428 1484 330 c 2,51,-1
 1376 64 l 1,52,-1
 1576 64 l 1,53,-1
 1576 0 l 1,0,-1
1422 402 m 2,54,55
 1440 446 1440 446 1440 514 c 0,56,57
 1440 694 1440 694 1280 694 c 0,58,59
 1152 694 1152 694 1108 572 c 0,60,61
 1090 520 1090 520 1090 458 c 0,62,63
 1090 332 1090 332 1156 212 c 128,-1,64
 1222 92 1222 92 1296 70 c 1,65,-1
 1422 402 l 2,54,55
474 254 m 0,66,67
 476 326 476 326 433 376 c 128,-1,68
 390 426 390 426 320 426 c 0,69,70
 242 426 242 426 198 370 c 0,71,72
 158 322 158 322 158 248 c 0,73,74
 158 166 158 166 208 116 c 0,75,76
 250 72 250 72 304 72 c 0,77,78
 370 72 370 72 421 119 c 128,-1,79
 472 166 472 166 474 254 c 0,66,67
EndSplineSet
EndChar

StartChar: tm_sa
Encoding: 3000 3000 81
Width: 1736
GlyphClass: 2
Flags: W
LayerCount: 2
Fore
SplineSet
1672 376 m 0,0,1
 1674 242 1674 242 1616 136 c 0,2,3
 1542 -2 1542 -2 1396 -2 c 0,4,5
 1258 -2 1258 -2 1197 81 c 128,-1,6
 1136 164 1136 164 1136 352 c 128,-1,7
 1136 540 1136 540 1112 604 c 0,8,9
 1078 694 1078 694 988 694 c 0,10,11
 826 694 826 694 836 436 c 1,12,-1
 836 0 l 1,13,-1
 766 0 l 1,14,-1
 766 424 l 2,15,16
 766 548 766 548 677 623 c 128,-1,17
 588 698 588 698 460 698 c 0,18,19
 144 698 144 698 144 372 c 1,20,21
 200 472 200 472 330 472 c 0,22,23
 434 472 434 472 500 400 c 0,24,25
 560 334 560 334 560 238 c 0,26,27
 560 148 560 148 510 80 c 0,28,29
 444 -10 444 -10 318 -16 c 0,30,31
 244 -20 244 -20 174 48 c 0,32,33
 70 142 70 142 70 336 c 0,34,35
 70 542 70 542 173 655 c 128,-1,36
 276 768 276 768 462 768 c 0,37,38
 586 768 586 768 682 710 c 0,39,40
 762 662 762 662 788 598 c 1,41,42
 824 760 824 760 992 760 c 0,43,44
 1138 760 1138 760 1182 622 c 0,45,46
 1208 542 1208 542 1206 332 c 0,47,48
 1204 176 1204 176 1260 112 c 0,49,50
 1304 62 1304 62 1398 62 c 0,51,52
 1504 62 1504 62 1564 166 c 0,53,54
 1614 254 1614 254 1616 376 c 0,55,56
 1618 540 1618 540 1550 628 c 0,57,58
 1490 704 1490 704 1394 708 c 1,59,-1
 1394 764 l 1,60,61
 1666 744 1666 744 1672 376 c 0,0,1
478 240 m 0,62,63
 478 318 478 318 426 362 c 0,64,65
 384 398 384 398 330 398 c 0,66,67
 250 398 250 398 204 340 c 0,68,69
 168 294 168 294 168 228 c 256,70,71
 168 162 168 162 213 113 c 128,-1,72
 258 64 258 64 316 64 c 0,73,74
 380 64 380 64 429 109 c 128,-1,75
 478 154 478 154 478 240 c 0,62,63
EndSplineSet
EndChar

StartChar: tm_ha
Encoding: 3001 3001 82
Width: 1874
GlyphClass: 2
Flags: W
LayerCount: 2
Fore
SplineSet
1806 584 m 0,0,1
 1808 448 1808 448 1720 404 c 1,2,3
 1804 366 1804 366 1804 192 c 0,4,5
 1804 58 1804 58 1760 -8 c 0,6,7
 1674 -146 1674 -146 1410 -144 c 0,8,9
 1408 -144 1408 -144 1252 -138 c 0,10,11
 1134 -132 1134 -132 1090 -138 c 0,12,13
 934 -158 934 -158 912 -214 c 1,14,-1
 846 -198 l 1,15,16
 864 -158 864 -158 892 -138 c 0,17,18
 942 -100 942 -100 1050 -88 c 0,19,20
 1092 -80 1092 -80 1240 -84 c 0,21,22
 1406 -88 1406 -88 1408 -88 c 0,23,24
 1582 -78 1582 -78 1650 -36 c 0,25,26
 1740 22 1740 22 1740 174 c 0,27,28
 1740 354 1740 354 1644 366 c 1,29,-1
 1644 428 l 1,30,31
 1740 452 1740 452 1740 582 c 0,32,33
 1740 630 1740 630 1706 664 c 0,34,35
 1666 706 1666 706 1590 706 c 0,36,37
 1410 706 1410 706 1412 492 c 2,38,-1
 1412 0 l 1,39,-1
 1326 0 l 1,40,-1
 1326 528 l 2,41,42
 1326 706 1326 706 1178 706 c 0,43,44
 1050 706 1050 706 1050 538 c 2,45,-1
 1050 0 l 1,46,-1
 578 0 l 1,47,48
 688 116 688 116 700 134 c 0,49,50
 766 230 766 230 766 370 c 0,51,52
 766 518 766 518 682 610 c 0,53,54
 592 708 592 708 432 708 c 0,55,56
 258 708 258 708 172 572 c 0,57,58
 112 476 112 476 118 390 c 1,59,60
 172 496 172 496 290 496 c 0,61,62
 382 496 382 496 446 424 c 0,63,64
 504 356 504 356 504 274 c 0,65,66
 504 152 504 152 441 74 c 128,-1,67
 378 -4 378 -4 280 -4 c 0,68,69
 194 -4 194 -4 130 82 c 0,70,71
 56 188 56 188 58 374 c 0,72,73
 60 532 60 532 152 642 c 0,74,75
 262 774 262 774 454 774 c 0,76,77
 598 774 598 774 702 686 c 0,78,79
 830 576 830 576 830 370 c 0,80,81
 830 160 830 160 726 64 c 1,82,-1
 992 64 l 1,83,-1
 992 584 l 1,84,85
 1006 766 1006 766 1184 766 c 0,86,87
 1276 766 1276 766 1332 708 c 0,88,89
 1372 668 1372 668 1378 630 c 1,90,91
 1382 664 1382 664 1424 706 c 0,92,93
 1486 766 1486 766 1594 766 c 0,94,95
 1688 766 1688 766 1747 716 c 128,-1,96
 1806 666 1806 666 1806 584 c 0,0,1
430 254 m 0,97,98
 430 332 430 332 388 378 c 128,-1,99
 346 424 346 424 288 424 c 0,100,101
 216 424 216 424 180 369 c 128,-1,102
 144 314 144 314 144 236 c 0,103,104
 144 166 144 166 184 117 c 128,-1,105
 224 68 224 68 276 68 c 0,106,107
 334 68 334 68 378 112 c 0,108,109
 430 164 430 164 430 254 c 0,97,98
EndSplineSet
EndChar

StartChar: tm_aakaar
Encoding: 3006 3006 83
Width: 734
GlyphClass: 2
Flags: W
LayerCount: 2
Fore
SplineSet
678 702 m 1,0,-1
 426 702 l 1,1,-1
 426 0 l 1,2,-1
 360 0 l 1,3,-1
 360 702 l 1,4,-1
 142 702 l 1,5,-1
 140 0 l 1,6,-1
 74 0 l 1,7,-1
 74 768 l 1,8,-1
 678 768 l 1,9,-1
 678 702 l 1,0,-1
EndSplineSet
EndChar

StartChar: tm_ikaar
Encoding: 3007 3007 84
Width: 836
GlyphClass: 2
Flags: W
LayerCount: 2
Fore
SplineSet
1244 82 m 1,0,-1
 1184 82 l 1,1,-1
 1184 706 l 2,2,3
 1184 834 1184 834 1178 870 c 0,4,5
 1160 966 1160 966 1086 1016 c 0,6,7
 992 1080 992 1080 800 1080 c 0,8,9
 508 1080 508 1080 508 898 c 0,10,11
 508 858 508 858 530 824 c 0,12,13
 566 768 566 768 646 768 c 2,14,-1
 508 768 l 1,15,16
 488 774 488 774 463 813 c 128,-1,17
 438 852 438 852 438 890 c 0,18,19
 438 1146 438 1146 800 1146 c 0,20,21
 1112 1146 1112 1146 1202 984 c 0,22,23
 1244 910 1244 910 1244 716 c 2,24,-1
 1244 82 l 1,0,-1
EndSplineSet
EndChar

StartChar: tm_iikaar
Encoding: 3008 3008 85
Width: 890
GlyphClass: 4
Flags: W
LayerCount: 2
Fore
SplineSet
1140 938 m 0,0,1
 1140 800 1140 800 982 800 c 0,2,3
 822 800 822 800 822 918 c 0,4,5
 822 1020 822 1020 958 1020 c 0,6,7
 1020 1020 1020 1020 1044 1006 c 1,8,9
 974 1080 974 1080 760 1080 c 0,10,11
 470 1080 470 1080 470 904 c 0,12,13
 470 780 470 780 584 768 c 1,14,-1
 468 768 l 1,15,16
 400 812 400 812 400 906 c 0,17,18
 400 1146 400 1146 766 1146 c 0,19,20
 942 1146 942 1146 1041 1092 c 128,-1,21
 1140 1038 1140 1038 1140 938 c 0,0,1
1044 912 m 0,22,23
 1044 960 1044 960 960 960 c 0,24,25
 884 960 884 960 884 906 c 0,26,27
 884 856 884 856 962 856 c 0,28,29
 1044 856 1044 856 1044 912 c 0,22,23
EndSplineSet
EndChar

StartChar: tm_ukaar
Encoding: 3009 3009 86
Width: 667
GlyphClass: 4
Flags: W
LayerCount: 2
Fore
SplineSet
528 707 m 1,0,-1
 426 707 l 1,1,2
 458 669 458 669 454 603 c 0,3,4
 452 551 452 551 416 509 c 0,5,6
 370 453 370 453 286 453 c 0,7,8
 226 453 226 453 180 498 c 128,-1,9
 134 543 134 543 132 599 c 0,10,11
 130 643 130 643 156 695 c 1,12,-1
 -233 695 l 1,13,-1
 -232 767 l 1,14,-1
 210 767 l 1,15,16
 240 779 240 779 372 779 c 2,17,-1
 528 779 l 1,18,-1
 528 707 l 1,0,-1
372 617 m 0,19,20
 372 651 372 651 347 674 c 128,-1,21
 322 697 322 697 286 697 c 0,22,23
 204 697 204 697 204 609 c 0,24,25
 204 523 204 523 290 523 c 0,26,27
 372 523 372 523 372 617 c 0,19,20
EndSplineSet
EndChar

StartChar: tm_uukaar
Encoding: 3010 3010 87
Width: 720
GlyphClass: 4
Flags: W
LayerCount: 2
Fore
SplineSet
616 572 m 0,0,1
 616 322 616 322 274 322 c 1,2,-1
 274 384 l 1,3,4
 552 384 552 384 552 560 c 0,5,6
 552 682 552 682 454 698 c 1,7,8
 474 662 474 662 472 606 c 0,9,10
 470 554 470 554 434 512 c 0,11,12
 388 456 388 456 302 456 c 0,13,14
 246 456 246 456 199 501 c 128,-1,15
 152 546 152 546 150 600 c 0,16,17
 148 650 148 650 172 698 c 1,18,-1
 -215 698 l 1,19,-1
 -210 768 l 1,20,-1
 228 768 l 1,21,22
 256 776 256 776 298 776 c 2,23,-1
 376 776 l 2,24,25
 460 776 460 776 524 740 c 0,26,27
 616 688 616 688 616 572 c 0,0,1
390 616 m 0,28,29
 390 646 390 646 368 673 c 128,-1,30
 346 700 346 700 306 700 c 0,31,32
 222 700 222 700 222 616 c 0,33,34
 222 526 222 526 308 526 c 0,35,36
 346 526 346 526 368 553 c 128,-1,37
 390 580 390 580 390 616 c 0,28,29
EndSplineSet
EndChar

StartChar: tm_ekaar
Encoding: 3014 3014 88
Width: 1070
GlyphClass: 2
Flags: W
LayerCount: 2
Fore
SplineSet
1024 0 m 1,0,-1
 958 0 l 1,1,-1
 956 556 l 2,2,3
 956 750 956 750 878 888 c 0,4,5
 774 1070 774 1070 558 1070 c 0,6,7
 364 1070 364 1070 250 928 c 0,8,9
 142 794 142 794 142 594 c 0,10,11
 142 300 142 300 274 170 c 0,12,13
 380 62 380 62 558 76 c 1,14,15
 482 80 482 80 424 146 c 128,-1,16
 366 212 366 212 372 306 c 0,17,18
 378 402 378 402 444 462 c 128,-1,19
 510 522 510 522 614 522 c 0,20,21
 728 522 728 522 794 446 c 0,22,23
 854 376 854 376 854 280 c 0,24,25
 854 178 854 178 780 96 c 0,26,27
 694 2 694 2 550 2 c 0,28,29
 390 2 390 2 300 52 c 0,30,31
 70 182 70 182 70 582 c 0,32,33
 70 884 70 884 244 1032 c 0,34,35
 378 1144 378 1144 566 1144 c 0,36,37
 762 1144 762 1144 888 1002 c 0,38,39
 1024 850 1024 850 1024 590 c 2,40,-1
 1024 0 l 1,0,-1
766 310 m 0,41,42
 762 364 762 364 719 401 c 128,-1,43
 676 438 676 438 612 438 c 0,44,45
 540 438 540 438 501 395 c 128,-1,46
 462 352 462 352 462 286 c 0,47,48
 462 214 462 214 516 172 c 0,49,50
 558 138 558 138 606 138 c 0,51,52
 778 138 778 138 766 310 c 0,41,42
EndSplineSet
EndChar

StartChar: tm_eekaar
Encoding: 3015 3015 89
Width: 986
GlyphClass: 2
Flags: W
LayerCount: 2
Fore
SplineSet
914 274 m 0,0,1
 914 164 914 164 844 88 c 0,2,3
 762 2 762 2 612 -2 c 0,4,5
 452 -6 452 -6 332 56 c 0,6,7
 72 194 72 194 72 592 c 0,8,9
 72 870 72 870 228 1016 c 0,10,11
 360 1138 360 1138 554 1138 c 0,12,13
 710 1138 710 1138 810 1064 c 0,14,15
 926 980 926 980 910 828 c 0,16,17
 902 750 902 750 839 692 c 128,-1,18
 776 634 776 634 688 634 c 0,19,20
 576 634 576 634 514 692 c 128,-1,21
 452 750 452 750 446 844 c 0,22,23
 442 912 442 912 480 978 c 0,24,25
 528 1060 528 1060 618 1064 c 1,26,27
 586 1068 586 1068 556 1068 c 0,28,29
 360 1068 360 1068 248 934 c 0,30,31
 144 806 144 806 144 592 c 0,32,33
 144 66 144 66 612 66 c 1,34,35
 540 76 540 76 490 138 c 0,36,37
 432 206 432 206 438 300 c 256,38,39
 444 394 444 394 511 453 c 128,-1,40
 578 512 578 512 676 512 c 0,41,42
 788 512 788 512 854 436 c 0,43,44
 914 370 914 370 914 274 c 0,0,1
828 856 m 0,45,46
 828 920 828 920 784 964 c 128,-1,47
 740 1008 740 1008 676 1008 c 0,48,49
 614 1008 614 1008 569 964 c 128,-1,50
 524 920 524 920 524 856 c 0,51,52
 524 794 524 794 569 750 c 128,-1,53
 614 706 614 706 676 706 c 256,54,55
 738 706 738 706 783 750 c 128,-1,56
 828 794 828 794 828 856 c 0,45,46
828 278 m 256,57,58
 828 342 828 342 783 388 c 128,-1,59
 738 434 738 434 674 434 c 256,60,61
 610 434 610 434 565 388 c 128,-1,62
 520 342 520 342 520 278 c 256,63,64
 520 214 520 214 565 169 c 128,-1,65
 610 124 610 124 674 124 c 256,66,67
 738 124 738 124 783 169 c 128,-1,68
 828 214 828 214 828 278 c 256,57,58
EndSplineSet
EndChar

StartChar: tm_aikaar
Encoding: 3016 3016 90
Width: 1520
GlyphClass: 2
Flags: W
LayerCount: 2
Fore
SplineSet
1428 380 m 0,0,1
 1428 112 1428 112 1204 2 c 1,2,-1
 1178 64 l 1,3,4
 1278 112 1278 112 1324 218 c 0,5,6
 1362 306 1362 306 1354 398 c 0,7,8
 1328 702 1328 702 1044 702 c 0,9,10
 920 702 920 702 886 662 c 1,11,12
 1044 542 1044 542 1044 344 c 0,13,14
 1044 170 1044 170 974 78 c 0,15,16
 914 2 914 2 824 2 c 0,17,18
 710 2 710 2 654 102 c 0,19,20
 604 188 604 188 604 326 c 0,21,22
 604 432 604 432 650 528 c 0,23,24
 690 614 690 614 750 658 c 1,25,26
 668 706 668 706 538 706 c 0,27,28
 360 706 360 706 250 604 c 0,29,30
 154 514 154 514 150 392 c 1,31,32
 210 490 210 490 336 490 c 0,33,34
 440 490 440 490 504 422 c 128,-1,35
 568 354 568 354 568 260 c 0,36,37
 568 162 568 162 520 94 c 0,38,39
 458 6 458 6 322 2 c 0,40,41
 250 0 250 0 180 66 c 0,42,43
 80 162 80 162 80 356 c 0,44,45
 80 556 80 556 226 672 c 0,46,47
 356 772 356 772 542 772 c 0,48,49
 712 772 712 772 814 706 c 1,50,51
 922 768 922 768 1036 768 c 0,52,53
 1206 768 1206 768 1312 674 c 0,54,55
 1428 572 1428 572 1428 380 c 0,0,1
970 344 m 0,56,57
 970 526 970 526 816 626 c 1,58,59
 674 516 674 516 674 332 c 0,60,61
 674 244 674 244 704 168 c 0,62,63
 744 70 744 70 816 70 c 0,64,65
 884 70 884 70 927 146 c 128,-1,66
 970 222 970 222 970 344 c 0,56,57
492 250 m 0,67,68
 492 320 492 320 450 368 c 128,-1,69
 408 416 408 416 342 416 c 0,70,71
 264 416 264 416 220 360 c 0,72,73
 182 312 182 312 182 240 c 0,74,75
 182 170 182 170 226 122 c 128,-1,76
 270 74 270 74 326 74 c 0,77,78
 392 74 392 74 442 120 c 128,-1,79
 492 166 492 166 492 250 c 0,67,68
EndSplineSet
EndChar

StartChar: tm_halant
Encoding: 3021 3021 94
Width: 339
GlyphClass: 4
Flags: W
LayerCount: 2
Fore
SplineSet
223 1149 m 0,0,1
 157 1149 157 1149 109.5 1196.5 c 128,-1,2
 62 1244 62 1244 62 1310 c 0,3,4
 62 1378 62 1378 109.5 1424.5 c 128,-1,5
 157 1471 157 1471 223 1471 c 0,6,7
 290 1471 290 1471 337 1424.5 c 128,-1,8
 384 1378 384 1378 384 1310 c 0,9,10
 384 1244 384 1244 337 1196.5 c 128,-1,11
 290 1149 290 1149 223 1149 c 0,0,1
EndSplineSet
EndChar

StartChar: tm_two
Encoding: 3048 3048 97
Width: 1425
GlyphClass: 2
Flags: W
LayerCount: 2
Fore
SplineSet
1244 70 m 1,0,-1
 1226 0 l 1,1,-1
 586 0 l 2,2,3
 429 0 429 0 429 106 c 0,4,5
 429 153 429 153 478 181.5 c 128,-1,6
 527 210 527 210 586 210 c 2,7,-1
 779 210 l 2,8,9
 867 210 867 210 928 271.5 c 128,-1,10
 989 333 989 333 989 420 c 0,11,12
 989 500 989 500 945 560.5 c 128,-1,13
 901 621 901 621 831 621 c 0,14,15
 793 621 793 621 744 595 c 1,16,17
 814 555 814 555 814 437 c 0,18,19
 814 382 814 382 772.5 344.5 c 128,-1,20
 731 307 731 307 675 307 c 0,21,22
 618 307 618 307 580 351 c 128,-1,23
 542 395 542 395 542 455 c 0,24,25
 542 565 542 565 646.5 632.5 c 128,-1,26
 751 700 751 700 884 700 c 0,27,28
 987 700 987 700 1058 629 c 128,-1,29
 1129 558 1129 558 1129 455 c 0,30,31
 1129 321 1129 321 1025.5 230.5 c 128,-1,32
 922 140 922 140 779 140 c 2,33,-1
 595 140 l 2,34,35
 551 140 551 140 551 106 c 0,36,37
 551 70 551 70 604 70 c 2,38,-1
 1244 70 l 1,0,-1
675 560 m 1,39,40
 621 516 621 516 621 473 c 0,41,42
 621 386 621 386 666 386 c 0,43,44
 709 386 709 386 709 473 c 0,45,46
 709 518 709 518 675 560 c 1,39,40
EndSplineSet
EndChar

StartChar: tm_three
Encoding: 3049 3049 98
Width: 1424
GlyphClass: 2
Flags: W
LayerCount: 2
Fore
SplineSet
1270 70 m 1,0,-1
 1252 0 l 1,1,-1
 640 0 l 1,2,-1
 657 70 l 1,3,-1
 780 70 l 2,4,5
 874 70 874 70 941 130.5 c 128,-1,6
 1008 191 1008 191 1008 280 c 0,7,8
 1008 317 1008 317 982.5 342.5 c 128,-1,9
 957 368 957 368 920 368 c 0,10,11
 890 368 890 368 865 341 c 128,-1,12
 840 314 840 314 833 280 c 2,13,-1
 815 193 l 1,14,-1
 675 193 l 1,15,-1
 764 630 l 1,16,-1
 571 630 l 1,17,-1
 444 0 l 1,18,-1
 378 0 l 1,19,-1
 517 700 l 1,20,-1
 1095 700 l 1,21,-1
 1077 630 l 1,22,-1
 902 630 l 1,23,-1
 859 403 l 1,24,25
 918 455 918 455 990 455 c 0,26,27
 1057 455 1057 455 1102.5 403.5 c 128,-1,28
 1148 352 1148 352 1148 280 c 0,29,30
 1148 209 1148 209 1090 151 c 128,-1,31
 1032 93 1032 93 947 70 c 1,32,-1
 1270 70 l 1,0,-1
EndSplineSet
EndChar

StartChar: tm_four
Encoding: 3050 3050 99
Width: 1427
GlyphClass: 2
Flags: W
LayerCount: 2
Fore
SplineSet
915 316 m 1,0,-1
 644 316 l 2,1,2
 601 316 601 316 570.5 291 c 128,-1,3
 540 266 540 266 540 228 c 0,4,5
 540 158 540 158 609.5 114 c 128,-1,6
 679 70 679 70 766 70 c 0,7,8
 811 70 811 70 844 99.5 c 128,-1,9
 877 129 877 129 887 175 c 2,10,-1
 915 316 l 1,0,-1
979 630 m 1,11,-1
 784 630 l 1,12,-1
 735 386 l 1,13,-1
 930 386 l 1,14,-1
 979 630 l 1,11,-1
1042 245 m 2,15,16
 1017 125 1017 125 940 62.5 c 128,-1,17
 863 0 863 0 766 0 c 0,18,19
 651 0 651 0 559.5 64 c 128,-1,20
 468 128 468 128 468 228 c 0,21,22
 468 294 468 294 520.5 340 c 128,-1,23
 573 386 573 386 644 386 c 2,24,-1
 669 386 l 1,25,-1
 731 700 l 1,26,-1
 1344 700 l 1,27,-1
 1329 630 l 1,28,-1
 1118 630 l 1,29,-1
 1068 386 l 1,30,-1
 1232 386 l 1,31,-1
 1248 464 l 1,32,-1
 1309 464 l 1,33,-1
 1279 316 l 1,34,-1
 1055 316 l 1,35,-1
 1042 245 l 2,15,16
EndSplineSet
EndChar

StartChar: tm_five
Encoding: 3051 3051 100
Width: 1424
GlyphClass: 2
Flags: W
LayerCount: 2
Fore
SplineSet
1412 517 m 1,0,-1
 1359 526 l 1,1,2
 1369 563 1369 563 1369 598 c 0,3,4
 1369 723 1369 723 1253.5 825.5 c 128,-1,5
 1138 928 1138 928 965 928 c 0,6,7
 728 928 728 928 575.5 716 c 128,-1,8
 423 504 423 504 423 228 c 0,9,10
 423 -43 423 -43 515 -179.5 c 128,-1,11
 607 -316 607 -316 790 -316 c 0,12,13
 979 -316 979 -316 1103.5 -163.5 c 128,-1,14
 1228 -11 1228 -11 1228 193 c 0,15,16
 1228 257 1228 257 1200 304.5 c 128,-1,17
 1172 352 1172 352 1126 352 c 0,18,19
 1099 352 1099 352 1072.5 336.5 c 128,-1,20
 1046 321 1046 321 1039 298 c 2,21,-1
 980 0 l 1,22,-1
 840 0 l 1,23,-1
 965 630 l 1,24,-1
 759 630 l 1,25,-1
 634 0 l 1,26,-1
 566 0 l 1,27,-1
 706 700 l 1,28,-1
 1237 700 l 1,29,-1
 1219 630 l 1,30,-1
 1105 630 l 1,31,-1
 1057 386 l 1,32,33
 1101 437 1101 437 1171 437 c 0,34,35
 1261 437 1261 437 1314.5 368.5 c 128,-1,36
 1368 300 1368 300 1368 193 c 0,37,38
 1368 -47 1368 -47 1202.5 -216 c 128,-1,39
 1037 -385 1037 -385 799 -385 c 0,40,41
 589 -385 589 -385 471.5 -223 c 128,-1,42
 354 -61 354 -61 354 193 c 0,43,44
 354 513 354 513 519 764 c 128,-1,45
 684 1015 684 1015 948 1015 c 0,46,47
 1152 1015 1152 1015 1288.5 889.5 c 128,-1,48
 1425 764 1425 764 1425 613 c 0,49,50
 1425 566 1425 566 1412 517 c 1,0,-1
EndSplineSet
EndChar

StartChar: tm_six
Encoding: 3052 3052 101
Width: 1424
GlyphClass: 2
Flags: W
LayerCount: 2
Fore
SplineSet
784 316 m 1,0,-1
 513 316 l 2,1,2
 469 316 469 316 438 291 c 128,-1,3
 407 266 407 266 407 228 c 0,4,5
 407 158 407 158 477 114 c 128,-1,6
 547 70 547 70 635 70 c 0,7,8
 680 70 680 70 713 99.5 c 128,-1,9
 746 129 746 129 756 175 c 2,10,-1
 784 316 l 1,0,-1
846 630 m 1,11,-1
 653 630 l 1,12,-1
 603 386 l 1,13,-1
 798 386 l 1,14,-1
 846 630 l 1,11,-1
910 245 m 2,15,16
 884 125 884 125 808 62.5 c 128,-1,17
 732 0 732 0 635 0 c 0,18,19
 518 0 518 0 428 64 c 128,-1,20
 338 128 338 128 338 228 c 0,21,22
 338 294 338 294 389.5 340 c 128,-1,23
 441 386 441 386 513 386 c 2,24,-1
 537 386 l 1,25,-1
 600 700 l 1,26,-1
 1229 700 l 1,27,-1
 1213 630 l 1,28,-1
 988 630 l 1,29,-1
 938 386 l 1,30,-1
 1422 386 l 1,31,-1
 1410 316 l 1,32,-1
 1353 316 l 1,33,-1
 1291 0 l 1,34,-1
 1151 0 l 1,35,-1
 1213 316 l 1,36,-1
 1116 316 l 1,37,-1
 1055 0 l 1,38,-1
 967 0 l 1,39,-1
 1028 316 l 1,40,-1
 924 316 l 1,41,-1
 910 245 l 2,15,16
EndSplineSet
EndChar

StartChar: tm_seven
Encoding: 3053 3053 102
Width: 1425
GlyphClass: 2
Flags: W
LayerCount: 2
Fore
SplineSet
643 88 m 1,0,1
 706 88 706 88 753 128 c 128,-1,2
 800 168 800 168 800 228 c 0,3,4
 800 269 800 269 781 301 c 128,-1,5
 762 333 762 333 729 333 c 0,6,7
 684 333 684 333 654.5 296.5 c 128,-1,8
 625 260 625 260 625 210 c 0,9,10
 625 135 625 135 643 88 c 1,0,1
1042 0 m 1,11,-1
 1167 630 l 1,12,-1
 852 630 l 2,13,14
 704 630 704 630 594.5 540.5 c 128,-1,15
 485 451 485 451 485 316 c 0,16,17
 485 247 485 247 507 194.5 c 128,-1,18
 529 142 529 142 572 106 c 1,19,20
 555 135 555 135 555 228 c 256,21,22
 555 321 555 321 614.5 388 c 128,-1,23
 674 455 674 455 765 455 c 0,24,25
 837 455 837 455 884 398 c 128,-1,26
 931 341 931 341 931 263 c 0,27,28
 931 155 931 155 863 77.5 c 128,-1,29
 795 0 795 0 695 0 c 0,30,31
 576 0 576 0 495.5 94 c 128,-1,32
 415 188 415 188 415 316 c 0,33,34
 415 481 415 481 545.5 590.5 c 128,-1,35
 676 700 676 700 852 700 c 2,36,-1
 1430 700 l 1,37,-1
 1412 630 l 1,38,-1
 1307 630 l 1,39,-1
 1181 0 l 1,40,-1
 1042 0 l 1,11,-1
EndSplineSet
EndChar

StartChar: tm_eight
Encoding: 3054 3054 103
Width: 1427
GlyphClass: 2
Flags: W
LayerCount: 2
Fore
SplineSet
849 629 m 1,0,1
 745 611 745 611 670 548.5 c 128,-1,2
 595 486 595 486 595 402 c 0,3,4
 595 338 595 338 638.5 291 c 128,-1,5
 682 244 682 244 744 244 c 0,6,7
 817 244 817 244 864 307.5 c 128,-1,8
 911 371 911 371 911 454 c 0,9,10
 911 580 911 580 849 629 c 1,0,1
1024 140 m 1,11,-1
 411 140 l 2,12,13
 381 140 381 140 357 125 c 128,-1,14
 333 110 333 110 333 87 c 0,15,16
 333 43 333 43 412 -13.5 c 128,-1,17
 491 -70 491 -70 639 -70 c 0,18,19
 743 -70 743 -70 839.5 -18 c 128,-1,20
 936 34 936 34 1024 140 c 1,11,-1
1414 -245 m 1,21,-1
 1269 -245 l 1,22,-1
 1348 140 l 1,23,-1
 1164 140 l 1,24,25
 1051 4 1051 4 915 -63.5 c 128,-1,26
 779 -131 779 -131 621 -131 c 0,27,28
 421 -131 421 -131 311.5 -52.5 c 128,-1,29
 202 26 202 26 202 123 c 0,30,31
 202 160 202 160 233 184.5 c 128,-1,32
 264 209 264 209 307 209 c 2,33,-1
 666 209 l 1,34,35
 604 231 604 231 565 284.5 c 128,-1,36
 526 338 526 338 526 402 c 0,37,38
 526 534 526 534 652 617 c 128,-1,39
 778 700 778 700 937 700 c 0,40,41
 1069 700 1069 700 1169 620.5 c 128,-1,42
 1269 541 1269 541 1269 420 c 0,43,44
 1269 306 1269 306 1213 209 c 1,45,-1
 1364 209 l 1,46,-1
 1463 700 l 1,47,-1
 1603 700 l 1,48,-1
 1414 -245 l 1,21,-1
989 620 m 1,49,50
 1042 530 1042 530 1042 411 c 0,51,52
 1042 267 1042 267 919 209 c 1,53,-1
 1077 209 l 1,54,55
 1146 308 1146 308 1146 402 c 0,56,57
 1146 486 1146 486 1103 553 c 128,-1,58
 1060 620 1060 620 989 620 c 1,49,50
EndSplineSet
EndChar

StartChar: tm_nine
Encoding: 3055 3055 104
Width: 1427
GlyphClass: 2
Flags: W
LayerCount: 2
Fore
SplineSet
692 316 m 1,0,-1
 422 316 l 2,1,2
 379 316 379 316 348 291 c 128,-1,3
 317 266 317 266 317 228 c 0,4,5
 317 158 317 158 387 114 c 128,-1,6
 457 70 457 70 544 70 c 0,7,8
 589 70 589 70 622 99.5 c 128,-1,9
 655 129 655 129 665 175 c 2,10,-1
 692 316 l 1,0,-1
756 630 m 1,11,-1
 562 630 l 1,12,-1
 513 386 l 1,13,-1
 707 386 l 1,14,-1
 756 630 l 1,11,-1
1157 175 m 0,15,16
 1157 259 1157 259 1052 298 c 1,17,18
 982 240 982 240 982 158 c 0,19,20
 982 121 982 121 1007.5 95.5 c 128,-1,21
 1033 70 1033 70 1068 70 c 0,22,23
 1107 70 1107 70 1132 101.5 c 128,-1,24
 1157 133 1157 133 1157 175 c 0,15,16
1297 0 m 1,25,26
 1375 93 1375 93 1375 193 c 0,27,28
 1375 263 1375 263 1332.5 315.5 c 128,-1,29
 1290 368 1290 368 1226 368 c 0,30,31
 1163 368 1163 368 1113 342 c 1,32,33
 1167 322 1167 322 1201 276.5 c 128,-1,34
 1235 231 1235 231 1235 175 c 0,35,36
 1235 104 1235 104 1187 52 c 128,-1,37
 1139 0 1139 0 1068 0 c 0,38,39
 1005 0 1005 0 958.5 46.5 c 128,-1,40
 912 93 912 93 912 158 c 0,41,42
 912 257 912 257 982 316 c 1,43,-1
 833 316 l 1,44,-1
 819 245 l 2,45,46
 795 125 795 125 718.5 62.5 c 128,-1,47
 642 0 642 0 544 0 c 0,48,49
 428 0 428 0 337 64 c 128,-1,50
 246 128 246 128 246 228 c 0,51,52
 246 294 246 294 299 340 c 128,-1,53
 352 386 352 386 422 386 c 2,54,-1
 446 386 l 1,55,-1
 508 700 l 1,56,-1
 1122 700 l 1,57,-1
 1104 630 l 1,58,-1
 896 630 l 1,59,-1
 847 386 l 1,60,-1
 947 386 l 2,61,62
 1014 386 1014 386 1052 368 c 1,63,64
 1111 420 1111 420 1226 420 c 0,65,66
 1327 420 1327 420 1399.5 354.5 c 128,-1,67
 1472 289 1472 289 1472 193 c 0,68,69
 1472 109 1472 109 1410 0 c 1,70,-1
 1297 0 l 1,25,26
EndSplineSet
EndChar

StartChar: tm_ten
Encoding: 3056 3056 105
Width: 1260
GlyphClass: 2
Flags: W
LayerCount: 2
Fore
SplineSet
597 149 m 1,0,1
 558 74 558 74 508 37 c 128,-1,2
 458 0 458 0 395 0 c 0,3,4
 302 0 302 0 242 64 c 128,-1,5
 182 128 182 128 182 200 c 0,6,7
 182 224 182 224 186 244 c 2,8,-1
 279 700 l 1,9,-1
 419 700 l 1,10,-1
 325 244 l 2,11,12
 320 223 320 223 320 205 c 0,13,14
 320 155 320 155 346.5 112.5 c 128,-1,15
 373 70 373 70 413 70 c 0,16,17
 472 70 472 70 525 146 c 128,-1,18
 578 222 578 222 606 359 c 2,19,-1
 675 700 l 1,20,-1
 815 700 l 1,21,-1
 746 351 l 2,22,23
 728 262 728 262 728 204 c 0,24,25
 728 150 728 150 760.5 110 c 128,-1,26
 793 70 793 70 841 70 c 0,27,28
 957 70 957 70 1026 204 c 128,-1,29
 1095 338 1095 338 1095 500 c 0,30,31
 1095 691 1095 691 995.5 840 c 128,-1,32
 896 989 896 989 737 989 c 1,33,-1
 755 1042 l 1,34,35
 960 1042 960 1042 1097.5 880.5 c 128,-1,36
 1235 719 1235 719 1235 500 c 0,37,38
 1235 300 1235 300 1118.5 150 c 128,-1,39
 1002 0 1002 0 824 0 c 0,40,41
 739 0 739 0 673.5 40.5 c 128,-1,42
 608 81 608 81 597 149 c 1,0,1
EndSplineSet
EndChar

StartChar: tm_hundred
Encoding: 3057 3057 106
Width: 1166
GlyphClass: 2
Flags: W
LayerCount: 2
Fore
SplineSet
1284 700 m 1,0,-1
 1267 629 l 1,1,-1
 1117 629 l 1,2,-1
 991 0 l 1,3,-1
 851 0 l 1,4,-1
 977 629 l 1,5,-1
 770 629 l 1,6,-1
 644 0 l 1,7,-1
 504 0 l 1,8,-1
 599 472 l 2,9,10
 606 507 606 507 606 534 c 0,11,12
 606 579 606 579 589 613 c 128,-1,13
 572 647 572 647 540 647 c 0,14,15
 483 647 483 647 440 595.5 c 128,-1,16
 397 544 397 544 382 472 c 2,17,-1
 285 0 l 1,18,-1
 146 0 l 1,19,-1
 242 472 l 2,20,21
 263 577 263 577 336.5 647 c 128,-1,22
 410 717 410 717 503 717 c 0,23,24
 567 717 567 717 614 679.5 c 128,-1,25
 661 642 661 642 661 585 c 1,26,-1
 685 700 l 1,27,-1
 1284 700 l 1,0,-1
EndSplineSet
EndChar

StartChar: tm_thousand
Encoding: 3058 3058 107
Width: 1256
GlyphClass: 2
Flags: W
LayerCount: 2
Fore
SplineSet
551 316 m 1,0,-1
 280 316 l 2,1,2
 237 316 237 316 206 291 c 128,-1,3
 175 266 175 266 175 228 c 0,4,5
 175 158 175 158 245.5 114 c 128,-1,6
 316 70 316 70 402 70 c 0,7,8
 447 70 447 70 480 99.5 c 128,-1,9
 513 129 513 129 523 175 c 2,10,-1
 551 316 l 1,0,-1
615 630 m 1,11,-1
 420 630 l 1,12,-1
 371 386 l 1,13,-1
 565 386 l 1,14,-1
 615 630 l 1,11,-1
677 245 m 2,15,16
 653 125 653 125 576 62.5 c 128,-1,17
 499 0 499 0 402 0 c 0,18,19
 285 0 285 0 195 64 c 128,-1,20
 105 128 105 128 105 228 c 0,21,22
 105 294 105 294 156.5 340 c 128,-1,23
 208 386 208 386 280 386 c 2,24,-1
 304 386 l 1,25,-1
 367 700 l 1,26,-1
 997 700 l 1,27,-1
 983 630 l 1,28,-1
 755 630 l 1,29,-1
 705 386 l 1,30,-1
 1120 386 l 1,31,-1
 1105 316 l 1,32,-1
 971 316 l 1,33,-1
 945 175 l 1,34,35
 990 228 990 228 1067 228 c 0,36,37
 1134 228 1134 228 1179.5 176 c 128,-1,38
 1225 124 1225 124 1225 53 c 0,39,40
 1225 -78 1225 -78 1108 -161 c 128,-1,41
 991 -244 991 -244 840 -244 c 0,42,43
 740 -244 740 -244 542 -205 c 0,44,45
 346 -167 346 -167 244 -167 c 0,46,47
 181 -167 181 -167 134 -206.5 c 128,-1,48
 87 -246 87 -246 87 -307 c 0,49,50
 87 -384 87 -384 158 -411 c 1,51,-1
 149 -445 l 1,52,53
 82 -433 82 -433 36.5 -387 c 128,-1,54
 -9 -341 -9 -341 -9 -280 c 0,55,56
 -9 -205 -9 -205 70.5 -159.5 c 128,-1,57
 150 -114 150 -114 244 -114 c 0,58,59
 346 -114 346 -114 542 -153 c 0,60,61
 740 -192 740 -192 840 -192 c 0,62,63
 938 -192 938 -192 1011.5 -135 c 128,-1,64
 1085 -78 1085 -78 1085 9 c 0,65,66
 1085 61 1085 61 1061 100.5 c 128,-1,67
 1037 140 1037 140 997 140 c 256,68,69
 957 140 957 140 927 88 c 1,70,-1
 910 0 l 1,71,-1
 769 0 l 1,72,-1
 831 316 l 1,73,-1
 691 316 l 1,74,-1
 677 245 l 2,15,16
EndSplineSet
EndChar

StartChar: zerowidthnonjoiner
Encoding: 8204 8204 108
Width: 0
GlyphClass: 2
Flags: W
LayerCount: 2
Fore
SplineSet
315 1225 m 1,0,-1
 -34 -516 l 1,1,-1
 -103 -516 l 1,2,-1
 244 1225 l 1,3,-1
 315 1225 l 1,0,-1
EndSplineSet
EndChar

StartChar: zerowidthjoiner
Encoding: 8205 8205 109
Width: 0
GlyphClass: 2
Flags: W
LayerCount: 2
Fore
SplineSet
415 997 m 1,0,-1
 363 953 l 1,1,-1
 270 1073 l 1,2,-1
 -24 -441 l 1,3,-1
 -87 -441 l 1,4,-1
 206 1073 l 1,5,-1
 65 953 l 1,6,-1
 32 997 l 1,7,-1
 210 1145 l 1,8,-1
 89 1292 l 1,9,-1
 140 1334 l 1,10,-1
 260 1185 l 1,11,-1
 437 1334 l 1,12,-1
 472 1292 l 1,13,-1
 294 1145 l 1,14,-1
 415 997 l 1,0,-1
EndSplineSet
EndChar

StartChar: u2013
Encoding: 8211 8211 110
Width: 722
GlyphClass: 2
Flags: W
LayerCount: 2
Fore
SplineSet
733 319 m 1,0,-1
 -12 319 l 1,1,-1
 -12 370 l 1,2,-1
 733 370 l 1,3,-1
 733 319 l 1,0,-1
EndSplineSet
EndChar

StartChar: u2014
Encoding: 8212 8212 111
Width: 1284
GlyphClass: 2
Flags: W
LayerCount: 2
Fore
SplineSet
1296 318 m 1,0,-1
 -13 319 l 1,1,-1
 -13 371 l 1,2,-1
 1296 370 l 1,3,-1
 1296 318 l 1,0,-1
EndSplineSet
EndChar

StartChar: u2018
Encoding: 8216 8216 112
Width: 172
GlyphClass: 2
Flags: W
LayerCount: 2
Fore
SplineSet
142 726 m 0,0,1
 142 682 142 682 94 682 c 0,2,3
 30 682 30 682 30 756 c 0,4,5
 30 840 30 840 118 880 c 1,6,-1
 128 864 l 1,7,8
 92 844 92 844 76 816 c 0,9,10
 62 796 62 796 62 776 c 0,11,12
 62 768 62 768 64 768 c 2,13,-1
 98 768 l 2,14,15
 114 768 114 768 128 758 c 128,-1,16
 142 748 142 748 142 726 c 0,0,1
EndSplineSet
EndChar

StartChar: u2019
Encoding: 8217 8217 113
Width: 172
GlyphClass: 2
Flags: W
LayerCount: 2
Fore
SplineSet
142 800 m 0,0,1
 142 716 142 716 54 676 c 1,2,-1
 44 692 l 1,3,4
 80 712 80 712 96 740 c 0,5,6
 110 760 110 760 110 780 c 0,7,8
 110 788 110 788 108 788 c 2,9,-1
 74 788 l 2,10,11
 58 788 58 788 44 798 c 128,-1,12
 30 808 30 808 30 830 c 0,13,14
 30 874 30 874 78 874 c 0,15,16
 142 874 142 874 142 800 c 0,0,1
EndSplineSet
EndChar

StartChar: u201C
Encoding: 8220 8220 114
Width: 307
GlyphClass: 2
Flags: W
LayerCount: 2
Fore
SplineSet
142 726 m 0,0,1
 142 682 142 682 94 682 c 0,2,3
 30 682 30 682 30 756 c 0,4,5
 30 840 30 840 118 880 c 1,6,-1
 128 864 l 1,7,8
 92 844 92 844 76 816 c 0,9,10
 62 796 62 796 62 776 c 0,11,12
 62 768 62 768 64 768 c 2,13,-1
 98 768 l 2,14,15
 114 768 114 768 128 758 c 128,-1,16
 142 748 142 748 142 726 c 0,0,1
272 726 m 0,17,18
 272 682 272 682 224 682 c 0,19,20
 160 682 160 682 160 756 c 0,21,22
 160 840 160 840 248 880 c 1,23,-1
 258 864 l 1,24,25
 222 844 222 844 206 816 c 0,26,27
 192 796 192 796 192 776 c 0,28,29
 192 768 192 768 194 768 c 2,30,-1
 228 768 l 2,31,32
 244 768 244 768 258 758 c 128,-1,33
 272 748 272 748 272 726 c 0,17,18
EndSplineSet
EndChar

StartChar: u201D
Encoding: 8221 8221 115
Width: 358
GlyphClass: 2
Flags: W
LayerCount: 2
Fore
SplineSet
192 800 m 0,0,1
 192 716 192 716 104 676 c 1,2,-1
 94 692 l 1,3,4
 130 712 130 712 146 740 c 0,5,6
 160 760 160 760 160 780 c 0,7,8
 160 788 160 788 158 788 c 2,9,-1
 124 788 l 2,10,11
 108 788 108 788 94 798 c 128,-1,12
 80 808 80 808 80 830 c 0,13,14
 80 874 80 874 128 874 c 0,15,16
 192 874 192 874 192 800 c 0,0,1
322 800 m 0,17,18
 322 716 322 716 234 676 c 1,19,-1
 224 692 l 1,20,21
 260 712 260 712 276 740 c 0,22,23
 290 760 290 760 290 780 c 0,24,25
 290 788 290 788 288 788 c 2,26,-1
 254 788 l 2,27,28
 238 788 238 788 224 798 c 128,-1,29
 210 808 210 808 210 830 c 0,30,31
 210 874 210 874 258 874 c 0,32,33
 322 874 322 874 322 800 c 0,17,18
EndSplineSet
EndChar

StartChar: u2026
Encoding: 8230 8230 116
Width: 1283
GlyphClass: 2
Flags: W
LayerCount: 2
Fore
SplineSet
265 136 m 0,0,1
 298 136 298 136 320.5 114 c 128,-1,2
 343 92 343 92 343 58 c 0,3,4
 343 26 343 26 320.5 3 c 128,-1,5
 298 -20 298 -20 265 -20 c 0,6,7
 233 -20 233 -20 210 3 c 128,-1,8
 187 26 187 26 187 58 c 0,9,10
 187 92 187 92 210 114 c 128,-1,11
 233 136 233 136 265 136 c 0,0,1
638 136 m 256,12,13
 670 136 670 136 693 114 c 128,-1,14
 716 92 716 92 716 58 c 0,15,16
 716 26 716 26 692.5 3 c 128,-1,17
 669 -20 669 -20 638 -20 c 0,18,19
 606 -20 606 -20 583 3 c 128,-1,20
 560 26 560 26 560 58 c 0,21,22
 560 92 560 92 583 114 c 128,-1,23
 606 136 606 136 638 136 c 256,12,13
1010 136 m 0,24,25
 1043 136 1043 136 1066 114 c 128,-1,26
 1089 92 1089 92 1089 58 c 0,27,28
 1089 26 1089 26 1065.5 3 c 128,-1,29
 1042 -20 1042 -20 1010 -20 c 256,30,31
 978 -20 978 -20 955.5 3 c 128,-1,32
 933 26 933 26 933 58 c 0,33,34
 933 92 933 92 955.5 114 c 128,-1,35
 978 136 978 136 1010 136 c 0,24,25
EndSplineSet
EndChar

StartChar: u2212
Encoding: 8722 8722 117
Width: 974
GlyphClass: 2
Flags: W
LayerCount: 2
Fore
SplineSet
133 450 m 1,0,-1
 133 508 l 1,1,-1
 894 508 l 1,2,-1
 894 450 l 1,3,-1
 133 450 l 1,0,-1
EndSplineSet
EndChar

StartChar: u25CC
Encoding: 9676 9676 118
Width: 1167
GlyphClass: 2
Flags: W
LayerCount: 2
Fore
SplineSet
654 665 m 0,0,1
 626 665 626 665 612 679 c 128,-1,2
 598 693 598 693 598 724 c 0,3,4
 598 746 598 746 615 762.5 c 128,-1,5
 632 779 632 779 654 779 c 0,6,7
 683 779 683 779 697.5 765 c 128,-1,8
 712 751 712 751 712 724 c 0,9,10
 712 693 712 693 697.5 679 c 128,-1,11
 683 665 683 665 654 665 c 0,0,1
840 616 m 0,12,13
 811 616 811 616 796.5 630.5 c 128,-1,14
 782 645 782 645 782 674 c 0,15,16
 782 701 782 701 796.5 715 c 128,-1,17
 811 729 811 729 840 729 c 0,18,19
 862 729 862 729 879 713 c 128,-1,20
 896 697 896 697 896 674 c 0,21,22
 896 645 896 645 882 630.5 c 128,-1,23
 868 616 868 616 840 616 c 0,12,13
470 616 m 0,24,25
 442 616 442 616 428 630.5 c 128,-1,26
 414 645 414 645 414 674 c 0,27,28
 414 697 414 697 431 713 c 128,-1,29
 448 729 448 729 470 729 c 0,30,31
 494 729 494 729 510 713 c 128,-1,32
 526 697 526 697 526 674 c 0,33,34
 526 645 526 645 512.5 630.5 c 128,-1,35
 499 616 499 616 470 616 c 0,24,25
973 482 m 0,36,37
 951 482 951 482 933.5 498 c 128,-1,38
 916 514 916 514 916 538 c 0,39,40
 916 567 916 567 930.5 581 c 128,-1,41
 945 595 945 595 973 595 c 256,42,43
 1001 595 1001 595 1014.5 581 c 128,-1,44
 1028 567 1028 567 1028 538 c 0,45,46
 1028 514 1028 514 1012 498 c 128,-1,47
 996 482 996 482 973 482 c 0,36,37
336 482 m 0,48,49
 307 482 307 482 293 495.5 c 128,-1,50
 279 509 279 509 279 538 c 256,51,52
 279 567 279 567 293 581 c 128,-1,53
 307 595 307 595 336 595 c 0,54,55
 364 595 364 595 378 581 c 128,-1,56
 392 567 392 567 392 538 c 0,57,58
 392 514 392 514 375 498 c 128,-1,59
 358 482 358 482 336 482 c 0,48,49
1024 298 m 0,60,61
 994 298 994 298 979.5 311.5 c 128,-1,62
 965 325 965 325 965 354 c 0,63,64
 965 382 965 382 979.5 396 c 128,-1,65
 994 410 994 410 1024 410 c 0,66,67
 1046 410 1046 410 1063 393 c 128,-1,68
 1080 376 1080 376 1080 354 c 0,69,70
 1080 331 1080 331 1063 314.5 c 128,-1,71
 1046 298 1046 298 1024 298 c 0,60,61
287 298 m 0,72,73
 257 298 257 298 243 311.5 c 128,-1,74
 229 325 229 325 229 354 c 0,75,76
 229 382 229 382 243 396 c 128,-1,77
 257 410 257 410 287 410 c 0,78,79
 310 410 310 410 326.5 393 c 128,-1,80
 343 376 343 376 343 354 c 0,81,82
 343 331 343 331 326.5 314.5 c 128,-1,83
 310 298 310 298 287 298 c 0,72,73
973 112 m 256,84,85
 945 112 945 112 930.5 126.5 c 128,-1,86
 916 141 916 141 916 169 c 0,87,88
 916 193 916 193 933.5 209.5 c 128,-1,89
 951 226 951 226 973 226 c 0,90,91
 996 226 996 226 1012 209.5 c 128,-1,92
 1028 193 1028 193 1028 169 c 0,93,94
 1028 141 1028 141 1014.5 126.5 c 128,-1,95
 1001 112 1001 112 973 112 c 256,84,85
336 112 m 0,96,97
 307 112 307 112 293 126.5 c 128,-1,98
 279 141 279 141 279 169 c 0,99,100
 279 198 279 198 293 212 c 128,-1,101
 307 226 307 226 336 226 c 0,102,103
 358 226 358 226 375 209.5 c 128,-1,104
 392 193 392 193 392 169 c 0,105,106
 392 141 392 141 378 126.5 c 128,-1,107
 364 112 364 112 336 112 c 0,96,97
840 -22 m 0,108,109
 811 -22 811 -22 796.5 -8 c 128,-1,110
 782 6 782 6 782 34 c 0,111,112
 782 63 782 63 796.5 78 c 128,-1,113
 811 93 811 93 840 93 c 0,114,115
 863 93 863 93 879.5 75 c 128,-1,116
 896 57 896 57 896 34 c 256,117,118
 896 11 896 11 879 -5.5 c 128,-1,119
 862 -22 862 -22 840 -22 c 0,108,109
470 -22 m 0,120,121
 448 -22 448 -22 431 -5.5 c 128,-1,122
 414 11 414 11 414 34 c 256,123,124
 414 57 414 57 430.5 75 c 128,-1,125
 447 93 447 93 470 93 c 0,126,127
 495 93 495 93 510.5 75 c 128,-1,128
 526 57 526 57 526 34 c 256,129,130
 526 11 526 11 510 -5.5 c 128,-1,131
 494 -22 494 -22 470 -22 c 0,120,121
654 -72 m 0,132,133
 632 -72 632 -72 615 -55 c 128,-1,134
 598 -38 598 -38 598 -16 c 0,135,136
 598 14 598 14 612 28.5 c 128,-1,137
 626 43 626 43 654 43 c 0,138,139
 683 43 683 43 697.5 28.5 c 128,-1,140
 712 14 712 14 712 -16 c 0,141,142
 712 -44 712 -44 697.5 -58 c 128,-1,143
 683 -72 683 -72 654 -72 c 0,132,133
EndSplineSet
EndChar

StartChar: tm_k_ikaar
Encoding: 65539 -1 119
Width: 1314
GlyphClass: 2
Flags: W
LayerCount: 2
Fore
SplineSet
1244 82 m 1,0,-1
 1184 82 l 1,1,-1
 1184 706 l 2,2,3
 1184 834 1184 834 1178 870 c 0,4,5
 1160 966 1160 966 1086 1016 c 0,6,7
 992 1080 992 1080 800 1080 c 0,8,9
 508 1080 508 1080 508 898 c 0,10,11
 508 858 508 858 530 824 c 0,12,13
 566 768 566 768 646 768 c 2,14,-1
 898 768 l 1,15,-1
 898 702 l 1,16,-1
 650 702 l 1,17,-1
 650 516 l 1,18,-1
 802 516 l 2,19,20
 932 516 932 516 1008 442 c 0,21,22
 1072 376 1072 376 1072 288 c 0,23,24
 1072 112 1072 112 940 38 c 0,25,26
 866 -2 866 -2 776 -2 c 0,27,28
 632 -2 632 -2 560 88 c 1,29,30
 484 -4 484 -4 366 -4 c 0,31,32
 222 -4 222 -4 146 76 c 0,33,34
 78 146 78 146 78 262 c 0,35,36
 78 362 78 362 132 432 c 0,37,38
 192 512 192 512 296 516 c 1,39,-1
 296 768 l 1,40,-1
 508 768 l 1,41,42
 488 774 488 774 463 813 c 128,-1,43
 438 852 438 852 438 890 c 0,44,45
 438 1146 438 1146 800 1146 c 0,46,47
 1112 1146 1112 1146 1202 984 c 0,48,49
 1244 910 1244 910 1244 716 c 2,50,-1
 1244 82 l 1,0,-1
584 516 m 1,51,-1
 584 702 l 1,52,-1
 362 702 l 1,53,-1
 362 516 l 1,54,-1
 584 516 l 1,51,-1
1002 276 m 0,55,56
 1002 368 1002 368 926 414 c 0,57,58
 872 448 872 448 802 448 c 2,59,-1
 652 448 l 1,60,-1
 652 374 l 2,61,62
 652 224 652 224 602 138 c 1,63,64
 644 60 644 60 770 60 c 0,65,66
 844 60 844 60 904 94 c 0,67,68
 1002 148 1002 148 1002 276 c 0,55,56
584 384 m 2,69,-1
 584 448 l 1,70,-1
 330 448 l 2,71,72
 226 448 226 448 178 370 c 0,73,74
 146 320 146 320 146 266 c 0,75,76
 146 206 146 206 172 158 c 0,77,78
 220 64 220 64 348 64 c 0,79,80
 468 64 468 64 530 158 c 0,81,82
 584 242 584 242 584 384 c 2,69,-1
EndSplineSet
Ligature2: "'psts' Post Base Substitutions lookup 8 subtable" tm_ka tm_ikaar
EndChar

StartChar: tm_ng_ikaar
Encoding: 65540 -1 120
Width: 1456
GlyphClass: 2
Flags: W
LayerCount: 2
Fore
SplineSet
1388 74 m 1,0,-1
 1328 74 l 1,1,-1
 1328 732 l 2,2,3
 1328 878 1328 878 1306 938 c 0,4,5
 1250 1084 1250 1084 1058 1084 c 0,6,7
 958 1084 958 1084 890 1029 c 128,-1,8
 822 974 822 974 822 886 c 0,9,10
 822 786 822 786 858 738 c 0,11,12
 916 664 916 664 1044 660 c 1,13,-1
 1044 768 l 1,14,-1
 1112 768 l 1,15,-1
 1112 0 l 1,16,-1
 600 0 l 1,17,-1
 600 62 l 1,18,-1
 740 62 l 1,19,20
 802 140 802 140 802 226 c 0,21,22
 802 320 802 320 738 370 c 0,23,24
 688 410 688 410 626 410 c 0,25,26
 488 410 488 410 442 302 c 1,27,-1
 442 -2 l 1,28,-1
 378 -2 l 1,29,-1
 378 700 l 1,30,-1
 150 700 l 1,31,-1
 150 -2 l 1,32,-1
 86 -2 l 1,33,-1
 86 768 l 1,34,-1
 758 768 l 1,35,-1
 758 700 l 1,36,-1
 444 700 l 1,37,-1
 444 406 l 1,38,39
 500 470 500 470 640 470 c 0,40,41
 726 470 726 470 790 410 c 0,42,43
 864 340 864 340 864 228 c 0,44,45
 864 124 864 124 814 62 c 1,46,-1
 1046 62 l 1,47,-1
 1044 64 l 1,48,-1
 1044 596 l 1,49,50
 754 610 754 610 754 882 c 0,51,52
 754 1146 754 1146 1058 1146 c 0,53,54
 1276 1146 1276 1146 1348 1002 c 0,55,56
 1388 924 1388 924 1388 750 c 2,57,-1
 1388 74 l 1,0,-1
EndSplineSet
Ligature2: "'psts' Post Base Substitutions lookup 8 subtable" tm_nga tm_ikaar
EndChar

StartChar: tm_c_ikaar
Encoding: 65541 -1 121
Width: 1142
GlyphClass: 2
Flags: W
LayerCount: 2
Fore
SplineSet
1058 74 m 1,0,-1
 998 74 l 1,1,-1
 998 834 l 2,2,3
 998 948 998 948 966 998 c 0,4,5
 914 1082 914 1082 762 1082 c 0,6,7
 506 1082 506 1082 506 904 c 0,8,9
 506 794 506 794 614 768 c 1,10,-1
 614 768 l 1,11,-1
 908 768 l 1,12,-1
 908 704 l 1,13,-1
 654 704 l 1,14,-1
 654 516 l 1,15,-1
 898 516 l 1,16,-1
 898 448 l 1,17,-1
 654 448 l 1,18,-1
 654 386 l 2,19,20
 654 210 654 210 598 120 c 0,21,22
 522 0 522 0 338 0 c 0,23,24
 214 0 214 0 144 82 c 0,25,26
 84 156 84 156 84 266 c 0,27,28
 84 354 84 354 134 424 c 0,29,30
 194 508 194 508 302 512 c 1,31,-1
 302 768 l 1,32,-1
 508 768 l 1,33,34
 436 798 436 798 436 904 c 0,35,36
 436 1146 436 1146 774 1146 c 0,37,38
 948 1146 948 1146 1014 1050 c 0,39,40
 1058 986 1058 986 1058 862 c 2,41,-1
 1058 74 l 1,0,-1
592 516 m 1,42,-1
 592 702 l 1,43,-1
 368 702 l 1,44,-1
 368 516 l 1,45,-1
 592 516 l 1,42,-1
592 384 m 2,46,-1
 592 448 l 1,47,-1
 322 448 l 2,48,49
 250 448 250 448 200 394 c 128,-1,50
 150 340 150 340 150 266 c 0,51,52
 150 204 150 204 176 154 c 0,53,54
 224 60 224 60 344 60 c 0,55,56
 592 60 592 60 592 384 c 2,46,-1
EndSplineSet
Ligature2: "'psts' Post Base Substitutions lookup 8 subtable" tm_ca tm_ikaar
EndChar

StartChar: tm_j_ikaar
Encoding: 65542 -1 122
Width: 1570
GlyphClass: 2
Flags: W
LayerCount: 2
Fore
SplineSet
1508 68 m 1,0,-1
 1448 68 l 1,1,-1
 1448 760 l 2,2,3
 1448 928 1448 928 1424 978 c 0,4,5
 1376 1076 1376 1076 1202 1076 c 0,6,7
 958 1076 958 1076 958 896 c 0,8,9
 958 838 958 838 1007 796 c 128,-1,10
 1056 754 1056 754 1114 754 c 1,11,12
 1294 708 1294 708 1296 532 c 0,13,14
 1300 256 1300 256 968 204 c 1,15,16
 722 176 722 176 400 136 c 1,17,18
 262 112 262 112 224 90 c 0,19,20
 148 48 148 48 148 -56 c 0,21,22
 148 -210 148 -210 348 -210 c 0,23,24
 432 -210 432 -210 502 -162 c 0,25,26
 564 -118 564 -118 674 12 c 0,27,28
 802 164 802 164 1036 164 c 0,29,30
 1292 164 1292 164 1292 -48 c 0,31,32
 1292 -278 1292 -278 1018 -278 c 0,33,34
 922 -278 922 -278 844 -252 c 0,35,36
 774 -228 774 -228 754 -196 c 1,37,-1
 754 -110 l 1,38,39
 822 -214 822 -214 1014 -214 c 0,40,41
 1110 -214 1110 -214 1162 -170 c 128,-1,42
 1214 -126 1214 -126 1214 -50 c 0,43,44
 1214 98 1214 98 1040 98 c 0,45,46
 828 98 828 98 708 -50 c 0,47,48
 600 -184 600 -184 528 -231 c 128,-1,49
 456 -278 456 -278 348 -278 c 0,50,51
 196 -278 196 -278 126 -200 c 0,52,53
 72 -140 72 -140 72 -54 c 0,54,55
 72 82 72 82 160 136 c 0,56,57
 224 178 224 178 404 202 c 1,58,59
 644 228 644 228 964 268 c 1,60,61
 1130 300 1130 300 1184 388 c 0,62,63
 1214 434 1214 434 1214 528 c 0,64,65
 1214 694 1214 694 1004 694 c 0,66,67
 760 694 760 694 760 436 c 2,68,-1
 760 340 l 1,69,-1
 626 340 l 1,70,-1
 626 446 l 2,71,72
 626 698 626 698 384 698 c 0,73,74
 272 698 272 698 204 644 c 0,75,76
 158 606 158 606 144 558 c 1,77,78
 154 574 154 574 170 588 c 0,79,80
 208 616 208 616 272 618 c 0,81,82
 356 620 356 620 409 571 c 128,-1,83
 462 522 462 522 462 432 c 0,84,85
 462 360 462 360 424 308 c 0,86,87
 376 242 376 242 280 234 c 0,88,89
 198 228 198 228 140 272 c 0,90,91
 64 330 64 330 64 466 c 0,92,93
 64 604 64 604 157 686 c 128,-1,94
 250 768 250 768 390 768 c 0,95,96
 650 768 650 768 696 508 c 1,97,98
 738 732 738 732 962 762 c 1,99,100
 884 788 884 788 884 910 c 0,101,102
 884 1140 884 1140 1202 1140 c 0,103,104
 1408 1140 1408 1140 1470 1034 c 0,105,106
 1508 970 1508 970 1508 790 c 2,107,-1
 1508 68 l 1,0,-1
378 432 m 0,108,109
 378 480 378 480 349 515 c 128,-1,110
 320 550 320 550 264 550 c 256,111,112
 208 550 208 550 176 508 c 0,113,114
 152 474 152 474 152 430 c 0,115,116
 152 368 152 368 188 332 c 0,117,118
 218 304 218 304 250 302 c 0,119,120
 304 298 304 298 341 331 c 128,-1,121
 378 364 378 364 378 432 c 0,108,109
EndSplineSet
Ligature2: "'psts' Post Base Substitutions lookup 8 subtable" tm_ja tm_ikaar
EndChar

StartChar: tm_ny_ikaar
Encoding: 65543 -1 123
Width: 1582
GlyphClass: 2
Flags: W
LayerCount: 2
Fore
SplineSet
1518 74 m 1,0,-1
 1458 74 l 1,1,-1
 1458 834 l 2,2,3
 1458 948 1458 948 1426 998 c 0,4,5
 1374 1082 1374 1082 1222 1082 c 0,6,7
 966 1082 966 1082 966 904 c 0,8,9
 966 794 966 794 1074 768 c 1,10,-1
 1188 768 l 1,11,-1
 1188 700 l 1,12,-1
 1054 700 l 1,13,-1
 1054 348 l 1,14,15
 1092 400 1092 400 1208 400 c 0,16,17
 1294 400 1294 400 1360 332 c 0,18,19
 1444 248 1444 248 1444 92 c 0,20,21
 1444 -160 1444 -160 1266 -284 c 0,22,23
 1110 -394 1110 -394 840 -394 c 0,24,25
 466 -394 466 -394 258 -188 c 0,26,27
 70 0 70 0 74 286 c 0,28,29
 78 536 78 536 222 726 c 1,30,-1
 276 688 l 1,31,32
 148 492 148 492 146 288 c 0,33,34
 144 14 144 14 334 -156 c 0,35,36
 528 -332 528 -332 842 -322 c 0,37,38
 1368 -304 1368 -304 1368 92 c 0,39,40
 1368 206 1368 206 1308 272 c 0,41,42
 1262 324 1262 324 1206 324 c 0,43,44
 1076 324 1076 324 1054 224 c 1,45,-1
 1054 0 l 1,46,-1
 990 0 l 1,47,-1
 990 700 l 1,48,-1
 754 700 l 1,49,50
 558 704 558 704 452 598 c 0,51,52
 364 508 364 508 362 370 c 1,53,54
 426 480 426 480 554 480 c 0,55,56
 656 480 656 480 720 412 c 128,-1,57
 784 344 784 344 784 250 c 0,58,59
 784 160 784 160 734 92 c 0,60,61
 668 6 668 6 538 0 c 0,62,63
 462 -4 462 -4 392 60 c 0,64,65
 290 154 290 154 290 350 c 0,66,67
 290 550 290 550 426 664 c 0,68,69
 552 768 552 768 758 768 c 2,70,-1
 968 768 l 1,71,72
 896 798 896 798 896 904 c 0,73,74
 896 1146 896 1146 1234 1146 c 0,75,76
 1408 1146 1408 1146 1474 1050 c 0,77,78
 1518 986 1518 986 1518 862 c 2,79,-1
 1518 74 l 1,0,-1
702 248 m 0,80,81
 702 316 702 316 660 361 c 128,-1,82
 618 406 618 406 552 406 c 0,83,84
 478 406 478 406 435 353 c 128,-1,85
 392 300 392 300 392 232 c 256,86,87
 392 164 392 164 444 116 c 0,88,89
 488 72 488 72 536 72 c 0,90,91
 604 72 604 72 653 118 c 128,-1,92
 702 164 702 164 702 248 c 0,80,81
EndSplineSet
Ligature2: "'psts' Post Base Substitutions lookup 8 subtable" tm_nya tm_ikaar
EndChar

StartChar: tm_tt_ikaar
Encoding: 65544 -1 124
Width: 1046
GlyphClass: 2
Flags: W
LayerCount: 2
Fore
SplineSet
962 0 m 1,0,-1
 716 0 l 1,1,-1
 628 -208 l 1,2,-1
 548 -208 l 1,3,-1
 638 0 l 1,4,-1
 60 0 l 1,5,-1
 60 768 l 1,6,-1
 126 768 l 1,7,-1
 126 64 l 1,8,-1
 548 64 l 1,9,10
 504 86 504 86 454 174 c 0,11,12
 386 294 386 294 380 442 c 0,13,14
 368 766 368 766 672 766 c 0,15,16
 752 766 752 766 812 714 c 0,17,18
 888 650 888 650 888 528 c 0,19,20
 888 422 888 422 830 282 c 2,21,-1
 740 64 l 1,22,-1
 962 64 l 1,23,-1
 962 0 l 1,0,-1
806 472 m 0,24,25
 820 686 820 686 666 694 c 0,26,27
 562 700 562 700 508 636 c 128,-1,28
 454 572 454 572 456 448 c 256,29,30
 458 324 458 324 521 210 c 128,-1,31
 584 96 584 96 662 68 c 1,32,33
 702 166 702 166 732 244 c 0,34,35
 804 428 804 428 806 472 c 0,24,25
EndSplineSet
Ligature2: "'psts' Post Base Substitutions lookup 8 subtable" tm_tta tm_ikaar
EndChar

StartChar: tm_nn_ikaar
Encoding: 65545 -1 125
Width: 2186
GlyphClass: 2
Flags: W
LayerCount: 2
Fore
SplineSet
2106 74 m 1,0,-1
 2046 74 l 1,1,-1
 2046 830 l 2,2,3
 2046 946 2046 946 2016 994 c 0,4,5
 1962 1082 1962 1082 1796 1082 c 0,6,7
 1556 1082 1556 1082 1556 910 c 0,8,9
 1556 788 1556 788 1666 768 c 1,10,-1
 1854 768 l 1,11,-1
 1854 702 l 1,12,-1
 1724 702 l 1,13,-1
 1724 0 l 1,14,-1
 1658 0 l 1,15,-1
 1658 702 l 1,16,-1
 1542 702 l 2,17,18
 1454 702 1454 702 1372 660 c 1,19,20
 1416 640 1416 640 1466 568 c 0,21,22
 1536 466 1536 466 1536 336 c 0,23,24
 1536 202 1536 202 1482 108 c 0,25,26
 1422 0 1422 0 1318 0 c 0,27,28
 1094 0 1094 0 1094 330 c 0,29,30
 1094 458 1094 458 1156 560 c 0,31,32
 1194 624 1194 624 1240 658 c 1,33,34
 1170 702 1170 702 1054 702 c 0,35,36
 954 702 954 702 876 662 c 1,37,38
 1040 556 1040 556 1040 344 c 0,39,40
 1040 170 1040 170 970 78 c 0,41,42
 910 0 910 0 828 0 c 0,43,44
 598 0 598 0 598 326 c 0,45,46
 598 528 598 528 746 660 c 1,47,48
 666 708 666 708 522 708 c 0,49,50
 344 708 344 708 242 606 c 0,51,52
 152 518 152 518 146 388 c 1,53,54
 208 490 208 490 334 490 c 0,55,56
 432 490 432 490 496 423 c 128,-1,57
 560 356 560 356 560 262 c 0,58,59
 560 162 560 162 514 94 c 0,60,61
 452 6 452 6 322 0 c 0,62,63
 250 -4 250 -4 178 64 c 0,64,65
 74 164 74 164 74 360 c 0,66,67
 74 558 74 558 214 672 c 0,68,69
 340 772 340 772 532 772 c 0,70,71
 702 772 702 772 808 704 c 1,72,73
 920 770 920 770 1058 770 c 0,74,75
 1108 770 1108 770 1184 752 c 0,76,77
 1270 732 1270 732 1302 706 c 1,78,79
 1402 768 1402 768 1556 768 c 1,80,81
 1482 812 1482 812 1482 912 c 0,82,83
 1482 1016 1482 1016 1552 1078 c 0,84,85
 1634 1148 1634 1148 1796 1148 c 0,86,87
 2008 1148 2008 1148 2074 1030 c 0,88,89
 2106 972 2106 972 2106 836 c 2,90,-1
 2106 74 l 1,0,-1
1460 338 m 0,91,92
 1460 516 1460 516 1308 626 c 1,93,94
 1244 580 1244 580 1204 496 c 128,-1,95
 1164 412 1164 412 1164 328 c 0,96,97
 1164 236 1164 236 1194 164 c 0,98,99
 1234 70 1234 70 1308 70 c 0,100,101
 1374 70 1374 70 1417 144 c 128,-1,102
 1460 218 1460 218 1460 338 c 0,91,92
964 346 m 0,103,104
 964 526 964 526 812 626 c 1,105,106
 668 522 668 522 668 330 c 0,107,108
 668 242 668 242 698 168 c 0,109,110
 738 70 738 70 810 70 c 0,111,112
 896 70 896 70 936 178 c 0,113,114
 964 252 964 252 964 346 c 0,103,104
486 250 m 0,115,116
 488 318 488 318 444 367 c 128,-1,117
 400 416 400 416 334 416 c 0,118,119
 254 416 254 416 212 360 c 0,120,121
 176 312 176 312 176 240 c 0,122,123
 176 170 176 170 222 122 c 128,-1,124
 268 74 268 74 322 74 c 0,125,126
 384 74 384 74 430 116 c 0,127,128
 484 166 484 166 486 250 c 0,115,116
EndSplineSet
Ligature2: "'psts' Post Base Substitutions lookup 8 subtable" tm_nna tm_ikaar
EndChar

StartChar: tm_t_ikaar
Encoding: 65546 -1 126
Width: 1308
GlyphClass: 2
Flags: W
LayerCount: 2
Fore
SplineSet
1242 82 m 1,0,-1
 1184 82 l 1,1,-1
 1184 704 l 2,2,3
 1184 886 1184 886 1150 948 c 0,4,5
 1072 1080 1072 1080 802 1080 c 0,6,7
 508 1080 508 1080 508 904 c 0,8,9
 508 786 508 786 626 768 c 1,10,-1
 626 768 l 1,11,-1
 906 768 l 1,12,-1
 906 702 l 1,13,-1
 654 702 l 1,14,-1
 654 518 l 1,15,-1
 770 518 l 2,16,17
 858 516 858 516 922 488 c 0,18,19
 1072 420 1072 420 1072 232 c 0,20,21
 1072 -50 1072 -50 786 -96 c 0,22,23
 636 -120 636 -120 410 -114 c 0,24,25
 176 -108 176 -108 174 -196 c 1,26,-1
 98 -182 l 1,27,28
 104 -122 104 -122 150 -92 c 0,29,30
 222 -48 222 -48 410 -48 c 0,31,32
 678 -48 678 -48 726 -38 c 0,33,34
 1004 0 1004 0 1004 250 c 0,35,36
 1004 452 1004 452 736 452 c 2,37,-1
 654 452 l 1,38,-1
 654 350 l 2,39,40
 654 248 654 248 618 166 c 0,41,42
 542 0 542 0 342 0 c 0,43,44
 232 0 232 0 157 74 c 128,-1,45
 82 148 82 148 82 260 c 0,46,47
 82 362 82 362 130 430 c 0,48,49
 186 510 186 510 296 514 c 1,50,-1
 296 768 l 1,51,-1
 506 768 l 1,52,53
 438 810 438 810 438 898 c 0,54,55
 438 1146 438 1146 806 1146 c 0,56,57
 1244 1146 1244 1146 1244 792 c 0,58,59
 1244 774 1244 774 1244 748 c 0,60,61
 1242 722 1242 722 1242 714 c 2,62,-1
 1242 82 l 1,0,-1
590 518 m 1,63,-1
 590 702 l 1,64,-1
 362 702 l 1,65,-1
 362 518 l 1,66,-1
 590 518 l 1,63,-1
590 360 m 2,67,-1
 590 452 l 1,68,-1
 320 452 l 2,69,70
 222 452 222 452 176 372 c 0,71,72
 146 322 146 322 146 268 c 0,73,74
 146 180 146 180 194 126 c 0,75,76
 248 66 248 66 344 66 c 0,77,78
 482 66 482 66 546 178 c 0,79,80
 590 256 590 256 590 360 c 2,67,-1
EndSplineSet
Ligature2: "'psts' Post Base Substitutions lookup 8 subtable" tm_ta tm_ikaar
EndChar

StartChar: tm_n_ikaar
Encoding: 65547 -1 127
Width: 1138
GlyphClass: 2
Flags: W
LayerCount: 2
Fore
SplineSet
1062 82 m 1,0,-1
 1004 82 l 1,1,-1
 1004 696 l 2,2,3
 1004 888 1004 888 966 950 c 0,4,5
 890 1080 890 1080 616 1080 c 0,6,7
 470 1080 470 1080 396 1028 c 0,8,9
 330 984 330 984 330 908 c 0,10,11
 330 790 330 790 438 768 c 1,12,-1
 788 768 l 1,13,-1
 788 700 l 1,14,-1
 472 700 l 1,15,-1
 472 406 l 1,16,17
 544 470 544 470 660 470 c 0,18,19
 764 470 764 470 828 401 c 128,-1,20
 892 332 892 332 892 226 c 0,21,22
 892 38 892 38 781 -42 c 128,-1,23
 670 -122 670 -122 434 -126 c 1,24,25
 448 -126 448 -126 286 -122 c 0,26,27
 206 -122 206 -122 121 -136 c 128,-1,28
 36 -150 36 -150 18 -202 c 1,29,-1
 -52 -186 l 1,30,31
 -16 -108 -16 -108 96 -76 c 0,32,33
 136 -64 136 -64 258 -66 c 0,34,35
 420 -70 420 -70 442 -68 c 0,36,37
 612 -60 612 -60 690 -22 c 0,38,39
 828 44 828 44 828 222 c 0,40,41
 828 310 828 310 777 360 c 128,-1,42
 726 410 726 410 652 410 c 0,43,44
 518 410 518 410 470 300 c 1,45,-1
 470 0 l 1,46,-1
 406 0 l 1,47,-1
 406 700 l 1,48,-1
 178 700 l 1,49,-1
 178 0 l 1,50,-1
 114 0 l 1,51,-1
 114 768 l 1,52,-1
 326 768 l 1,53,54
 258 802 258 802 258 908 c 0,55,56
 258 1144 258 1144 622 1144 c 0,57,58
 840 1144 840 1144 948 1064 c 0,59,60
 1032 1002 1032 1002 1054 888 c 0,61,62
 1062 844 1062 844 1062 706 c 2,63,-1
 1062 82 l 1,0,-1
EndSplineSet
Ligature2: "'psts' Post Base Substitutions lookup 8 subtable" tm_na tm_ikaar
EndChar

StartChar: tm_nnn_ikaar
Encoding: 65548 -1 128
Width: 1632
GlyphClass: 2
Flags: W
LayerCount: 2
Fore
SplineSet
1572 74 m 1,0,-1
 1514 74 l 1,1,-1
 1514 800 l 2,2,3
 1514 934 1514 934 1490 982 c 0,4,5
 1438 1082 1438 1082 1260 1082 c 0,6,7
 1022 1082 1022 1082 1022 904 c 0,8,9
 1022 786 1022 786 1130 768 c 1,10,-1
 1322 768 l 1,11,-1
 1322 702 l 1,12,-1
 1192 702 l 1,13,-1
 1192 0 l 1,14,-1
 1124 0 l 1,15,-1
 1124 702 l 1,16,-1
 1016 702 l 2,17,18
 928 702 928 702 842 662 c 1,19,20
 1004 544 1004 544 1004 334 c 0,21,22
 1004 170 1004 170 934 80 c 0,23,24
 872 0 872 0 776 0 c 0,25,26
 668 0 668 0 612 100 c 0,27,28
 562 188 562 188 562 328 c 0,29,30
 562 428 562 428 606 522 c 0,31,32
 646 610 646 610 708 658 c 1,33,34
 644 704 644 704 502 708 c 0,35,36
 322 712 322 712 212 608 c 0,37,38
 116 518 116 518 112 388 c 1,39,40
 174 490 174 490 298 490 c 0,41,42
 400 490 400 490 466 416 c 0,43,44
 526 348 526 348 526 260 c 0,45,46
 526 166 526 166 478 96 c 0,47,48
 414 6 414 6 288 0 c 0,49,50
 214 -4 214 -4 142 66 c 0,51,52
 40 162 40 162 38 360 c 0,53,54
 36 552 36 552 182 668 c 0,55,56
 316 774 316 774 506 772 c 0,57,58
 668 770 668 770 772 706 c 1,59,60
 878 766 878 766 1024 766 c 1,61,62
 950 808 950 808 950 910 c 0,63,64
 950 1146 950 1146 1262 1146 c 0,65,66
 1464 1146 1464 1146 1534 1042 c 0,67,68
 1572 982 1572 982 1572 858 c 2,69,-1
 1572 74 l 1,0,-1
928 334 m 0,70,71
 928 522 928 522 776 626 c 1,72,73
 634 524 634 524 634 330 c 0,74,75
 634 246 634 246 660 174 c 0,76,77
 698 70 698 70 776 70 c 0,78,79
 858 70 858 70 900 178 c 0,80,81
 928 252 928 252 928 334 c 0,70,71
450 254 m 0,82,83
 450 312 450 312 414 360 c 0,84,85
 372 416 372 416 304 416 c 0,86,87
 226 416 226 416 183 368 c 128,-1,88
 140 320 140 320 140 242 c 0,89,90
 140 168 140 168 190 118 c 0,91,92
 234 74 234 74 286 74 c 0,93,94
 354 74 354 74 402 122 c 128,-1,95
 450 170 450 170 450 254 c 0,82,83
EndSplineSet
Ligature2: "'psts' Post Base Substitutions lookup 8 subtable" tm_nnna tm_ikaar
EndChar

StartChar: tm_p_ikaar
Encoding: 65549 -1 129
Width: 1130
GlyphClass: 2
Flags: W
LayerCount: 2
Fore
SplineSet
1058 74 m 1,0,-1
 998 74 l 1,1,-1
 998 732 l 2,2,3
 998 878 998 878 976 938 c 0,4,5
 920 1084 920 1084 728 1084 c 0,6,7
 598 1084 598 1084 530 1029 c 128,-1,8
 462 974 462 974 462 886 c 0,9,10
 462 786 462 786 498 738 c 0,11,12
 556 664 556 664 714 660 c 1,13,-1
 714 768 l 1,14,-1
 782 768 l 1,15,-1
 782 0 l 1,16,-1
 74 0 l 1,17,-1
 74 768 l 1,18,-1
 142 768 l 1,19,-1
 142 64 l 1,20,-1
 714 64 l 1,21,-1
 714 596 l 1,22,23
 394 610 394 610 394 882 c 0,24,25
 394 1146 394 1146 728 1146 c 0,26,27
 946 1146 946 1146 1018 1002 c 0,28,29
 1058 924 1058 924 1058 750 c 2,30,-1
 1058 74 l 1,0,-1
EndSplineSet
Ligature2: "'psts' Post Base Substitutions lookup 8 subtable" tm_pa tm_ikaar
EndChar

StartChar: tm_m_ikaar
Encoding: 65550 -1 130
Width: 1274
GlyphClass: 2
Flags: W
LayerCount: 2
Fore
SplineSet
1206 74 m 1,0,-1
 1146 74 l 1,1,-1
 1146 812 l 2,2,3
 1146 1084 1146 1084 876 1084 c 0,4,5
 608 1084 608 1084 608 886 c 0,6,7
 608 790 608 790 726 770 c 1,8,9
 864 764 864 764 952 668 c 0,10,11
 1044 566 1044 566 1044 396 c 0,12,13
 1044 192 1044 192 900 88 c 0,14,15
 780 0 780 0 588 0 c 2,16,-1
 82 0 l 1,17,-1
 82 768 l 1,18,-1
 148 768 l 1,19,-1
 148 64 l 1,20,-1
 466 64 l 1,21,-1
 466 572 l 2,22,23
 466 630 466 630 494 678 c 0,24,25
 530 746 530 746 610 762 c 1,26,27
 540 796 540 796 540 886 c 0,28,29
 540 1146 540 1146 880 1146 c 0,30,31
 1206 1146 1206 1146 1206 798 c 2,32,-1
 1206 74 l 1,0,-1
976 398 m 0,33,34
 976 570 976 570 882 648 c 0,35,36
 812 706 812 706 708 706 c 0,37,38
 638 706 638 706 592 678 c 0,39,40
 538 644 538 644 538 586 c 2,41,-1
 538 68 l 1,42,43
 976 68 976 68 976 398 c 0,33,34
EndSplineSet
Ligature2: "'psts' Post Base Substitutions lookup 8 subtable" tm_ma tm_ikaar
EndChar

StartChar: tm_y_ikaar
Encoding: 65551 -1 131
Width: 1452
GlyphClass: 2
Flags: W
LayerCount: 2
Fore
SplineSet
1376 74 m 1,0,-1
 1316 74 l 1,1,-1
 1316 742 l 2,2,3
 1316 882 1316 882 1290 942 c 0,4,5
 1232 1082 1232 1082 1040 1082 c 0,6,7
 886 1082 886 1082 820 1002 c 0,8,9
 778 950 778 950 778 878 c 0,10,11
 778 786 778 786 816 738 c 0,12,13
 874 664 874 664 1032 658 c 1,14,-1
 1032 768 l 1,15,-1
 1098 768 l 1,16,-1
 1098 0 l 1,17,-1
 470 0 l 1,18,-1
 470 128 l 1,19,20
 418 -4 418 -4 284 -4 c 0,21,22
 164 -4 164 -4 120 116 c 0,23,24
 98 172 98 172 98 248 c 2,25,-1
 98 768 l 1,26,-1
 164 768 l 1,27,-1
 164 244 l 2,28,29
 162 60 162 60 294 60 c 0,30,31
 412 60 412 60 470 292 c 1,32,-1
 470 768 l 1,33,-1
 536 768 l 1,34,-1
 536 64 l 1,35,-1
 1032 64 l 1,36,-1
 1032 596 l 1,37,38
 708 610 708 610 708 878 c 0,39,40
 708 966 708 966 752 1030 c 0,41,42
 832 1148 832 1148 1042 1148 c 0,43,44
 1376 1148 1376 1148 1376 800 c 2,45,-1
 1376 74 l 1,0,-1
EndSplineSet
Ligature2: "'psts' Post Base Substitutions lookup 8 subtable" tm_ya tm_ikaar
EndChar

StartChar: tm_r_ikaar
Encoding: 65552 -1 132
Width: 898
GlyphClass: 2
Flags: W
LayerCount: 2
Fore
SplineSet
678 702 m 1,0,-1
 426 702 l 1,1,-1
 426 -78 l 1,2,-1
 74 -212 l 1,3,-1
 74 -150 l 1,4,-1
 360 -36 l 1,5,-1
 360 702 l 1,6,-1
 142 702 l 1,7,-1
 142 0 l 1,8,-1
 74 0 l 1,9,-1
 74 768 l 1,10,-1
 276 768 l 1,11,12
 246 780 246 780 226 822 c 128,-1,13
 206 864 206 864 206 910 c 0,14,15
 206 1146 206 1146 528 1146 c 0,16,17
 716 1146 716 1146 784 1048 c 0,18,19
 828 986 828 986 828 864 c 2,20,-1
 828 74 l 1,21,-1
 768 74 l 1,22,-1
 768 774 l 2,23,24
 768 938 768 938 746 986 c 0,25,26
 698 1082 698 1082 524 1082 c 0,27,28
 276 1082 276 1082 276 906 c 0,29,30
 276 792 276 792 386 768 c 1,31,-1
 678 768 l 1,32,-1
 678 702 l 1,0,-1
EndSplineSet
Ligature2: "'psts' Post Base Substitutions lookup 8 subtable" tm_ra tm_ikaar
EndChar

StartChar: tm_rr_ikaar
Encoding: 65553 -1 133
Width: 1216
GlyphClass: 2
Flags: W
LayerCount: 2
Fore
SplineSet
1140 74 m 1,0,-1
 1082 74 l 1,1,-1
 1082 786 l 2,2,3
 1082 936 1082 936 1060 980 c 0,4,5
 1012 1084 1012 1084 834 1084 c 0,6,7
 590 1084 590 1084 590 906 c 0,8,9
 590 832 590 832 650 790 c 0,10,11
 688 764 688 764 714 764 c 0,12,13
 826 764 826 764 882 700 c 0,14,15
 922 650 922 650 922 580 c 0,16,17
 922 440 922 440 834 402 c 1,18,19
 920 378 920 378 920 186 c 0,20,21
 920 56 920 56 878 -10 c 0,22,23
 788 -148 788 -148 510 -148 c 0,24,25
 436 -148 436 -148 348 -138 c 0,26,27
 316 -134 316 -134 276 -134 c 0,28,29
 58 -134 58 -134 28 -214 c 1,30,-1
 -38 -198 l 1,31,32
 14 -84 14 -84 264 -84 c 0,33,34
 300 -84 300 -84 372 -88 c 128,-1,35
 444 -92 444 -92 480 -92 c 0,36,37
 714 -92 714 -92 794 -14 c 0,38,39
 856 46 856 46 856 194 c 0,40,41
 856 354 856 354 760 364 c 1,42,-1
 760 426 l 1,43,44
 856 450 856 450 856 576 c 0,45,46
 856 704 856 704 708 704 c 0,47,48
 596 704 596 704 554 622 c 0,49,50
 538 590 538 590 528 514 c 1,51,-1
 528 -2 l 1,52,-1
 442 -2 l 1,53,-1
 442 514 l 2,54,55
 442 596 442 596 426 630 c 0,56,57
 394 704 394 704 292 704 c 0,58,59
 146 704 146 704 146 564 c 2,60,-1
 146 0 l 1,61,-1
 84 0 l 1,62,-1
 84 584 l 2,63,64
 84 634 84 634 110 678 c 0,65,66
 162 766 162 766 292 766 c 0,67,68
 456 766 456 766 492 630 c 1,69,70
 508 658 508 658 526 680 c 0,71,72
 570 734 570 734 618 750 c 1,73,74
 610 748 610 748 574 780 c 0,75,76
 522 828 522 828 522 916 c 0,77,78
 522 1148 522 1148 834 1148 c 0,79,80
 1056 1148 1056 1148 1116 1016 c 0,81,82
 1140 964 1140 964 1140 798 c 2,83,-1
 1140 74 l 1,0,-1
EndSplineSet
Ligature2: "'psts' Post Base Substitutions lookup 8 subtable" tm_rra tm_ikaar
EndChar

StartChar: tm_l_ikaar
Encoding: 65554 -1 134
Width: 1462
GlyphClass: 2
Flags: W
LayerCount: 2
Fore
SplineSet
1398 74 m 1,0,-1
 1340 74 l 1,1,-1
 1340 742 l 2,2,3
 1340 882 1340 882 1314 942 c 0,4,5
 1254 1082 1254 1082 1062 1082 c 0,6,7
 938 1082 938 1082 876 1010 c 0,8,9
 828 952 828 952 828 872 c 0,10,11
 828 762 828 762 894 707 c 128,-1,12
 960 652 960 652 1066 658 c 1,13,14
 1010 708 1010 708 906 706 c 1,15,-1
 906 770 l 1,16,17
 1068 774 1068 774 1152 664 c 0,18,19
 1224 570 1224 570 1226 408 c 0,20,21
 1228 240 1228 240 1158 124 c 0,22,23
 1082 0 1082 0 954 0 c 0,24,25
 802 0 802 0 738 82 c 0,26,27
 668 174 668 174 668 398 c 0,28,29
 668 700 668 700 406 700 c 0,30,31
 168 700 168 700 116 458 c 0,32,33
 112 440 112 440 112 384 c 1,34,35
 128 412 128 412 152 434 c 0,36,37
 208 484 208 484 294 486 c 0,38,39
 396 488 396 488 463 424 c 128,-1,40
 530 360 530 360 530 256 c 0,41,42
 530 164 530 164 486 96 c 0,43,44
 426 4 426 4 304 -2 c 0,45,46
 202 -6 202 -6 132 72 c 0,47,48
 40 176 40 176 44 390 c 0,49,50
 48 552 48 552 147 660 c 128,-1,51
 246 768 246 768 410 768 c 0,52,53
 748 768 748 768 748 380 c 0,54,55
 748 206 748 206 794 136 c 128,-1,56
 840 66 840 66 952 66 c 0,57,58
 1054 66 1054 66 1114 184 c 0,59,60
 1166 282 1166 282 1164 398 c 0,61,62
 1162 526 1162 526 1112 604 c 1,63,64
 1080 600 1080 600 1050 600 c 0,65,66
 902 600 902 600 826 690 c 0,67,68
 760 766 760 766 760 882 c 0,69,70
 760 964 760 964 804 1032 c 0,71,72
 882 1146 882 1146 1064 1146 c 0,73,74
 1398 1146 1398 1146 1398 800 c 2,75,-1
 1398 74 l 1,0,-1
452 256 m 0,76,77
 452 318 452 318 416 360 c 0,78,79
 372 410 372 410 294 410 c 0,80,81
 220 410 220 410 178 350 c 0,82,83
 142 302 142 302 142 240 c 0,84,85
 142 160 142 160 198 114 c 0,86,87
 244 76 244 76 290 76 c 0,88,89
 360 76 360 76 406 128 c 128,-1,90
 452 180 452 180 452 256 c 0,76,77
EndSplineSet
Ligature2: "'psts' Post Base Substitutions lookup 8 subtable" tm_la tm_ikaar
EndChar

StartChar: tm_ll_ikaar
Encoding: 65555 -1 135
Width: 1640
GlyphClass: 2
Flags: W
LayerCount: 2
Fore
SplineSet
1582 74 m 1,0,-1
 1522 74 l 1,1,-1
 1522 800 l 2,2,3
 1522 942 1522 942 1494 992 c 0,4,5
 1444 1082 1444 1082 1272 1082 c 0,6,7
 1030 1082 1030 1082 1030 902 c 0,8,9
 1030 786 1030 786 1140 768 c 1,10,-1
 1332 768 l 1,11,-1
 1332 702 l 1,12,-1
 1200 702 l 1,13,-1
 1200 0 l 1,14,-1
 1134 0 l 1,15,-1
 1134 702 l 1,16,-1
 882 702 l 1,17,-1
 882 0 l 1,18,-1
 818 0 l 1,19,-1
 818 438 l 2,20,21
 818 554 818 554 730 629 c 128,-1,22
 642 704 642 704 506 704 c 0,23,24
 338 704 338 704 258 596 c 0,25,26
 192 508 192 508 196 378 c 1,27,28
 254 480 254 480 384 480 c 0,29,30
 484 480 484 480 552 408 c 0,31,32
 614 340 614 340 614 248 c 256,33,34
 614 156 614 156 562 86 c 0,35,36
 496 -4 496 -4 370 -10 c 0,37,38
 298 -12 298 -12 228 56 c 0,39,40
 126 152 126 152 126 346 c 0,41,42
 126 554 126 554 229 664 c 128,-1,43
 332 774 332 774 514 774 c 0,44,45
 616 774 616 774 700 734 c 128,-1,46
 784 694 784 694 818 636 c 1,47,-1
 818 768 l 1,48,-1
 1030 768 l 1,49,50
 958 808 958 808 958 914 c 0,51,52
 958 1146 958 1146 1272 1146 c 0,53,54
 1482 1146 1482 1146 1546 1038 c 0,55,56
 1582 974 1582 974 1582 790 c 2,57,-1
 1582 74 l 1,0,-1
532 246 m 0,58,59
 532 306 532 306 494 350 c 0,60,61
 452 402 452 402 384 404 c 0,62,63
 306 406 306 406 262 350 c 0,64,65
 222 302 222 302 222 232 c 0,66,67
 222 166 222 166 267 118 c 128,-1,68
 312 70 312 70 364 70 c 0,69,70
 436 70 436 70 484 118 c 128,-1,71
 532 166 532 166 532 246 c 0,58,59
EndSplineSet
Ligature2: "'psts' Post Base Substitutions lookup 8 subtable" tm_lla tm_ikaar
EndChar

StartChar: tm_lll_ikaar
Encoding: 65556 -1 136
Width: 1298
GlyphClass: 2
Flags: W
LayerCount: 2
Fore
SplineSet
1220 74 m 1,0,-1
 1162 74 l 1,1,-1
 1162 792 l 2,2,3
 1162 1084 1162 1084 892 1084 c 0,4,5
 624 1084 624 1084 624 900 c 0,6,7
 624 788 624 788 744 772 c 1,8,9
 860 772 860 772 950 684 c 0,10,11
 1058 580 1058 580 1058 404 c 0,12,13
 1058 0 1058 0 554 0 c 1,14,-1
 554 -30 l 2,15,16
 554 -80 554 -80 596 -116 c 0,17,18
 646 -160 646 -160 736 -160 c 0,19,20
 766 -160 766 -160 800 -154 c 1,21,22
 842 -86 842 -86 954 -86 c 0,23,24
 1076 -86 1076 -86 1076 -154 c 0,25,26
 1076 -204 1076 -204 980 -224 c 0,27,28
 910 -238 910 -238 842 -232 c 1,29,30
 766 -418 766 -418 436 -418 c 0,31,32
 240 -418 240 -418 144 -328 c 0,33,34
 70 -260 70 -260 70 -162 c 0,35,36
 70 -96 70 -96 98 -74 c 1,37,-1
 150 -124 l 1,38,39
 140 -150 140 -150 140 -176 c 0,40,41
 140 -250 140 -250 216 -300 c 0,42,43
 300 -354 300 -354 436 -354 c 0,44,45
 552 -354 552 -354 644 -319 c 128,-1,46
 736 -284 736 -284 760 -226 c 1,47,48
 482 -228 482 -228 482 0 c 1,49,-1
 98 0 l 1,50,-1
 98 768 l 1,51,-1
 164 768 l 1,52,-1
 164 66 l 1,53,-1
 482 66 l 1,54,-1
 482 574 l 2,55,56
 482 628 482 628 508 676 c 0,57,58
 546 746 546 746 626 762 c 1,59,60
 556 800 556 800 556 900 c 0,61,62
 556 978 556 978 596 1034 c 0,63,64
 676 1148 676 1148 894 1148 c 0,65,66
 1220 1148 1220 1148 1220 802 c 2,67,-1
 1220 74 l 1,0,-1
992 406 m 0,68,69
 992 566 992 566 902 644 c 0,70,71
 830 706 830 706 728 706 c 0,72,73
 554 706 554 706 554 586 c 2,74,-1
 554 68 l 1,75,76
 734 68 734 68 828 112 c 0,77,78
 992 190 992 190 992 406 c 0,68,69
EndSplineSet
Ligature2: "'psts' Post Base Substitutions lookup 8 subtable" tm_llla tm_ikaar
EndChar

StartChar: tm_v_ikaar
Encoding: 65557 -1 137
Width: 1548
GlyphClass: 2
Flags: W
LayerCount: 2
Fore
SplineSet
1474 74 m 1,0,-1
 1414 74 l 1,1,-1
 1414 780 l 2,2,3
 1414 1082 1414 1082 1140 1082 c 0,4,5
 1008 1082 1008 1082 938 1022 c 0,6,7
 876 970 876 970 876 882 c 0,8,9
 876 744 876 744 962 694 c 0,10,11
 1006 670 1006 670 1130 658 c 1,12,-1
 1130 768 l 1,13,-1
 1194 768 l 1,14,-1
 1194 0 l 1,15,-1
 640 0 l 1,16,17
 748 92 748 92 790 156 c 0,18,19
 850 248 850 248 850 368 c 0,20,21
 850 524 850 524 752 617 c 128,-1,22
 654 710 654 710 482 710 c 0,23,24
 316 710 316 710 222 610 c 0,25,26
 142 522 142 522 136 394 c 1,27,28
 192 500 192 500 320 500 c 0,29,30
 426 500 426 500 492 430 c 128,-1,31
 558 360 558 360 558 260 c 0,32,33
 558 168 558 168 506 98 c 0,34,35
 442 8 442 8 312 0 c 0,36,37
 242 -4 242 -4 172 64 c 0,38,39
 68 160 68 160 68 358 c 256,40,41
 68 556 68 556 194 666 c 128,-1,42
 320 776 320 776 522 778 c 0,43,44
 642 778 642 778 754 706 c 0,45,46
 922 596 922 596 922 370 c 0,47,48
 922 180 922 180 810 62 c 1,49,-1
 1130 62 l 1,50,-1
 1130 594 l 1,51,52
 808 612 808 612 808 884 c 0,53,54
 808 998 808 998 882 1066 c 0,55,56
 970 1146 970 1146 1142 1146 c 0,57,58
 1474 1146 1474 1146 1474 826 c 2,59,-1
 1474 74 l 1,0,-1
478 258 m 0,60,61
 478 328 478 328 436 377 c 128,-1,62
 394 426 394 426 324 426 c 0,63,64
 162 426 162 426 162 236 c 0,65,66
 162 166 162 166 214 116 c 0,67,68
 260 72 260 72 312 72 c 0,69,70
 382 72 382 72 430 125 c 128,-1,71
 478 178 478 178 478 258 c 0,60,61
EndSplineSet
Ligature2: "'psts' Post Base Substitutions lookup 8 subtable" tm_va tm_ikaar
EndChar

StartChar: tm_ss_ikaar
Encoding: 65558 -1 138
Width: 1794
GlyphClass: 2
Flags: W
LayerCount: 2
Fore
SplineSet
1728 68 m 1,0,-1
 1668 74 l 1,1,-1
 1668 760 l 2,2,3
 1668 924 1668 924 1650 970 c 0,4,5
 1606 1082 1606 1082 1432 1082 c 0,6,7
 1176 1082 1176 1082 1176 910 c 0,8,9
 1176 776 1176 776 1306 766 c 1,10,11
 1376 770 1376 770 1440 720 c 0,12,13
 1524 654 1524 654 1524 524 c 0,14,15
 1524 428 1524 428 1484 330 c 2,16,-1
 1376 64 l 1,17,-1
 1576 64 l 1,18,-1
 1576 0 l 1,19,-1
 1350 0 l 1,20,-1
 1262 -208 l 1,21,-1
 1184 -208 l 1,22,-1
 1272 0 l 1,23,-1
 634 0 l 1,24,25
 748 96 748 96 790 162 c 0,26,27
 844 248 844 248 844 370 c 0,28,29
 844 524 844 524 745 616 c 128,-1,30
 646 708 646 708 478 708 c 0,31,32
 306 708 306 708 212 602 c 0,33,34
 136 516 136 516 128 388 c 1,35,36
 194 498 194 498 316 498 c 0,37,38
 422 498 422 498 488 430 c 128,-1,39
 554 362 554 362 554 256 c 0,40,41
 554 160 554 160 498 92 c 0,42,43
 432 6 432 6 304 0 c 0,44,45
 234 -4 234 -4 164 64 c 0,46,47
 62 160 62 160 62 350 c 0,48,49
 62 546 62 546 179 660 c 128,-1,50
 296 774 296 774 492 774 c 0,51,52
 636 774 636 774 748 704 c 0,53,54
 918 600 918 600 918 370 c 0,55,56
 918 180 918 180 804 64 c 1,57,-1
 1184 64 l 1,58,59
 1042 168 1042 168 1018 390 c 0,60,61
 1014 432 1014 432 1014 472 c 0,62,63
 1014 714 1014 714 1198 752 c 1,64,65
 1150 766 1150 766 1124 818 c 0,66,67
 1104 862 1104 862 1104 910 c 0,68,69
 1106 1146 1106 1146 1434 1146 c 0,70,71
 1630 1146 1630 1146 1692 1038 c 0,72,73
 1728 976 1728 976 1728 816 c 2,74,-1
 1728 68 l 1,0,-1
1422 402 m 2,75,76
 1440 446 1440 446 1440 514 c 0,77,78
 1440 694 1440 694 1280 694 c 0,79,80
 1152 694 1152 694 1108 572 c 0,81,82
 1090 520 1090 520 1090 458 c 0,83,84
 1090 332 1090 332 1156 212 c 128,-1,85
 1222 92 1222 92 1296 70 c 1,86,-1
 1422 402 l 2,75,76
474 254 m 0,87,88
 476 326 476 326 433 376 c 128,-1,89
 390 426 390 426 320 426 c 0,90,91
 242 426 242 426 198 370 c 0,92,93
 158 322 158 322 158 248 c 0,94,95
 158 166 158 166 208 116 c 0,96,97
 250 72 250 72 304 72 c 0,98,99
 370 72 370 72 421 119 c 128,-1,100
 472 166 472 166 474 254 c 0,87,88
EndSplineSet
Ligature2: "'psts' Post Base Substitutions lookup 8 subtable" tm_ssa tm_ikaar
EndChar

StartChar: tm_s_ikaar
Encoding: 65559 -1 139
Width: 1928
GlyphClass: 2
Flags: W
LayerCount: 2
Fore
SplineSet
1848 74 m 1,0,-1
 1786 74 l 1,1,-1
 1786 742 l 2,2,3
 1786 882 1786 882 1762 942 c 0,4,5
 1702 1082 1702 1082 1510 1082 c 0,6,7
 1386 1082 1386 1082 1324 1010 c 0,8,9
 1276 952 1276 952 1276 872 c 0,10,11
 1276 760 1276 760 1344 705 c 128,-1,12
 1412 650 1412 650 1522 658 c 1,13,14
 1472 708 1472 708 1394 708 c 1,15,-1
 1394 764 l 1,16,17
 1676 744 1676 744 1676 376 c 0,18,19
 1676 244 1676 244 1618 138 c 0,20,21
 1542 -2 1542 -2 1396 -2 c 0,22,23
 1258 -2 1258 -2 1197 81 c 128,-1,24
 1136 164 1136 164 1136 352 c 128,-1,25
 1136 540 1136 540 1112 604 c 0,26,27
 1078 694 1078 694 988 694 c 0,28,29
 826 694 826 694 836 436 c 1,30,-1
 836 0 l 1,31,-1
 766 0 l 1,32,-1
 766 424 l 2,33,34
 766 548 766 548 677 623 c 128,-1,35
 588 698 588 698 460 698 c 0,36,37
 144 698 144 698 144 372 c 1,38,39
 200 472 200 472 330 472 c 0,40,41
 434 472 434 472 500 400 c 0,42,43
 560 334 560 334 560 238 c 0,44,45
 560 148 560 148 510 80 c 0,46,47
 444 -10 444 -10 318 -16 c 0,48,49
 244 -20 244 -20 174 48 c 0,50,51
 70 142 70 142 70 336 c 0,52,53
 70 542 70 542 173 655 c 128,-1,54
 276 768 276 768 462 768 c 0,55,56
 586 768 586 768 682 710 c 0,57,58
 762 662 762 662 788 598 c 1,59,60
 824 760 824 760 992 760 c 0,61,62
 1138 760 1138 760 1182 622 c 0,63,64
 1208 542 1208 542 1206 332 c 0,65,66
 1204 176 1204 176 1260 112 c 0,67,68
 1304 62 1304 62 1398 62 c 0,69,70
 1504 62 1504 62 1564 166 c 0,71,72
 1614 254 1614 254 1616 376 c 0,73,74
 1618 516 1618 516 1566 604 c 1,75,76
 1532 600 1532 600 1500 600 c 0,77,78
 1350 600 1350 600 1274 688 c 0,79,80
 1208 764 1208 764 1208 882 c 0,81,82
 1208 964 1208 964 1252 1032 c 0,83,84
 1330 1146 1330 1146 1512 1146 c 0,85,86
 1848 1146 1848 1146 1848 800 c 2,87,-1
 1848 74 l 1,0,-1
478 240 m 0,88,89
 478 318 478 318 426 362 c 0,90,91
 384 398 384 398 330 398 c 0,92,93
 250 398 250 398 204 340 c 0,94,95
 168 294 168 294 168 228 c 256,96,97
 168 162 168 162 213 113 c 128,-1,98
 258 64 258 64 316 64 c 0,99,100
 380 64 380 64 429 109 c 128,-1,101
 478 154 478 154 478 240 c 0,88,89
EndSplineSet
Ligature2: "'psts' Post Base Substitutions lookup 8 subtable" tm_sa tm_ikaar
EndChar

StartChar: tm_h_ikaar
Encoding: 65560 -1 140
Width: 2096
GlyphClass: 2
Flags: W
LayerCount: 2
Fore
SplineSet
2026 76 m 1,0,-1
 1964 76 l 1,1,-1
 1964 788 l 2,2,3
 1964 936 1964 936 1944 980 c 0,4,5
 1896 1082 1896 1082 1718 1082 c 0,6,7
 1474 1082 1474 1082 1474 908 c 0,8,9
 1474 834 1474 834 1532 792 c 0,10,11
 1570 766 1570 766 1596 766 c 0,12,13
 1688 764 1688 764 1747 715 c 128,-1,14
 1806 666 1806 666 1806 584 c 0,15,16
 1808 448 1808 448 1720 404 c 1,17,18
 1804 366 1804 366 1804 192 c 0,19,20
 1804 58 1804 58 1760 -8 c 0,21,22
 1674 -146 1674 -146 1410 -144 c 0,23,24
 1408 -144 1408 -144 1252 -138 c 0,25,26
 1134 -132 1134 -132 1090 -138 c 0,27,28
 934 -158 934 -158 912 -214 c 1,29,-1
 846 -198 l 1,30,31
 864 -158 864 -158 892 -138 c 0,32,33
 942 -100 942 -100 1050 -88 c 0,34,35
 1092 -80 1092 -80 1240 -84 c 0,36,37
 1406 -88 1406 -88 1408 -88 c 0,38,39
 1582 -78 1582 -78 1650 -36 c 0,40,41
 1740 22 1740 22 1740 174 c 0,42,43
 1740 354 1740 354 1644 366 c 1,44,-1
 1644 428 l 1,45,46
 1740 452 1740 452 1740 582 c 0,47,48
 1740 630 1740 630 1706 664 c 0,49,50
 1666 706 1666 706 1590 706 c 0,51,52
 1410 706 1410 706 1412 492 c 2,53,-1
 1412 0 l 1,54,-1
 1326 0 l 1,55,-1
 1326 528 l 2,56,57
 1326 706 1326 706 1178 706 c 0,58,59
 1050 706 1050 706 1050 538 c 2,60,-1
 1050 0 l 1,61,-1
 578 0 l 1,62,63
 688 116 688 116 700 134 c 0,64,65
 766 230 766 230 766 370 c 0,66,67
 766 518 766 518 682 610 c 0,68,69
 592 708 592 708 432 708 c 0,70,71
 258 708 258 708 172 572 c 0,72,73
 112 476 112 476 118 390 c 1,74,75
 172 496 172 496 290 496 c 0,76,77
 382 496 382 496 446 424 c 0,78,79
 504 356 504 356 504 274 c 0,80,81
 504 152 504 152 441 74 c 128,-1,82
 378 -4 378 -4 280 -4 c 0,83,84
 194 -4 194 -4 130 82 c 0,85,86
 56 188 56 188 58 374 c 0,87,88
 60 532 60 532 152 642 c 0,89,90
 262 774 262 774 454 774 c 0,91,92
 598 774 598 774 702 686 c 0,93,94
 830 576 830 576 830 370 c 0,95,96
 830 160 830 160 726 64 c 1,97,-1
 992 64 l 1,98,-1
 992 584 l 1,99,100
 1006 766 1006 766 1184 766 c 0,101,102
 1276 766 1276 766 1332 708 c 0,103,104
 1372 668 1372 668 1378 630 c 1,105,106
 1402 720 1402 720 1502 752 c 1,107,108
 1494 748 1494 748 1458 782 c 0,109,110
 1406 830 1406 830 1406 918 c 0,111,112
 1406 1146 1406 1146 1718 1146 c 0,113,114
 1938 1146 1938 1146 2000 1016 c 0,115,116
 2026 962 2026 962 2026 800 c 2,117,-1
 2026 76 l 1,0,-1
430 254 m 0,118,119
 430 332 430 332 388 378 c 128,-1,120
 346 424 346 424 288 424 c 0,121,122
 216 424 216 424 180 369 c 128,-1,123
 144 314 144 314 144 236 c 0,124,125
 144 166 144 166 184 117 c 128,-1,126
 224 68 224 68 276 68 c 0,127,128
 334 68 334 68 378 112 c 0,129,130
 430 164 430 164 430 254 c 0,118,119
EndSplineSet
Ligature2: "'psts' Post Base Substitutions lookup 8 subtable" tm_ha tm_ikaar
EndChar

StartChar: tm_k_iikaar
Encoding: 65561 -1 141
Width: 1096
GlyphClass: 2
Flags: W
LayerCount: 2
Fore
SplineSet
1140 938 m 0,0,1
 1140 800 1140 800 982 800 c 0,2,3
 822 800 822 800 822 918 c 0,4,5
 822 1020 822 1020 958 1020 c 0,6,7
 1020 1020 1020 1020 1044 1006 c 1,8,9
 974 1080 974 1080 760 1080 c 0,10,11
 470 1080 470 1080 470 904 c 0,12,13
 470 780 470 780 584 768 c 1,14,-1
 860 768 l 1,15,-1
 860 702 l 1,16,-1
 612 702 l 1,17,-1
 612 516 l 1,18,-1
 758 516 l 2,19,20
 910 516 910 516 982 428 c 0,21,22
 1032 366 1032 366 1032 286 c 0,23,24
 1032 130 1032 130 928 54 c 0,25,26
 850 -2 850 -2 744 -2 c 0,27,28
 676 -2 676 -2 612 24 c 128,-1,29
 548 50 548 50 522 88 c 1,30,31
 444 -4 444 -4 326 -4 c 0,32,33
 178 -4 178 -4 102 82 c 0,34,35
 40 154 40 154 40 268 c 0,36,37
 40 352 40 352 88 422 c 0,38,39
 148 510 148 510 258 516 c 1,40,-1
 258 768 l 1,41,-1
 468 768 l 1,42,43
 400 812 400 812 400 906 c 0,44,45
 400 1146 400 1146 766 1146 c 0,46,47
 942 1146 942 1146 1041 1092 c 128,-1,48
 1140 1038 1140 1038 1140 938 c 0,0,1
1044 912 m 0,49,50
 1044 960 1044 960 960 960 c 0,51,52
 884 960 884 960 884 906 c 0,53,54
 884 856 884 856 962 856 c 0,55,56
 1044 856 1044 856 1044 912 c 0,49,50
546 516 m 1,57,-1
 546 702 l 1,58,-1
 324 702 l 1,59,-1
 324 516 l 1,60,-1
 546 516 l 1,57,-1
964 272 m 0,61,62
 964 448 964 448 736 448 c 2,63,-1
 612 448 l 1,64,-1
 612 380 l 2,65,66
 612 228 612 228 562 140 c 1,67,68
 612 60 612 60 734 60 c 0,69,70
 824 60 824 60 890 112 c 0,71,72
 964 172 964 172 964 272 c 0,61,62
546 386 m 2,73,-1
 546 448 l 1,74,-1
 290 448 l 2,75,76
 206 448 206 448 157 395 c 128,-1,77
 108 342 108 342 108 262 c 0,78,79
 108 200 108 200 138 150 c 0,80,81
 190 64 190 64 312 64 c 0,82,83
 546 64 546 64 546 386 c 2,73,-1
EndSplineSet
Ligature2: "'abvs' Above Base Substitutions lookup 6 subtable" tm_ka tm_iikaar
EndChar

StartChar: tm_ng_iikaar
Encoding: 65562 -1 142
Width: 1291
GlyphClass: 2
Flags: W
LayerCount: 2
Fore
SplineSet
1374 950 m 0,0,1
 1374 806 1374 806 1224 806 c 0,2,3
 1058 806 1058 806 1058 916 c 0,4,5
 1058 1028 1058 1028 1198 1028 c 0,6,7
 1246 1028 1246 1028 1280 1014 c 1,8,9
 1216 1084 1216 1084 1050 1084 c 0,10,11
 932 1084 932 1084 866 1008 c 0,12,13
 822 956 822 956 822 882 c 0,14,15
 822 762 822 762 886 712 c 0,16,17
 942 664 942 664 1044 660 c 1,18,-1
 1044 768 l 1,19,-1
 1112 768 l 1,20,-1
 1112 0 l 1,21,-1
 600 0 l 1,22,-1
 600 62 l 1,23,-1
 740 62 l 1,24,25
 802 140 802 140 802 226 c 0,26,27
 802 320 802 320 738 370 c 0,28,29
 688 410 688 410 626 410 c 0,30,31
 488 410 488 410 442 302 c 1,32,-1
 442 -2 l 1,33,-1
 378 -2 l 1,34,-1
 378 700 l 1,35,-1
 150 700 l 1,36,-1
 150 -2 l 1,37,-1
 86 -2 l 1,38,-1
 86 768 l 1,39,-1
 758 768 l 1,40,-1
 758 700 l 1,41,-1
 444 700 l 1,42,-1
 444 406 l 1,43,44
 500 470 500 470 640 470 c 0,45,46
 726 470 726 470 790 410 c 0,47,48
 864 340 864 340 864 228 c 0,49,50
 864 124 864 124 814 62 c 1,51,-1
 1046 62 l 1,52,-1
 1044 64 l 1,53,-1
 1044 596 l 1,54,55
 754 606 754 606 754 870 c 0,56,57
 754 1144 754 1144 1054 1144 c 0,58,59
 1374 1144 1374 1144 1374 950 c 0,0,1
1282 916 m 0,60,61
 1282 960 1282 960 1204 964 c 1,62,63
 1120 964 1120 964 1120 912 c 256,64,65
 1120 860 1120 860 1202 858 c 1,66,67
 1282 862 1282 862 1282 916 c 0,60,61
EndSplineSet
Ligature2: "'abvs' Above Base Substitutions lookup 6 subtable" tm_nga tm_iikaar
EndChar

StartChar: tm_c_iikaar
Encoding: 65563 -1 143
Width: 978
GlyphClass: 2
Flags: W
LayerCount: 2
Fore
SplineSet
1184 938 m 0,0,1
 1184 800 1184 800 1026 800 c 0,2,3
 866 800 866 800 866 918 c 0,4,5
 866 1020 866 1020 1002 1020 c 0,6,7
 1064 1020 1064 1020 1088 1006 c 1,8,9
 1018 1080 1018 1080 804 1080 c 0,10,11
 514 1080 514 1080 514 904 c 0,12,13
 514 780 514 780 628 768 c 1,14,-1
 904 768 l 1,15,-1
 904 702 l 1,16,-1
 656 702 l 1,17,-1
 656 516 l 1,18,-1
 898 516 l 1,19,-1
 898 448 l 1,20,-1
 656 448 l 1,21,-1
 656 380 l 2,22,23
 656 0 656 0 340 0 c 0,24,25
 208 0 208 0 140 88 c 0,26,27
 84 160 84 160 84 264 c 256,28,29
 84 368 84 368 143 439 c 128,-1,30
 202 510 202 510 302 516 c 1,31,-1
 302 768 l 1,32,-1
 512 768 l 1,33,34
 444 812 444 812 444 906 c 0,35,36
 444 1146 444 1146 810 1146 c 0,37,38
 986 1146 986 1146 1085 1092 c 128,-1,39
 1184 1038 1184 1038 1184 938 c 0,0,1
1088 912 m 0,40,41
 1088 960 1088 960 1004 960 c 0,42,43
 928 960 928 960 928 906 c 0,44,45
 928 856 928 856 1006 856 c 0,46,47
 1088 856 1088 856 1088 912 c 0,40,41
590 516 m 1,48,-1
 590 702 l 1,49,-1
 368 702 l 1,50,-1
 368 516 l 1,51,-1
 590 516 l 1,48,-1
590 396 m 2,52,-1
 590 448 l 1,53,-1
 318 448 l 2,54,55
 254 448 254 448 206 402 c 0,56,57
 150 348 150 348 150 266 c 0,58,59
 150 172 150 172 203 116 c 128,-1,60
 256 60 256 60 350 60 c 0,61,62
 590 60 590 60 590 396 c 2,52,-1
EndSplineSet
Ligature2: "'abvs' Above Base Substitutions lookup 6 subtable" tm_ca tm_iikaar
EndChar

StartChar: tm_j_iikaar
Encoding: 65564 -1 144
Width: 1408
GlyphClass: 2
Flags: W
LayerCount: 2
Fore
SplineSet
1490 950 m 0,0,1
 1490 888 1490 888 1449 848 c 128,-1,2
 1408 808 1408 808 1338 808 c 0,3,4
 1172 808 1172 808 1172 914 c 0,5,6
 1172 1030 1172 1030 1320 1030 c 0,7,8
 1366 1030 1366 1030 1394 1016 c 1,9,10
 1346 1086 1346 1086 1176 1086 c 0,11,12
 942 1086 942 1086 942 902 c 0,13,14
 942 774 942 774 1088 758 c 1,15,16
 1292 730 1292 730 1296 528 c 0,17,18
 1302 250 1302 250 958 202 c 1,19,20
 716 176 716 176 398 136 c 1,21,22
 260 112 260 112 220 90 c 0,23,24
 148 48 148 48 148 -58 c 0,25,26
 148 -210 148 -210 352 -210 c 0,27,28
 488 -210 488 -210 650 -16 c 0,29,30
 800 164 800 164 1036 164 c 0,31,32
 1292 164 1292 164 1292 -50 c 0,33,34
 1292 -278 1292 -278 1016 -278 c 0,35,36
 816 -278 816 -278 754 -196 c 1,37,-1
 754 -112 l 1,38,39
 804 -178 804 -178 874 -200 c 0,40,41
 922 -214 922 -214 1012 -214 c 0,42,43
 1108 -214 1108 -214 1161 -169 c 128,-1,44
 1214 -124 1214 -124 1214 -50 c 0,45,46
 1214 98 1214 98 1034 98 c 0,47,48
 896 98 896 98 804 36 c 0,49,50
 790 26 790 26 700 -60 c 1,51,52
 638 -128 638 -128 576 -194 c 1,53,54
 480 -278 480 -278 348 -278 c 256,55,56
 216 -278 216 -278 144 -218 c 128,-1,57
 72 -158 72 -158 72 -56 c 0,58,59
 72 74 72 74 150 128 c 0,60,61
 212 174 212 174 382 198 c 1,62,63
 636 224 636 224 964 266 c 1,64,65
 1112 300 1112 300 1166 362 c 0,66,67
 1214 416 1214 416 1214 526 c 0,68,69
 1214 694 1214 694 1004 694 c 0,70,71
 868 694 868 694 804 600 c 0,72,73
 760 534 760 534 760 440 c 2,74,-1
 760 340 l 1,75,-1
 626 340 l 1,76,-1
 626 450 l 2,77,78
 626 698 626 698 384 698 c 0,79,80
 186 698 186 698 142 554 c 1,81,82
 160 572 160 572 180 586 c 0,83,84
 226 618 226 618 274 618 c 0,85,86
 354 620 354 620 408 569 c 128,-1,87
 462 518 462 518 462 434 c 0,88,89
 462 250 462 250 278 234 c 0,90,91
 198 226 198 226 140 272 c 0,92,93
 64 330 64 330 64 468 c 0,94,95
 64 604 64 604 162 688 c 0,96,97
 254 768 254 768 390 768 c 0,98,99
 652 768 652 768 696 508 c 1,100,101
 740 734 740 734 962 762 c 1,102,103
 928 762 928 762 902 800 c 0,104,105
 870 844 870 844 870 910 c 0,106,107
 870 1014 870 1014 942 1076 c 0,108,109
 1022 1148 1022 1148 1176 1146 c 0,110,111
 1490 1142 1490 1142 1490 950 c 0,0,1
1396 916 m 0,112,113
 1396 966 1396 966 1314 968 c 0,114,115
 1234 970 1234 970 1234 914 c 0,116,117
 1234 866 1234 866 1314 864 c 0,118,119
 1396 862 1396 862 1396 916 c 0,112,113
378 434 m 0,120,121
 376 480 376 480 348 515 c 128,-1,122
 320 550 320 550 266 550 c 0,123,124
 158 550 158 550 152 432 c 0,125,126
 150 372 150 372 184 337 c 128,-1,127
 218 302 218 302 250 302 c 0,128,129
 382 302 382 302 378 434 c 0,120,121
EndSplineSet
Ligature2: "'abvs' Above Base Substitutions lookup 6 subtable" tm_ja tm_iikaar
EndChar

StartChar: tm_ny_iikaar
Encoding: 65565 -1 145
Width: 1530
GlyphClass: 2
Flags: W
LayerCount: 2
Fore
SplineSet
1634 938 m 0,0,1
 1634 800 1634 800 1476 800 c 0,2,3
 1316 800 1316 800 1316 918 c 0,4,5
 1316 1020 1316 1020 1452 1020 c 0,6,7
 1514 1020 1514 1020 1538 1006 c 1,8,9
 1468 1080 1468 1080 1254 1080 c 0,10,11
 964 1080 964 1080 964 904 c 0,12,13
 964 780 964 780 1078 768 c 1,14,-1
 1188 768 l 1,15,-1
 1188 700 l 1,16,-1
 1054 700 l 1,17,-1
 1054 348 l 1,18,19
 1092 400 1092 400 1208 400 c 0,20,21
 1294 400 1294 400 1360 332 c 0,22,23
 1444 248 1444 248 1444 92 c 0,24,25
 1444 -160 1444 -160 1266 -284 c 0,26,27
 1110 -394 1110 -394 840 -394 c 0,28,29
 466 -394 466 -394 258 -188 c 0,30,31
 70 0 70 0 74 286 c 0,32,33
 78 536 78 536 222 726 c 1,34,-1
 276 688 l 1,35,36
 148 492 148 492 146 288 c 0,37,38
 144 14 144 14 334 -156 c 0,39,40
 528 -332 528 -332 842 -322 c 0,41,42
 1368 -304 1368 -304 1368 92 c 0,43,44
 1368 206 1368 206 1308 272 c 0,45,46
 1262 324 1262 324 1206 324 c 0,47,48
 1076 324 1076 324 1054 224 c 1,49,-1
 1054 0 l 1,50,-1
 990 0 l 1,51,-1
 990 700 l 1,52,-1
 754 700 l 1,53,54
 558 704 558 704 452 598 c 0,55,56
 364 508 364 508 362 370 c 1,57,58
 426 480 426 480 554 480 c 0,59,60
 656 480 656 480 720 412 c 128,-1,61
 784 344 784 344 784 250 c 0,62,63
 784 160 784 160 734 92 c 0,64,65
 668 6 668 6 538 0 c 0,66,67
 462 -4 462 -4 392 60 c 0,68,69
 290 154 290 154 290 350 c 0,70,71
 290 550 290 550 426 664 c 0,72,73
 552 768 552 768 758 768 c 2,74,-1
 962 768 l 1,75,76
 894 812 894 812 894 906 c 0,77,78
 894 1146 894 1146 1260 1146 c 0,79,80
 1436 1146 1436 1146 1535 1092 c 128,-1,81
 1634 1038 1634 1038 1634 938 c 0,0,1
702 248 m 0,82,83
 702 316 702 316 660 361 c 128,-1,84
 618 406 618 406 552 406 c 0,85,86
 478 406 478 406 435 353 c 128,-1,87
 392 300 392 300 392 232 c 256,88,89
 392 164 392 164 444 116 c 0,90,91
 488 72 488 72 536 72 c 0,92,93
 604 72 604 72 653 118 c 128,-1,94
 702 164 702 164 702 248 c 0,82,83
1538 912 m 0,95,96
 1538 960 1538 960 1454 960 c 0,97,98
 1378 960 1378 960 1378 906 c 0,99,100
 1378 856 1378 856 1456 856 c 0,101,102
 1538 856 1538 856 1538 912 c 0,95,96
EndSplineSet
Ligature2: "'abvs' Above Base Substitutions lookup 6 subtable" tm_nya tm_iikaar
EndChar

StartChar: tm_tt_iikaar
Encoding: 65566 -1 146
Width: 1022
GlyphClass: 2
Flags: W
LayerCount: 2
Fore
SplineSet
960 -4 m 1,0,-1
 56 -4 l 1,1,-1
 56 768 l 1,2,-1
 124 768 l 1,3,-1
 124 62 l 1,4,-1
 544 62 l 1,5,6
 500 82 500 82 450 172 c 0,7,8
 386 288 386 288 382 432 c 0,9,10
 374 766 374 766 672 766 c 0,11,12
 764 766 764 766 836 688 c 128,-1,13
 908 610 908 610 908 494 c 0,14,15
 908 404 908 404 868 336 c 0,16,17
 818 248 818 248 720 248 c 0,18,19
 610 248 610 248 558 338 c 0,20,21
 516 408 516 408 524 492 c 0,22,23
 538 652 538 652 658 682 c 1,24,25
 554 690 554 690 501 629 c 128,-1,26
 448 568 448 568 450 438 c 0,27,28
 452 320 452 320 516 206 c 128,-1,29
 580 92 580 92 658 62 c 1,30,-1
 960 62 l 1,31,-1
 960 -4 l 1,0,-1
816 462 m 0,32,33
 818 528 818 528 793 574 c 128,-1,34
 768 620 768 620 720 622 c 0,35,36
 676 624 676 624 642 592 c 0,37,38
 606 554 606 554 602 486 c 0,39,40
 598 410 598 410 632 367 c 128,-1,41
 666 324 666 324 712 324 c 0,42,43
 810 322 810 322 816 462 c 0,32,33
EndSplineSet
Ligature2: "'abvs' Above Base Substitutions lookup 5 subtable" tm_tta tm_iikaar
EndChar

StartChar: tm_nn_iikaar
Encoding: 65567 -1 147
Width: 2014
GlyphClass: 2
Flags: W
LayerCount: 2
Fore
SplineSet
2080 952 m 0,0,1
 2080 882 2080 882 2026 842 c 0,2,3
 1980 808 1980 808 1916 808 c 0,4,5
 1848 808 1848 808 1803 837 c 128,-1,6
 1758 866 1758 866 1758 914 c 0,7,8
 1758 1030 1758 1030 1906 1030 c 0,9,10
 1954 1030 1954 1030 1982 1016 c 1,11,12
 1970 1042 1970 1042 1920 1064 c 0,13,14
 1858 1088 1858 1088 1772 1088 c 0,15,16
 1516 1088 1516 1088 1516 918 c 0,17,18
 1516 802 1516 802 1678 768 c 1,19,-1
 1862 768 l 1,20,-1
 1862 702 l 1,21,-1
 1730 702 l 1,22,-1
 1730 0 l 1,23,-1
 1664 0 l 1,24,-1
 1664 702 l 1,25,-1
 1556 702 l 2,26,27
 1464 702 1464 702 1380 660 c 1,28,29
 1424 640 1424 640 1474 568 c 0,30,31
 1542 464 1542 464 1542 332 c 0,32,33
 1542 204 1542 204 1494 112 c 0,34,35
 1434 0 1434 0 1324 0 c 0,36,37
 1102 0 1102 0 1102 336 c 0,38,39
 1102 458 1102 458 1164 562 c 0,40,41
 1204 628 1204 628 1248 660 c 1,42,43
 1176 702 1176 702 1064 702 c 0,44,45
 960 702 960 702 884 662 c 1,46,47
 968 606 968 606 1012 504 c 0,48,49
 1046 424 1046 424 1046 340 c 0,50,51
 1046 178 1046 178 980 84 c 0,52,53
 920 0 920 0 830 0 c 0,54,55
 714 0 714 0 656 100 c 0,56,57
 606 184 606 184 606 326 c 0,58,59
 608 528 608 528 752 660 c 1,60,61
 676 708 676 708 538 708 c 0,62,63
 354 708 354 708 250 604 c 0,64,65
 160 516 160 516 154 386 c 1,66,67
 216 490 216 490 344 490 c 0,68,69
 446 490 446 490 512 418 c 0,70,71
 570 350 570 350 570 260 c 0,72,73
 570 166 570 166 522 96 c 0,74,75
 458 6 458 6 330 0 c 0,76,77
 256 -4 256 -4 186 64 c 0,78,79
 84 162 84 162 84 360 c 0,80,81
 84 552 84 552 216 664 c 0,82,83
 342 772 342 772 540 772 c 0,84,85
 716 772 716 772 814 704 c 1,86,87
 930 770 930 770 1066 770 c 0,88,89
 1116 770 1116 770 1192 752 c 0,90,91
 1278 732 1278 732 1312 706 c 1,92,93
 1354 736 1354 736 1440 754 c 0,94,95
 1512 770 1512 770 1550 768 c 1,96,97
 1448 810 1448 810 1448 922 c 256,98,99
 1448 1034 1448 1034 1540 1092 c 0,100,101
 1626 1146 1626 1146 1774 1146 c 0,102,103
 1944 1146 1944 1146 2024 1070 c 0,104,105
 2080 1018 2080 1018 2080 952 c 0,0,1
1984 920 m 0,106,107
 1984 970 1984 970 1902 970 c 0,108,109
 1822 970 1822 970 1822 916 c 0,110,111
 1822 866 1822 866 1902 866 c 0,112,113
 1984 866 1984 866 1984 920 c 0,106,107
1468 336 m 0,114,115
 1468 522 1468 522 1314 626 c 1,116,117
 1180 522 1180 522 1172 330 c 0,118,119
 1168 240 1168 240 1202 164 c 0,120,121
 1242 70 1242 70 1322 70 c 0,122,123
 1384 70 1384 70 1426 147 c 128,-1,124
 1468 224 1468 224 1468 336 c 0,114,115
972 342 m 0,125,126
 972 530 972 530 818 624 c 1,127,128
 678 524 678 524 678 326 c 0,129,130
 678 236 678 236 708 164 c 0,131,132
 748 70 748 70 824 70 c 0,133,134
 890 70 890 70 931 150 c 128,-1,135
 972 230 972 230 972 342 c 0,125,126
492 250 m 0,136,137
 492 318 492 318 450 367 c 128,-1,138
 408 416 408 416 344 416 c 0,139,140
 262 416 262 416 222 365 c 128,-1,141
 182 314 182 314 182 240 c 0,142,143
 182 168 182 168 229 121 c 128,-1,144
 276 74 276 74 330 74 c 0,145,146
 398 74 398 74 445 124 c 128,-1,147
 492 174 492 174 492 250 c 0,136,137
EndSplineSet
Ligature2: "'abvs' Above Base Substitutions lookup 6 subtable" tm_nna tm_iikaar
EndChar

StartChar: tm_t_iikaar
Encoding: 65568 -1 148
Width: 1146
GlyphClass: 2
Flags: W
LayerCount: 2
Fore
SplineSet
1172 946 m 0,0,1
 1172 846 1172 846 1098 814 c 0,2,3
 1070 802 1070 802 1000 800 c 0,4,5
 944 798 944 798 900 827 c 128,-1,6
 856 856 856 856 856 910 c 0,7,8
 856 1022 856 1022 990 1020 c 0,9,10
 1068 1018 1068 1018 1082 1004 c 1,11,12
 1014 1080 1014 1080 794 1080 c 0,13,14
 504 1080 504 1080 504 902 c 0,15,16
 504 834 504 834 548 798 c 0,17,18
 584 768 584 768 628 768 c 2,19,-1
 900 768 l 1,20,-1
 900 704 l 1,21,-1
 650 704 l 1,22,-1
 650 518 l 1,23,-1
 762 518 l 2,24,25
 888 518 888 518 966 460 c 0,26,27
 1068 386 1068 386 1068 228 c 0,28,29
 1068 -106 1068 -106 608 -112 c 0,30,31
 482 -110 482 -110 290 -116 c 1,32,33
 174 -130 174 -130 170 -194 c 1,34,-1
 90 -180 l 1,35,36
 102 -130 102 -130 124 -108 c 0,37,38
 160 -72 160 -72 250 -58 c 0,39,40
 314 -48 314 -48 612 -46 c 0,41,42
 998 -44 998 -44 998 248 c 0,43,44
 998 352 998 352 918 408 c 0,45,46
 850 452 850 452 758 452 c 2,47,-1
 650 452 l 1,48,-1
 650 364 l 2,49,50
 650 222 650 222 590 128 c 0,51,52
 510 0 510 0 338 0 c 0,53,54
 218 0 218 0 144 82 c 0,55,56
 76 158 76 158 76 262 c 256,57,58
 76 366 76 366 128 436 c 0,59,60
 186 514 186 514 290 518 c 1,61,-1
 290 768 l 1,62,-1
 500 768 l 1,63,64
 432 814 432 814 432 904 c 0,65,66
 432 1146 432 1146 798 1146 c 0,67,68
 964 1146 964 1146 1064 1096 c 0,69,70
 1172 1042 1172 1042 1172 946 c 0,0,1
1078 910 m 0,71,72
 1078 960 1078 960 996 960 c 0,73,74
 920 960 920 960 918 906 c 0,75,76
 916 856 916 856 1002 856 c 0,77,78
 1078 856 1078 856 1078 910 c 0,71,72
586 518 m 1,79,-1
 586 704 l 1,80,-1
 356 704 l 1,81,-1
 356 518 l 1,82,-1
 586 518 l 1,79,-1
586 410 m 2,83,-1
 586 452 l 1,84,-1
 316 452 l 2,85,86
 232 452 232 452 187 395 c 128,-1,87
 142 338 142 338 142 264 c 0,88,89
 142 172 142 172 198 120 c 128,-1,90
 254 68 254 68 342 68 c 0,91,92
 586 68 586 68 586 410 c 2,83,-1
EndSplineSet
Ligature2: "'abvs' Above Base Substitutions lookup 6 subtable" tm_ta tm_iikaar
EndChar

StartChar: tm_n_iikaar
Encoding: 65569 -1 149
Width: 940
GlyphClass: 2
Flags: W
LayerCount: 2
Fore
SplineSet
982 944 m 0,0,1
 982 800 982 800 818 800 c 0,2,3
 664 800 664 800 664 916 c 0,4,5
 666 1020 666 1020 804 1020 c 0,6,7
 872 1020 872 1020 888 1004 c 1,8,9
 822 1080 822 1080 594 1080 c 0,10,11
 312 1080 312 1080 312 904 c 0,12,13
 312 770 312 770 424 770 c 2,14,-1
 774 770 l 1,15,-1
 774 702 l 1,16,-1
 458 702 l 1,17,-1
 458 406 l 1,18,19
 524 472 524 472 648 472 c 0,20,21
 738 472 738 472 802 412 c 0,22,23
 876 346 876 346 876 234 c 0,24,25
 876 64 876 64 788 -22 c 0,26,27
 674 -130 674 -130 396 -126 c 0,28,29
 176 -122 176 -122 110 -132 c 0,30,31
 18 -146 18 -146 4 -202 c 1,32,-1
 -64 -186 l 1,33,34
 -32 -92 -32 -92 98 -72 c 0,35,36
 142 -66 142 -66 236 -66 c 0,37,38
 356 -68 356 -68 376 -68 c 0,39,40
 574 -60 574 -60 640 -36 c 0,41,42
 814 26 814 26 814 226 c 0,43,44
 814 310 814 310 763 360 c 128,-1,45
 712 410 712 410 640 410 c 0,46,47
 512 410 512 410 456 300 c 1,48,-1
 456 0 l 1,49,-1
 392 0 l 1,50,-1
 392 702 l 1,51,-1
 164 702 l 1,52,-1
 164 0 l 1,53,-1
 100 0 l 1,54,-1
 100 768 l 1,55,-1
 312 768 l 1,56,57
 240 802 240 802 240 908 c 0,58,59
 240 1146 240 1146 610 1146 c 0,60,61
 808 1146 808 1146 904 1082 c 0,62,63
 982 1028 982 1028 982 944 c 0,0,1
886 910 m 0,64,65
 886 958 886 958 806 960 c 0,66,67
 782 960 782 960 766 954 c 0,68,69
 726 942 726 942 726 908 c 0,70,71
 726 858 726 858 812 856 c 0,72,73
 886 858 886 858 886 910 c 0,64,65
EndSplineSet
Ligature2: "'abvs' Above Base Substitutions lookup 6 subtable" tm_na tm_iikaar
EndChar

StartChar: tm_nnn_iikaar
Encoding: 65570 -1 150
Width: 1516
GlyphClass: 2
Flags: W
LayerCount: 2
Fore
SplineSet
1574 952 m 0,0,1
 1574 878 1574 878 1520 838 c 0,2,3
 1476 806 1476 806 1422 808 c 0,4,5
 1258 812 1258 812 1258 922 c 0,6,7
 1258 970 1258 970 1296 1000 c 128,-1,8
 1334 1030 1334 1030 1398 1030 c 0,9,10
 1444 1030 1444 1030 1478 1016 c 1,11,12
 1428 1086 1428 1086 1266 1086 c 0,13,14
 1114 1086 1114 1086 1052 1008 c 0,15,16
 1016 964 1016 964 1016 910 c 0,17,18
 1016 796 1016 796 1134 768 c 1,19,-1
 1324 768 l 1,20,-1
 1324 702 l 1,21,-1
 1192 702 l 1,22,-1
 1192 0 l 1,23,-1
 1126 0 l 1,24,-1
 1126 702 l 1,25,-1
 1016 702 l 2,26,27
 928 702 928 702 844 660 c 1,28,29
 1004 550 1004 550 1004 330 c 0,30,31
 1004 168 1004 168 934 78 c 0,32,33
 872 0 872 0 780 0 c 0,34,35
 672 0 672 0 614 98 c 0,36,37
 564 186 564 186 564 326 c 0,38,39
 564 432 564 432 610 528 c 0,40,41
 650 612 650 612 710 658 c 1,42,43
 642 708 642 708 496 708 c 0,44,45
 320 708 320 708 212 606 c 0,46,47
 118 516 118 516 114 388 c 1,48,49
 174 490 174 490 298 490 c 0,50,51
 398 490 398 490 463 422 c 128,-1,52
 528 354 528 354 528 262 c 256,53,54
 528 170 528 170 482 100 c 0,55,56
 418 6 418 6 290 0 c 0,57,58
 216 -4 216 -4 144 64 c 0,59,60
 40 160 40 160 40 358 c 0,61,62
 40 552 40 552 182 668 c 0,63,64
 312 772 312 772 500 772 c 0,65,66
 672 772 672 772 774 706 c 1,67,68
 878 766 878 766 1026 766 c 1,69,70
 944 810 944 810 944 914 c 0,71,72
 944 1016 944 1016 1022 1078 c 0,73,74
 1108 1146 1108 1146 1266 1146 c 0,75,76
 1398 1146 1398 1146 1482 1098 c 0,77,78
 1574 1046 1574 1046 1574 952 c 0,0,1
1480 918 m 0,79,80
 1480 968 1480 968 1404 968 c 0,81,82
 1320 968 1320 968 1320 912 c 0,83,84
 1320 864 1320 864 1398 864 c 0,85,86
 1480 864 1480 864 1480 918 c 0,79,80
930 332 m 0,87,88
 930 526 930 526 778 624 c 1,89,90
 636 528 636 528 636 326 c 0,91,92
 636 238 636 238 666 166 c 0,93,94
 706 70 706 70 780 70 c 256,95,96
 854 70 854 70 896 168 c 0,97,98
 930 244 930 244 930 332 c 0,87,88
452 256 m 0,99,100
 452 322 452 322 408 369 c 128,-1,101
 364 416 364 416 304 416 c 0,102,103
 224 416 224 416 180 362 c 0,104,105
 142 316 142 316 142 246 c 0,106,107
 142 170 142 170 188 122 c 128,-1,108
 234 74 234 74 290 74 c 0,109,110
 356 74 356 74 404 123 c 128,-1,111
 452 172 452 172 452 256 c 0,99,100
EndSplineSet
Ligature2: "'abvs' Above Base Substitutions lookup 6 subtable" tm_nnna tm_iikaar
EndChar

StartChar: tm_p_iikaar
Encoding: 65571 -1 151
Width: 992
GlyphClass: 2
Flags: W
LayerCount: 2
Fore
SplineSet
1044 950 m 0,0,1
 1044 806 1044 806 894 806 c 0,2,3
 728 806 728 806 728 916 c 0,4,5
 728 1028 728 1028 868 1028 c 0,6,7
 916 1028 916 1028 950 1014 c 1,8,9
 886 1084 886 1084 720 1084 c 0,10,11
 572 1084 572 1084 506 1008 c 0,12,13
 462 956 462 956 462 882 c 0,14,15
 462 762 462 762 526 712 c 0,16,17
 582 664 582 664 714 660 c 1,18,-1
 714 768 l 1,19,-1
 782 768 l 1,20,-1
 782 0 l 1,21,-1
 74 0 l 1,22,-1
 74 768 l 1,23,-1
 142 768 l 1,24,-1
 142 64 l 1,25,-1
 714 64 l 1,26,-1
 714 596 l 1,27,28
 394 606 394 606 394 870 c 0,29,30
 394 1144 394 1144 724 1144 c 0,31,32
 1044 1144 1044 1144 1044 950 c 0,0,1
952 916 m 0,33,34
 952 960 952 960 874 964 c 1,35,36
 790 964 790 964 790 912 c 256,37,38
 790 860 790 860 872 858 c 1,39,40
 952 862 952 862 952 916 c 0,33,34
EndSplineSet
Ligature2: "'abvs' Above Base Substitutions lookup 6 subtable" tm_pa tm_iikaar
EndChar

StartChar: tm_m_iikaar
Encoding: 65572 -1 152
Width: 1124
GlyphClass: 2
Flags: W
LayerCount: 2
Fore
SplineSet
1156 976 m 1,0,1
 1170 806 1170 806 1000 806 c 0,2,3
 842 806 842 806 842 920 c 0,4,5
 842 1028 842 1028 974 1028 c 0,6,7
 1044 1028 1044 1028 1066 1012 c 1,8,9
 1040 1032 1040 1032 1014 1052 c 1,10,11
 952 1086 952 1086 850 1086 c 0,12,13
 610 1086 610 1086 610 904 c 0,14,15
 610 780 610 780 741 770 c 128,-1,16
 872 760 872 760 956 662 c 0,17,18
 1044 558 1044 558 1044 394 c 0,19,20
 1044 202 1044 202 912 96 c 0,21,22
 792 0 792 0 598 0 c 2,23,-1
 82 0 l 1,24,-1
 82 768 l 1,25,-1
 148 768 l 1,26,-1
 148 64 l 1,27,-1
 466 64 l 1,28,-1
 466 570 l 2,29,30
 466 642 466 642 504 696 c 128,-1,31
 542 750 542 750 612 760 c 1,32,33
 538 800 538 800 538 906 c 0,34,35
 538 1146 538 1146 852 1146 c 0,36,37
 1124 1146 1124 1146 1156 976 c 1,0,1
1066 914 m 0,38,39
 1066 962 1066 962 988 966 c 1,40,41
 904 966 904 966 904 912 c 0,42,43
 904 862 904 862 980 860 c 1,44,45
 1066 864 1066 864 1066 914 c 0,38,39
976 396 m 0,46,47
 976 566 976 566 884 646 c 0,48,49
 814 706 814 706 706 706 c 0,50,51
 634 706 634 706 586 675 c 128,-1,52
 538 644 538 644 538 586 c 2,53,-1
 538 68 l 1,54,55
 976 68 976 68 976 396 c 0,46,47
EndSplineSet
Ligature2: "'abvs' Above Base Substitutions lookup 6 subtable" tm_ma tm_iikaar
EndChar

StartChar: tm_y_iikaar
Encoding: 65573 -1 153
Width: 1242
GlyphClass: 2
Flags: W
LayerCount: 2
Fore
SplineSet
1332 968 m 0,0,1
 1346 806 1346 806 1174 806 c 0,2,3
 1014 806 1014 806 1014 922 c 0,4,5
 1014 1030 1014 1030 1160 1030 c 0,6,7
 1188 1030 1188 1030 1236 1014 c 1,8,9
 1192 1084 1192 1084 1014 1084 c 0,10,11
 858 1084 858 1084 790 1004 c 0,12,13
 748 952 748 952 748 882 c 0,14,15
 748 766 748 766 808 715 c 128,-1,16
 868 664 868 664 1002 660 c 1,17,-1
 1002 768 l 1,18,-1
 1068 768 l 1,19,-1
 1068 0 l 1,20,-1
 440 0 l 1,21,-1
 440 128 l 1,22,23
 388 -4 388 -4 258 -4 c 0,24,25
 66 -4 66 -4 66 252 c 2,26,-1
 66 768 l 1,27,-1
 132 768 l 1,28,-1
 132 242 l 2,29,30
 132 60 132 60 262 60 c 0,31,32
 382 60 382 60 440 292 c 1,33,-1
 440 768 l 1,34,-1
 506 768 l 1,35,-1
 506 64 l 1,36,-1
 1002 64 l 1,37,-1
 1002 596 l 1,38,39
 680 608 680 608 680 878 c 0,40,41
 680 1144 680 1144 1014 1144 c 0,42,43
 1314 1144 1314 1144 1332 968 c 0,0,1
1240 914 m 0,44,45
 1240 962 1240 962 1162 964 c 0,46,47
 1078 966 1078 966 1078 914 c 0,48,49
 1078 864 1078 864 1156 858 c 1,50,51
 1240 864 1240 864 1240 914 c 0,44,45
EndSplineSet
Ligature2: "'abvs' Above Base Substitutions lookup 6 subtable" tm_ya tm_iikaar
EndChar

StartChar: tm_r_iikaar
Encoding: 65574 -1 154
Width: 734
GlyphClass: 2
Flags: W
LayerCount: 2
Fore
SplineSet
678 702 m 1,0,-1
 426 702 l 1,1,-1
 426 -78 l 1,2,-1
 74 -212 l 1,3,-1
 74 -150 l 1,4,-1
 360 -36 l 1,5,-1
 360 702 l 1,6,-1
 142 702 l 1,7,-1
 142 0 l 1,8,-1
 74 0 l 1,9,-1
 74 768 l 1,10,-1
 286 768 l 1,11,12
 214 802 214 802 214 908 c 0,13,14
 214 1146 214 1146 584 1146 c 0,15,16
 782 1146 782 1146 878 1082 c 0,17,18
 956 1028 956 1028 956 944 c 0,19,20
 956 800 956 800 792 800 c 0,21,22
 638 800 638 800 638 916 c 0,23,24
 640 1020 640 1020 778 1020 c 0,25,26
 844 1020 844 1020 861 1005 c 1,27,28
 794 1080 794 1080 568 1080 c 0,29,30
 286 1080 286 1080 286 904 c 0,31,32
 286 768 286 768 398 768 c 2,33,-1
 678 768 l 1,34,-1
 678 702 l 1,0,-1
886 910 m 0,35,36
 886 958 886 958 806 960 c 0,37,38
 782 960 782 960 766 954 c 0,39,40
 726 942 726 942 726 908 c 0,41,42
 726 858 726 858 812 856 c 0,43,44
 886 858 886 858 886 910 c 0,35,36
EndSplineSet
Ligature2: "'abvs' Above Base Substitutions lookup 5 subtable" tm_ra tm_iikaar
EndChar

StartChar: tm_rr_iikaar
Encoding: 65575 -1 155
Width: 1058
GlyphClass: 2
Flags: W
LayerCount: 2
Fore
SplineSet
1130 948 m 0,0,1
 1130 806 1130 806 978 806 c 0,2,3
 814 806 814 806 814 920 c 0,4,5
 814 1028 814 1028 962 1028 c 0,6,7
 998 1028 998 1028 1036 1012 c 1,8,9
 976 1084 976 1084 814 1084 c 0,10,11
 582 1084 582 1084 582 904 c 0,12,13
 582 830 582 830 638 792 c 1,14,15
 672 778 672 778 706 764 c 1,16,17
 810 766 810 766 864 713 c 128,-1,18
 918 660 918 660 918 572 c 0,19,20
 918 438 918 438 828 402 c 1,21,22
 914 374 914 374 914 182 c 0,23,24
 914 56 914 56 872 -8 c 0,25,26
 782 -148 782 -148 504 -148 c 0,27,28
 430 -148 430 -148 344 -138 c 0,29,30
 312 -134 312 -134 272 -134 c 0,31,32
 58 -134 58 -134 22 -214 c 1,33,-1
 -44 -198 l 1,34,35
 20 -84 20 -84 252 -84 c 0,36,37
 290 -84 290 -84 364 -89 c 128,-1,38
 438 -94 438 -94 476 -94 c 0,39,40
 716 -94 716 -94 796 -6 c 0,41,42
 850 52 850 52 850 190 c 0,43,44
 850 352 850 352 754 366 c 1,45,-1
 754 426 l 1,46,47
 850 450 850 450 850 572 c 0,48,49
 850 622 850 622 822 656 c 0,50,51
 784 704 784 704 708 704 c 0,52,53
 608 704 608 704 560 640 c 0,54,55
 522 590 522 590 522 516 c 2,56,-1
 522 -2 l 1,57,-1
 438 -2 l 1,58,-1
 438 524 l 2,59,60
 438 704 438 704 290 704 c 0,61,62
 220 704 220 704 181 665 c 128,-1,63
 142 626 142 626 142 564 c 2,64,-1
 142 -2 l 1,65,-1
 78 -2 l 1,66,-1
 78 584 l 2,67,68
 78 664 78 664 133 715 c 128,-1,69
 188 766 188 766 282 766 c 0,70,71
 456 766 456 766 490 626 c 1,72,73
 496 652 496 652 510 674 c 0,74,75
 544 728 544 728 614 752 c 1,76,77
 512 778 512 778 512 910 c 0,78,79
 512 1004 512 1004 572 1066 c 0,80,81
 650 1144 650 1144 810 1144 c 0,82,83
 1130 1144 1130 1144 1130 948 c 0,0,1
1038 910 m 0,84,85
 1044 964 1044 964 958 964 c 0,86,87
 878 964 878 964 876 914 c 0,88,89
 874 860 874 860 954 860 c 0,90,91
 1032 860 1032 860 1038 910 c 0,84,85
EndSplineSet
Ligature2: "'abvs' Above Base Substitutions lookup 6 subtable" tm_rra tm_iikaar
EndChar

StartChar: tm_l_iikaar
Encoding: 65576 -1 156
Width: 1318
GlyphClass: 2
Flags: W
LayerCount: 2
Fore
SplineSet
1408 970 m 0,0,1
 1424 808 1424 808 1252 808 c 0,2,3
 1092 808 1092 808 1092 924 c 0,4,5
 1092 1030 1092 1030 1236 1030 c 0,6,7
 1266 1030 1266 1030 1314 1016 c 1,8,9
 1270 1084 1270 1084 1092 1084 c 0,10,11
 934 1084 934 1084 868 1004 c 0,12,13
 826 954 826 954 826 882 c 0,14,15
 826 650 826 650 1064 660 c 1,16,17
 1006 708 1006 708 906 706 c 1,18,-1
 906 770 l 1,19,20
 1068 774 1068 774 1152 664 c 0,21,22
 1224 570 1224 570 1226 408 c 0,23,24
 1228 240 1228 240 1158 124 c 0,25,26
 1082 0 1082 0 954 0 c 0,27,28
 802 0 802 0 738 82 c 0,29,30
 668 174 668 174 668 398 c 0,31,32
 668 700 668 700 406 700 c 0,33,34
 168 700 168 700 116 458 c 0,35,36
 112 440 112 440 112 384 c 1,37,38
 128 412 128 412 152 434 c 0,39,40
 208 484 208 484 294 486 c 0,41,42
 396 488 396 488 463 424 c 128,-1,43
 530 360 530 360 530 256 c 0,44,45
 530 164 530 164 486 96 c 0,46,47
 426 4 426 4 304 -2 c 0,48,49
 202 -6 202 -6 132 72 c 0,50,51
 40 176 40 176 44 390 c 0,52,53
 48 552 48 552 147 660 c 128,-1,54
 246 768 246 768 410 768 c 0,55,56
 748 768 748 768 748 380 c 0,57,58
 748 206 748 206 794 136 c 128,-1,59
 840 66 840 66 952 66 c 0,60,61
 1054 66 1054 66 1114 184 c 0,62,63
 1166 282 1166 282 1164 398 c 0,64,65
 1162 526 1162 526 1112 606 c 1,66,67
 1080 600 1080 600 1048 600 c 0,68,69
 926 600 926 600 846 670 c 0,70,71
 758 744 758 744 758 880 c 0,72,73
 758 1146 758 1146 1092 1146 c 0,74,75
 1390 1146 1390 1146 1408 970 c 0,0,1
1318 916 m 0,76,77
 1318 964 1318 964 1240 966 c 0,78,79
 1156 968 1156 968 1156 916 c 0,80,81
 1156 866 1156 866 1234 860 c 1,82,83
 1318 866 1318 866 1318 916 c 0,76,77
452 256 m 0,84,85
 452 318 452 318 416 360 c 0,86,87
 372 410 372 410 294 410 c 0,88,89
 220 410 220 410 178 350 c 0,90,91
 142 302 142 302 142 240 c 0,92,93
 142 160 142 160 198 114 c 0,94,95
 244 76 244 76 290 76 c 0,96,97
 360 76 360 76 406 128 c 128,-1,98
 452 180 452 180 452 256 c 0,84,85
EndSplineSet
Ligature2: "'abvs' Above Base Substitutions lookup 5 subtable" tm_la tm_iikaar
EndChar

StartChar: tm_ll_iikaar
Encoding: 65577 -1 157
Width: 1450
GlyphClass: 2
Flags: W
LayerCount: 2
Fore
SplineSet
1522 952 m 0,0,1
 1522 880 1522 880 1470 840 c 0,2,3
 1428 808 1428 808 1370 808 c 0,4,5
 1202 808 1202 808 1204 918 c 0,6,7
 1206 1030 1206 1030 1344 1030 c 0,8,9
 1386 1030 1386 1030 1400 1025 c 128,-1,10
 1414 1020 1414 1020 1426 1016 c 1,11,12
 1370 1086 1370 1086 1206 1086 c 0,13,14
 974 1086 974 1086 974 900 c 0,15,16
 974 786 974 786 1078 768 c 1,17,-1
 1272 768 l 1,18,-1
 1272 702 l 1,19,-1
 1138 702 l 1,20,-1
 1138 0 l 1,21,-1
 1074 0 l 1,22,-1
 1074 702 l 1,23,-1
 824 702 l 1,24,-1
 824 0 l 1,25,-1
 760 0 l 1,26,-1
 760 442 l 2,27,28
 760 566 760 566 656 640 c 0,29,30
 566 704 566 704 452 704 c 0,31,32
 288 704 288 704 204 604 c 0,33,34
 134 520 134 520 134 380 c 1,35,36
 162 424 162 424 215 452 c 128,-1,37
 268 480 268 480 320 480 c 0,38,39
 424 480 424 480 490 411 c 128,-1,40
 556 342 556 342 556 246 c 0,41,42
 556 158 556 158 504 86 c 0,43,44
 438 -4 438 -4 310 -10 c 0,45,46
 236 -12 236 -12 168 52 c 0,47,48
 66 148 66 148 66 344 c 0,49,50
 66 546 66 546 164 660 c 128,-1,51
 262 774 262 774 458 774 c 0,52,53
 548 774 548 774 633 738 c 128,-1,54
 718 702 718 702 758 638 c 1,55,-1
 758 768 l 1,56,-1
 968 768 l 1,57,58
 900 808 900 808 900 914 c 0,59,60
 900 986 900 986 940 1040 c 0,61,62
 1014 1146 1014 1146 1210 1146 c 0,63,64
 1354 1146 1354 1146 1438 1094 c 128,-1,65
 1522 1042 1522 1042 1522 952 c 0,0,1
1428 916 m 256,66,67
 1428 968 1428 968 1342 968 c 0,68,69
 1266 968 1266 968 1266 914 c 0,70,71
 1266 864 1266 864 1348 864 c 0,72,73
 1428 864 1428 864 1428 916 c 256,66,67
472 238 m 0,74,75
 472 304 472 304 432 353 c 128,-1,76
 392 402 392 402 320 404 c 0,77,78
 244 406 244 406 200 348 c 0,79,80
 160 298 160 298 162 232 c 256,81,82
 164 166 164 166 208 118 c 128,-1,83
 252 70 252 70 304 70 c 0,84,85
 372 70 372 70 422 116 c 128,-1,86
 472 162 472 162 472 238 c 0,74,75
EndSplineSet
Ligature2: "'abvs' Above Base Substitutions lookup 6 subtable" tm_lla tm_iikaar
EndChar

StartChar: tm_lll_iikaar
Encoding: 65578 -1 158
Width: 1120
GlyphClass: 2
Flags: W
LayerCount: 2
Fore
SplineSet
1148 948 m 0,0,1
 1148 802 1148 802 988 802 c 0,2,3
 822 802 822 802 832 924 c 1,4,5
 832 1024 832 1024 972 1024 c 0,6,7
 1030 1024 1030 1024 1056 1006 c 1,8,9
 990 1082 990 1082 844 1082 c 0,10,11
 600 1082 600 1082 600 904 c 0,12,13
 600 788 600 788 720 766 c 1,14,15
 834 766 834 766 924 682 c 0,16,17
 1034 580 1034 580 1034 400 c 0,18,19
 1034 -6 1034 -6 528 -6 c 1,20,-1
 528 -34 l 2,21,22
 528 -70 528 -70 560 -108 c 0,23,24
 610 -164 610 -164 706 -164 c 0,25,26
 738 -164 738 -164 774 -158 c 1,27,28
 814 -90 814 -90 928 -90 c 0,29,30
 1050 -90 1050 -90 1050 -160 c 0,31,32
 1050 -210 1050 -210 952 -228 c 0,33,34
 876 -244 876 -244 816 -236 c 1,35,36
 734 -422 734 -422 422 -422 c 0,37,38
 218 -422 218 -422 120 -334 c 0,39,40
 44 -268 44 -268 44 -170 c 0,41,42
 44 -98 44 -98 74 -80 c 1,43,-1
 124 -128 l 1,44,45
 114 -154 114 -154 114 -178 c 0,46,47
 114 -254 114 -254 195 -306 c 128,-1,48
 276 -358 276 -358 410 -358 c 0,49,50
 542 -358 542 -358 632 -318 c 0,51,52
 710 -284 710 -284 734 -230 c 1,53,54
 456 -232 456 -232 456 -4 c 1,55,-1
 72 -6 l 1,56,-1
 72 764 l 1,57,-1
 138 764 l 1,58,-1
 138 60 l 1,59,-1
 458 60 l 1,60,-1
 458 572 l 2,61,62
 458 642 458 642 495 694 c 128,-1,63
 532 746 532 746 600 758 c 1,64,65
 528 796 528 796 528 906 c 0,66,67
 528 1140 528 1140 844 1140 c 0,68,69
 1008 1140 1008 1140 1088 1070 c 0,70,71
 1148 1018 1148 1018 1148 948 c 0,0,1
1056 910 m 0,72,73
 1056 958 1056 958 974 962 c 0,74,75
 950 962 950 962 934 956 c 0,76,77
 892 944 892 944 892 910 c 0,78,79
 892 860 892 860 970 856 c 1,80,81
 1056 860 1056 860 1056 910 c 0,72,73
966 400 m 0,82,83
 966 562 966 562 876 640 c 0,84,85
 806 700 806 700 700 700 c 0,86,87
 528 700 528 700 528 584 c 2,88,-1
 528 60 l 1,89,90
 966 60 966 60 966 400 c 0,82,83
EndSplineSet
Ligature2: "'abvs' Above Base Substitutions lookup 6 subtable" tm_llla tm_iikaar
EndChar

StartChar: tm_v_iikaar
Encoding: 65579 -1 159
Width: 1432
GlyphClass: 2
Flags: W
LayerCount: 2
Fore
SplineSet
1468 944 m 0,0,1
 1468 806 1468 806 1312 806 c 0,2,3
 1152 806 1152 806 1152 916 c 0,4,5
 1152 1028 1152 1028 1290 1028 c 0,6,7
 1316 1028 1316 1028 1372 1014 c 1,8,9
 1324 1084 1324 1084 1144 1084 c 0,10,11
 1012 1084 1012 1084 947 1027 c 128,-1,12
 882 970 882 970 882 882 c 0,13,14
 882 756 882 756 956 706 c 0,15,16
 1010 670 1010 670 1138 662 c 1,17,-1
 1138 768 l 1,18,-1
 1204 768 l 1,19,-1
 1204 2 l 1,20,-1
 646 2 l 1,21,22
 858 172 858 172 858 368 c 0,23,24
 858 526 858 526 765 618 c 128,-1,25
 672 710 672 710 500 714 c 0,26,27
 330 718 330 718 232 616 c 0,28,29
 146 526 146 526 142 396 c 1,30,31
 204 502 204 502 332 502 c 0,32,33
 436 502 436 502 502 430 c 128,-1,34
 568 358 568 358 568 262 c 0,35,36
 568 168 568 168 516 96 c 0,37,38
 450 4 450 4 320 -2 c 0,39,40
 250 -6 250 -6 178 62 c 0,41,42
 74 160 74 160 74 358 c 256,43,44
 74 556 74 556 194 666 c 128,-1,45
 314 776 314 776 528 776 c 0,46,47
 650 776 650 776 760 706 c 0,48,49
 930 598 930 598 930 366 c 0,50,51
 930 182 930 182 816 66 c 1,52,-1
 1138 66 l 1,53,-1
 1138 596 l 1,54,55
 814 616 814 616 814 882 c 0,56,57
 814 1012 814 1012 906 1080 c 0,58,59
 992 1144 992 1144 1146 1144 c 0,60,61
 1468 1144 1468 1144 1468 944 c 0,0,1
1376 914 m 0,62,63
 1380 962 1380 962 1298 966 c 0,64,65
 1214 970 1214 970 1214 918 c 0,66,67
 1214 860 1214 860 1290 860 c 0,68,69
 1372 860 1372 860 1376 914 c 0,62,63
486 256 m 0,70,71
 486 328 486 328 448 376 c 0,72,73
 404 430 404 430 330 430 c 0,74,75
 248 430 248 430 206 370 c 0,76,77
 170 320 170 320 170 246 c 0,78,79
 170 170 170 170 222 120 c 0,80,81
 266 74 266 74 320 74 c 0,82,83
 390 74 390 74 438 128 c 128,-1,84
 486 182 486 182 486 256 c 0,70,71
EndSplineSet
Ligature2: "'abvs' Above Base Substitutions lookup 6 subtable" tm_va tm_iikaar
EndChar

StartChar: tm_ss_iikaar
Encoding: 65580 -1 160
Width: 1650
GlyphClass: 2
Flags: W
LayerCount: 2
Fore
SplineSet
1790 954 m 0,0,1
 1790 808 1790 808 1630 808 c 0,2,3
 1464 808 1464 808 1474 930 c 1,4,5
 1474 1030 1474 1030 1614 1030 c 0,6,7
 1672 1030 1672 1030 1698 1012 c 1,8,9
 1632 1088 1632 1088 1486 1088 c 0,10,11
 1242 1088 1242 1088 1242 910 c 0,12,13
 1242 782 1242 782 1358 760 c 0,14,15
 1424 748 1424 748 1470 688 c 0,16,17
 1524 620 1524 620 1524 524 c 256,18,19
 1524 428 1524 428 1484 330 c 2,20,-1
 1376 64 l 1,21,-1
 1576 64 l 1,22,-1
 1576 0 l 1,23,-1
 1350 0 l 1,24,-1
 1262 -208 l 1,25,-1
 1184 -208 l 1,26,-1
 1272 0 l 1,27,-1
 634 0 l 1,28,29
 748 96 748 96 790 162 c 0,30,31
 844 248 844 248 844 370 c 0,32,33
 844 524 844 524 745 616 c 128,-1,34
 646 708 646 708 478 708 c 0,35,36
 306 708 306 708 212 602 c 0,37,38
 136 516 136 516 128 388 c 1,39,40
 194 498 194 498 316 498 c 0,41,42
 422 498 422 498 488 430 c 128,-1,43
 554 362 554 362 554 256 c 0,44,45
 554 160 554 160 498 92 c 0,46,47
 432 6 432 6 304 0 c 0,48,49
 234 -4 234 -4 164 64 c 0,50,51
 62 160 62 160 62 350 c 0,52,53
 62 546 62 546 179 660 c 128,-1,54
 296 774 296 774 492 774 c 0,55,56
 636 774 636 774 748 704 c 0,57,58
 918 600 918 600 918 370 c 0,59,60
 918 180 918 180 804 64 c 1,61,-1
 1184 64 l 1,62,63
 1044 168 1044 168 1018 390 c 0,64,65
 1014 428 1014 428 1014 464 c 0,66,67
 1014 604 1014 604 1078 684 c 0,68,69
 1140 758 1140 758 1242 764 c 1,70,71
 1170 802 1170 802 1170 912 c 0,72,73
 1170 1146 1170 1146 1486 1146 c 0,74,75
 1650 1146 1650 1146 1730 1076 c 0,76,77
 1790 1024 1790 1024 1790 954 c 0,0,1
1698 916 m 0,78,79
 1698 964 1698 964 1616 968 c 0,80,81
 1592 968 1592 968 1576 962 c 0,82,83
 1534 950 1534 950 1534 916 c 0,84,85
 1534 866 1534 866 1612 862 c 1,86,87
 1698 866 1698 866 1698 916 c 0,78,79
1422 402 m 2,88,89
 1440 446 1440 446 1440 514 c 0,90,91
 1440 694 1440 694 1280 694 c 0,92,93
 1152 694 1152 694 1108 572 c 0,94,95
 1090 520 1090 520 1090 458 c 0,96,97
 1090 332 1090 332 1156 212 c 128,-1,98
 1222 92 1222 92 1296 70 c 1,99,-1
 1422 402 l 2,88,89
474 254 m 0,100,101
 476 326 476 326 433 376 c 128,-1,102
 390 426 390 426 320 426 c 0,103,104
 242 426 242 426 198 370 c 0,105,106
 158 322 158 322 158 248 c 0,107,108
 158 166 158 166 208 116 c 0,109,110
 250 72 250 72 304 72 c 0,111,112
 370 72 370 72 421 119 c 128,-1,113
 472 166 472 166 474 254 c 0,100,101
EndSplineSet
Ligature2: "'abvs' Above Base Substitutions lookup 6 subtable" tm_ssa tm_iikaar
EndChar

StartChar: tm_s_iikaar
Encoding: 65581 -1 161
Width: 1736
GlyphClass: 2
Flags: W
LayerCount: 2
Fore
SplineSet
1854 946 m 0,0,1
 1856 934 1856 934 1856 920 c 0,2,3
 1856 784 1856 784 1700 784 c 0,4,5
 1538 784 1538 784 1538 900 c 0,6,7
 1538 1006 1538 1006 1682 1006 c 0,8,9
 1712 1006 1712 1006 1760 990 c 1,10,11
 1716 1060 1716 1060 1538 1060 c 0,12,13
 1380 1060 1380 1060 1314 980 c 0,14,15
 1272 930 1272 930 1272 858 c 0,16,17
 1272 626 1272 626 1510 636 c 1,18,19
 1448 686 1448 686 1352 680 c 1,20,-1
 1352 746 l 1,21,22
 1526 752 1526 752 1612 620 c 0,23,24
 1672 526 1672 526 1672 402 c 0,25,26
 1672 262 1672 262 1616 150 c 0,27,28
 1540 -2 1540 -2 1396 -2 c 0,29,30
 1258 -2 1258 -2 1197 81 c 128,-1,31
 1136 164 1136 164 1136 352 c 128,-1,32
 1136 540 1136 540 1112 604 c 0,33,34
 1078 694 1078 694 988 694 c 0,35,36
 826 694 826 694 836 436 c 1,37,-1
 836 0 l 1,38,-1
 766 0 l 1,39,-1
 766 424 l 2,40,41
 766 548 766 548 677 623 c 128,-1,42
 588 698 588 698 460 698 c 0,43,44
 144 698 144 698 144 372 c 1,45,46
 200 472 200 472 330 472 c 0,47,48
 434 472 434 472 500 400 c 0,49,50
 560 334 560 334 560 238 c 0,51,52
 560 146 560 146 510 76 c 0,53,54
 444 -16 444 -16 318 -16 c 0,55,56
 242 -16 242 -16 174 48 c 0,57,58
 70 144 70 144 70 336 c 0,59,60
 70 542 70 542 173 655 c 128,-1,61
 276 768 276 768 462 768 c 0,62,63
 586 768 586 768 682 710 c 0,64,65
 762 662 762 662 788 598 c 1,66,67
 824 760 824 760 992 760 c 0,68,69
 1138 760 1138 760 1182 622 c 0,70,71
 1208 542 1208 542 1206 332 c 0,72,73
 1204 176 1204 176 1260 112 c 0,74,75
 1304 62 1304 62 1398 62 c 0,76,77
 1504 62 1504 62 1562 166 c 0,78,79
 1610 254 1610 254 1610 376 c 0,80,81
 1610 502 1610 502 1556 582 c 1,82,83
 1524 576 1524 576 1492 576 c 0,84,85
 1370 576 1370 576 1292 646 c 0,86,87
 1204 722 1204 722 1204 856 c 0,88,89
 1204 1122 1204 1122 1538 1122 c 0,90,91
 1836 1122 1836 1122 1854 946 c 0,0,1
1764 892 m 0,92,93
 1764 940 1764 940 1686 942 c 0,94,95
 1602 944 1602 944 1602 892 c 0,96,97
 1602 842 1602 842 1680 836 c 1,98,99
 1764 842 1764 842 1764 892 c 0,92,93
478 240 m 0,100,101
 478 318 478 318 426 362 c 0,102,103
 384 398 384 398 330 398 c 0,104,105
 250 398 250 398 204 340 c 0,106,107
 168 294 168 294 168 228 c 256,108,109
 168 162 168 162 213 113 c 128,-1,110
 258 64 258 64 316 64 c 0,111,112
 380 64 380 64 429 109 c 128,-1,113
 478 154 478 154 478 240 c 0,100,101
EndSplineSet
Ligature2: "'abvs' Above Base Substitutions lookup 5 subtable" tm_sa tm_iikaar
EndChar

StartChar: tm_h_iikaar
Encoding: 65582 -1 162
Width: 1920
GlyphClass: 2
Flags: W
LayerCount: 2
Fore
SplineSet
2022 952 m 0,0,1
 2022 808 2022 808 1866 808 c 0,2,3
 1704 808 1704 808 1704 922 c 0,4,5
 1704 1030 1704 1030 1852 1030 c 0,6,7
 1894 1030 1894 1030 1926 1016 c 1,8,9
 1862 1088 1862 1088 1704 1088 c 0,10,11
 1472 1088 1472 1088 1472 906 c 0,12,13
 1472 832 1472 832 1528 794 c 1,14,15
 1562 780 1562 780 1596 766 c 1,16,17
 1656 774 1656 774 1722 738 c 0,18,19
 1806 688 1806 688 1806 584 c 0,20,21
 1806 448 1806 448 1720 404 c 1,22,23
 1804 366 1804 366 1804 192 c 0,24,25
 1804 58 1804 58 1760 -8 c 0,26,27
 1674 -146 1674 -146 1410 -144 c 0,28,29
 1408 -144 1408 -144 1252 -138 c 0,30,31
 1134 -132 1134 -132 1090 -138 c 0,32,33
 934 -158 934 -158 912 -214 c 1,34,-1
 846 -198 l 1,35,36
 864 -158 864 -158 892 -138 c 0,37,38
 942 -100 942 -100 1050 -88 c 0,39,40
 1092 -80 1092 -80 1240 -84 c 0,41,42
 1406 -88 1406 -88 1408 -88 c 0,43,44
 1582 -78 1582 -78 1650 -36 c 0,45,46
 1740 22 1740 22 1740 174 c 0,47,48
 1740 354 1740 354 1644 366 c 1,49,-1
 1644 428 l 1,50,51
 1740 452 1740 452 1740 582 c 0,52,53
 1740 630 1740 630 1706 664 c 0,54,55
 1666 706 1666 706 1590 706 c 0,56,57
 1410 706 1410 706 1412 492 c 2,58,-1
 1412 0 l 1,59,-1
 1326 0 l 1,60,-1
 1326 528 l 2,61,62
 1326 706 1326 706 1178 706 c 0,63,64
 1050 706 1050 706 1050 538 c 2,65,-1
 1050 0 l 1,66,-1
 578 0 l 1,67,68
 688 116 688 116 700 134 c 0,69,70
 766 230 766 230 766 370 c 0,71,72
 766 518 766 518 682 610 c 0,73,74
 592 708 592 708 432 708 c 0,75,76
 258 708 258 708 172 572 c 0,77,78
 112 476 112 476 118 390 c 1,79,80
 172 496 172 496 290 496 c 0,81,82
 382 496 382 496 446 424 c 0,83,84
 504 356 504 356 504 274 c 0,85,86
 504 152 504 152 441 74 c 128,-1,87
 378 -4 378 -4 280 -4 c 0,88,89
 194 -4 194 -4 130 82 c 0,90,91
 56 188 56 188 58 374 c 0,92,93
 60 532 60 532 152 642 c 0,94,95
 262 774 262 774 454 774 c 0,96,97
 598 774 598 774 702 686 c 0,98,99
 830 576 830 576 830 370 c 0,100,101
 830 160 830 160 726 64 c 1,102,-1
 992 64 l 1,103,-1
 992 584 l 1,104,105
 1006 766 1006 766 1184 766 c 0,106,107
 1276 766 1276 766 1332 708 c 0,108,109
 1372 668 1372 668 1378 630 c 1,110,111
 1414 728 1414 728 1502 754 c 1,112,113
 1400 780 1400 780 1400 910 c 0,114,115
 1400 1006 1400 1006 1462 1068 c 0,116,117
 1540 1148 1540 1148 1698 1148 c 0,118,119
 1852 1148 1852 1148 1937 1095 c 128,-1,120
 2022 1042 2022 1042 2022 952 c 0,0,1
1928 912 m 0,121,122
 1936 966 1936 966 1848 966 c 0,123,124
 1768 966 1768 966 1766 916 c 0,125,126
 1764 862 1764 862 1844 862 c 0,127,128
 1920 862 1920 862 1928 912 c 0,121,122
430 254 m 0,129,130
 430 332 430 332 388 378 c 128,-1,131
 346 424 346 424 288 424 c 0,132,133
 216 424 216 424 180 369 c 128,-1,134
 144 314 144 314 144 236 c 0,135,136
 144 166 144 166 184 117 c 128,-1,137
 224 68 224 68 276 68 c 0,138,139
 334 68 334 68 378 112 c 0,140,141
 430 164 430 164 430 254 c 0,129,130
EndSplineSet
Ligature2: "'abvs' Above Base Substitutions lookup 6 subtable" tm_ha tm_iikaar
EndChar

StartChar: tm_k_ukaar
Encoding: 65583 -1 163
Width: 1230
GlyphClass: 2
Flags: W
LayerCount: 2
Fore
SplineSet
1156 222 m 0,0,1
 1156 6 1156 6 1032 -114 c 0,2,3
 896 -246 896 -246 622 -246 c 0,4,5
 352 -246 352 -246 213 -107 c 128,-1,6
 74 32 74 32 74 292 c 0,7,8
 74 478 74 478 202 648 c 1,9,-1
 256 610 l 1,10,11
 200 524 200 524 180 482 c 0,12,13
 142 396 142 396 142 302 c 0,14,15
 142 38 142 38 288 -88 c 0,16,17
 408 -194 408 -194 618 -194 c 0,18,19
 1096 -194 1096 -194 1096 230 c 0,20,21
 1096 338 1096 338 1046 396 c 0,22,23
 998 448 998 448 922 448 c 2,24,-1
 818 448 l 1,25,-1
 818 380 l 2,26,27
 818 0 818 0 504 0 c 0,28,29
 372 0 372 0 304 88 c 0,30,31
 248 160 248 160 248 264 c 256,32,33
 248 368 248 368 307 439 c 128,-1,34
 366 510 366 510 466 516 c 1,35,-1
 466 768 l 1,36,-1
 1072 768 l 1,37,-1
 1072 704 l 1,38,-1
 818 704 l 1,39,-1
 818 516 l 1,40,-1
 930 516 l 2,41,42
 1156 516 1156 516 1156 222 c 0,0,1
756 516 m 1,43,-1
 756 702 l 1,44,-1
 532 702 l 1,45,-1
 532 516 l 1,46,-1
 756 516 l 1,43,-1
756 396 m 2,47,-1
 756 448 l 1,48,-1
 482 448 l 2,49,50
 418 448 418 448 370 402 c 0,51,52
 314 348 314 348 314 266 c 0,53,54
 314 172 314 172 367 116 c 128,-1,55
 420 60 420 60 514 60 c 0,56,57
 756 60 756 60 756 396 c 2,47,-1
EndSplineSet
Ligature2: "'psts' Post Base Substitutions lookup 7 subtable" tm_ka tm_ukaar
EndChar

StartChar: tm_ng_ukaar
Encoding: 65584 -1 164
Width: 1190
GlyphClass: 2
Flags: W
LayerCount: 2
Fore
SplineSet
1110 -242 m 1,0,-1
 1046 -242 l 1,1,-1
 1046 0 l 1,2,-1
 600 0 l 1,3,-1
 600 62 l 1,4,-1
 740 62 l 1,5,6
 802 140 802 140 802 226 c 0,7,8
 802 320 802 320 738 370 c 0,9,10
 688 410 688 410 626 410 c 0,11,12
 488 410 488 410 442 302 c 1,13,-1
 442 -2 l 1,14,-1
 378 -2 l 1,15,-1
 378 700 l 1,16,-1
 150 700 l 1,17,-1
 150 -2 l 1,18,-1
 86 -2 l 1,19,-1
 86 768 l 1,20,-1
 758 768 l 1,21,-1
 758 700 l 1,22,-1
 444 700 l 1,23,-1
 444 406 l 1,24,25
 500 470 500 470 640 470 c 0,26,27
 726 470 726 470 790 410 c 0,28,29
 864 340 864 340 864 228 c 0,30,31
 864 124 864 124 814 62 c 1,32,-1
 1046 62 l 1,33,-1
 1046 768 l 1,34,-1
 1112 768 l 1,35,-1
 1112 0 l 1,36,-1
 1110 0 l 1,37,-1
 1110 -242 l 1,0,-1
EndSplineSet
Ligature2: "'psts' Post Base Substitutions lookup 7 subtable" tm_nga tm_ukaar
EndChar

StartChar: tm_c_ukaar
Encoding: 65585 -1 165
Width: 1012
GlyphClass: 2
Flags: W
LayerCount: 2
Fore
SplineSet
962 448 m 1,0,-1
 870 448 l 1,1,-1
 870 0 l 1,2,-1
 810 0 l 1,3,-1
 810 448 l 1,4,-1
 654 448 l 1,5,-1
 654 384 l 2,6,7
 654 0 654 0 356 0 c 0,8,9
 226 0 226 0 155 70 c 128,-1,10
 84 140 84 140 84 266 c 0,11,12
 84 368 84 368 141 439 c 128,-1,13
 198 510 198 510 302 516 c 1,14,-1
 302 768 l 1,15,-1
 908 768 l 1,16,-1
 908 702 l 1,17,-1
 654 702 l 1,18,-1
 654 516 l 1,19,-1
 962 516 l 1,20,-1
 962 448 l 1,0,-1
592 516 m 1,21,-1
 592 702 l 1,22,-1
 368 702 l 1,23,-1
 368 516 l 1,24,-1
 592 516 l 1,21,-1
592 390 m 2,25,-1
 592 448 l 1,26,-1
 324 448 l 2,27,28
 248 448 248 448 199 394 c 128,-1,29
 150 340 150 340 150 268 c 0,30,31
 150 178 150 178 198 122 c 0,32,33
 252 60 252 60 346 60 c 0,34,35
 592 60 592 60 592 390 c 2,25,-1
EndSplineSet
Ligature2: "'psts' Post Base Substitutions lookup 7 subtable" tm_ca tm_ukaar
EndChar

StartChar: glyph167
Encoding: 65586 -1 166
Width: 1012
GlyphClass: 2
Flags: W
LayerCount: 2
Fore
SplineSet
68 876 m 1,0,-1
 943 876 l 1,1,-1
 943 0 l 1,2,-1
 68 0 l 1,3,-1
 68 876 l 1,0,-1
873 70 m 1,4,-1
 873 804 l 1,5,-1
 138 804 l 1,6,-1
 138 70 l 1,7,-1
 873 70 l 1,4,-1
EndSplineSet
EndChar

StartChar: tm_ny_ukaar
Encoding: 65587 -1 167
Width: 1747
GlyphClass: 2
Flags: W
LayerCount: 2
Fore
SplineSet
1690 -154 m 1,0,-1
 1312 -154 l 1,1,2
 1098 -290 1098 -290 770 -290 c 0,3,4
 232 -290 232 -290 228 -168 c 0,5,6
 226 -118 226 -118 292 -102 c 0,7,8
 318 -96 318 -96 356 -96 c 2,9,-1
 1266 -96 l 1,10,11
 1317 -61 1317 -61 1351 -17 c 1,12,-1
 1359 -3 l 1,13,14
 1368 41 1368 41 1368 92 c 0,15,16
 1368 206 1368 206 1308 272 c 0,17,18
 1262 324 1262 324 1206 324 c 0,19,20
 1076 324 1076 324 1054 224 c 1,21,-1
 1054 0 l 1,22,-1
 990 0 l 1,23,-1
 990 700 l 1,24,-1
 754 700 l 1,25,26
 558 704 558 704 452 598 c 0,27,28
 364 508 364 508 362 370 c 1,29,30
 426 480 426 480 554 480 c 0,31,32
 656 480 656 480 720 412 c 128,-1,33
 784 344 784 344 784 250 c 0,34,35
 784 160 784 160 734 92 c 0,36,37
 668 6 668 6 538 0 c 0,38,39
 462 -4 462 -4 392 60 c 0,40,41
 290 154 290 154 290 350 c 0,42,43
 290 550 290 550 426 664 c 0,44,45
 552 768 552 768 758 768 c 2,46,-1
 1188 768 l 1,47,-1
 1188 700 l 1,48,-1
 1054 700 l 1,49,-1
 1054 348 l 1,50,51
 1092 400 1092 400 1208 400 c 0,52,53
 1294 400 1294 400 1360 332 c 0,54,55
 1444 248 1444 248 1444 92 c 0,56,57
 1444 34 1444 34 1442 -17 c 1,58,59
 1426 -66 1426 -66 1372 -94 c 1,60,-1
 1622 -94 l 1,61,-1
 1622 764 l 1,62,-1
 1690 764 l 1,63,-1
 1690 -154 l 1,0,-1
702 248 m 0,64,65
 702 316 702 316 660 361 c 128,-1,66
 618 406 618 406 552 406 c 0,67,68
 478 406 478 406 435 353 c 128,-1,69
 392 300 392 300 392 232 c 256,70,71
 392 164 392 164 444 116 c 0,72,73
 488 72 488 72 536 72 c 0,74,75
 604 72 604 72 653 118 c 128,-1,76
 702 164 702 164 702 248 c 0,64,65
390 -152 m 2,77,78
 320 -152 320 -152 320 -168 c 0,79,80
 320 -190 320 -190 406 -204 c 0,81,82
 522 -224 522 -224 800 -224 c 0,83,84
 996 -224 996 -224 1190 -152 c 1,85,-1
 390 -152 l 2,77,78
EndSplineSet
Ligature2: "'psts' Post Base Substitutions lookup 7 subtable" tm_nya tm_ukaar
EndChar

StartChar: tm_tt_ukaar
Encoding: 65588 -1 168
Width: 1084
GlyphClass: 2
Flags: W
LayerCount: 2
Fore
SplineSet
1008 534 m 1,0,-1
 938 534 l 1,1,2
 938 940 938 940 546 940 c 0,3,4
 380 940 380 940 280 840 c 0,5,6
 140 702 140 702 140 392 c 0,7,8
 140 98 140 98 280 -36 c 0,9,10
 386 -140 386 -140 562 -140 c 0,11,12
 714 -140 714 -140 816 -60 c 0,13,14
 932 32 932 32 932 198 c 0,15,16
 932 316 932 316 864 372 c 0,17,18
 816 410 816 410 748 410 c 0,19,20
 632 410 632 410 566 302 c 1,21,-1
 566 0 l 1,22,-1
 500 0 l 1,23,-1
 500 762 l 1,24,-1
 566 762 l 1,25,-1
 566 402 l 1,26,27
 648 472 648 472 760 472 c 256,28,29
 872 472 872 472 938 395 c 128,-1,30
 1004 318 1004 318 1004 198 c 0,31,32
 1004 58 1004 58 926 -46 c 0,33,34
 810 -200 810 -200 562 -200 c 0,35,36
 304 -200 304 -200 176 -14 c 0,37,38
 72 140 72 140 72 390 c 0,39,40
 72 658 72 658 172 816 c 0,41,42
 290 1002 290 1002 540 1002 c 0,43,44
 996 1002 996 1002 1008 534 c 1,0,-1
EndSplineSet
Ligature2: "'psts' Post Base Substitutions lookup 7 subtable" tm_tta tm_ukaar
EndChar

